<svg xmlns="http://www.w3.org/2000/svg" width="900" height="442" viewBox="0 0 900 442">
  <rect x="0" y="0" width="900" height="442" fill="#1a1a1a"/>
  <rect x="0" y="0" width="218.7" height="442" fill="#0d1a3a" fill-opacity="0.7"/>
  <text x="109.4" y="14" text-anchor="middle" font-size="10" fill="#4466cc" font-family="sans-serif">BLUE</text>
  <rect x="262.5" y="0" width="386.0" height="442" fill="#111111" fill-opacity="0.7"/>
  <text x="455.5" y="14" text-anchor="middle" font-size="10" fill="#888" font-family="sans-serif">NEUTRAL</text>
  <rect x="686.2" y="0" width="213.8" height="442" fill="#3a0d0d" fill-opacity="0.7"/>
  <text x="793.1" y="14" text-anchor="middle" font-size="10" fill="#cc4444" font-family="sans-serif">RED</text>
  <rect x="0" y="0" width="900" height="442" fill="none" stroke="#888" stroke-width="2"/>
  <line x1="0.0" y1="442" x2="0.0" y2="437" stroke="#555" stroke-width="1"/>
  <text x="0.0" y="435" text-anchor="middle" font-size="7" fill="#666" font-family="monospace">0m</text>
  <line x1="109.4" y1="442" x2="109.4" y2="437" stroke="#555" stroke-width="1"/>
  <text x="109.4" y="435" text-anchor="middle" font-size="7" fill="#666" font-family="monospace">2m</text>
  <line x1="218.7" y1="442" x2="218.7" y2="437" stroke="#555" stroke-width="1"/>
  <text x="218.7" y="435" text-anchor="middle" font-size="7" fill="#666" font-family="monospace">4m</text>
  <line x1="328.1" y1="442" x2="328.1" y2="437" stroke="#555" stroke-width="1"/>
  <text x="328.1" y="435" text-anchor="middle" font-size="7" fill="#666" font-family="monospace">6m</text>
  <line x1="437.4" y1="442" x2="437.4" y2="437" stroke="#555" stroke-width="1"/>
  <text x="437.4" y="435" text-anchor="middle" font-size="7" fill="#666" font-family="monospace">8m</text>
  <line x1="546.8" y1="442" x2="546.8" y2="437" stroke="#555" stroke-width="1"/>
  <text x="546.8" y="435" text-anchor="middle" font-size="7" fill="#666" font-family="monospace">10m</text>
  <line x1="656.1" y1="442" x2="656.1" y2="437" stroke="#555" stroke-width="1"/>
  <text x="656.1" y="435" text-anchor="middle" font-size="7" fill="#666" font-family="monospace">12m</text>
  <line x1="765.5" y1="442" x2="765.5" y2="437" stroke="#555" stroke-width="1"/>
  <text x="765.5" y="435" text-anchor="middle" font-size="7" fill="#666" font-family="monospace">14m</text>
  <line x1="874.8" y1="442" x2="874.8" y2="437" stroke="#555" stroke-width="1"/>
  <text x="874.8" y="435" text-anchor="middle" font-size="7" fill="#666" font-family="monospace">16m</text>
  <line x1="0" y1="442.9" x2="5" y2="442.9" stroke="#555" stroke-width="1"/>
  <text x="7" y="442.9" dominant-baseline="middle" font-size="7" fill="#666" font-family="monospace">0m</text>
  <line x1="0" y1="333.5" x2="5" y2="333.5" stroke="#555" stroke-width="1"/>
  <text x="7" y="333.5" dominant-baseline="middle" font-size="7" fill="#666" font-family="monospace">2m</text>
  <line x1="0" y1="224.2" x2="5" y2="224.2" stroke="#555" stroke-width="1"/>
  <text x="7" y="224.2" dominant-baseline="middle" font-size="7" fill="#666" font-family="monospace">4m</text>
  <line x1="0" y1="114.8" x2="5" y2="114.8" stroke="#555" stroke-width="1"/>
  <text x="7" y="114.8" dominant-baseline="middle" font-size="7" fill="#666" font-family="monospace">6m</text>
  <line x1="0" y1="5.5" x2="5" y2="5.5" stroke="#555" stroke-width="1"/>
  <text x="7" y="5.5" dominant-baseline="middle" font-size="7" fill="#666" font-family="monospace">8m</text>
  <rect x="220.8" y="254.3" width="61.1" height="100.6" fill="none" stroke="#4d7dff" stroke-width="1.6" stroke-dasharray="4 3" stroke-opacity="0.85"/>
  <text x="224.8" y="263.3" text-anchor="start" font-size="8" fill="#9bb6ff" font-family="monospace">BumpDepotElement</text>
  <rect x="220.8" y="88.0" width="61.1" height="100.6" fill="none" stroke="#4d7dff" stroke-width="1.6" stroke-dasharray="4 3" stroke-opacity="0.85"/>
  <text x="224.8" y="97.0" text-anchor="start" font-size="8" fill="#9bb6ff" font-family="monospace">BumpOutpostElement</text>
  <rect x="218.7" y="189.0" width="65.3" height="65.3" fill="none" stroke="#4d7dff" stroke-width="1.6" stroke-dasharray="4 3" stroke-opacity="0.85"/>
  <text x="222.7" y="198.0" text-anchor="start" font-size="8" fill="#9bb6ff" font-family="monospace">HubElement</text>
  <rect x="218.7" y="354.9" width="65.3" height="17.0" fill="none" stroke="#4d7dff" stroke-width="1.6" stroke-dasharray="4 3" stroke-opacity="0.85"/>
  <text x="222.7" y="363.9" text-anchor="start" font-size="8" fill="#9bb6ff" font-family="monospace">TrenchADepotElement</text>
  <rect x="218.7" y="71.1" width="65.3" height="17.0" fill="none" stroke="#4d7dff" stroke-width="1.6" stroke-dasharray="4 3" stroke-opacity="0.85"/>
  <text x="222.7" y="80.1" text-anchor="start" font-size="8" fill="#9bb6ff" font-family="monospace">TrenchAOutpostElement</text>
  <polyline points="197.64,100.62 197.62,100.73 197.55,101.07 197.45,101.62 197.30,102.39 197.11,103.39 196.88,104.61 196.60,106.04 196.28,107.70 195.93,109.58 195.52,111.69 195.08,114.01 194.59,116.55 194.06,119.32 193.51,122.19 192.98,124.95 192.50,127.50 192.05,129.82 191.65,131.92 191.29,133.80 190.98,135.46 190.70,136.90 190.47,138.12 190.28,139.11 190.13,139.89 190.02,140.44 189.96,140.77 189.94,140.88" fill="none" stroke="#00d4ff" stroke-width="2" stroke-opacity="0.85" stroke-linejoin="round" stroke-linecap="round"/>
  <g id="pose0" transform="translate(197.64,100.62) rotate(-90.00)">
    <line x1="0" y1="0" x2="10.00" y2="0" stroke="#00d4ff" stroke-width="1.5" stroke-opacity="0.6"/>
    <circle cx="0" cy="0" r="1.5" fill="#00d4ff" fill-opacity="0.5"/>
  </g>
  <g id="pose1" transform="translate(197.62,100.73) rotate(-90.00)">
    <line x1="0" y1="0" x2="10.00" y2="0" stroke="#00d4ff" stroke-width="1.5" stroke-opacity="0.6"/>
    <circle cx="0" cy="0" r="1.5" fill="#00d4ff" fill-opacity="0.5"/>
  </g>
  <g id="pose2" transform="translate(197.55,101.07) rotate(-90.28)">
    <line x1="0" y1="0" x2="10.00" y2="0" stroke="#00d4ff" stroke-width="1.5" stroke-opacity="0.6"/>
    <circle cx="0" cy="0" r="1.5" fill="#00d4ff" fill-opacity="0.5"/>
  </g>
  <g id="pose3" transform="translate(197.45,101.62) rotate(-90.81)">
    <line x1="0" y1="0" x2="10.00" y2="0" stroke="#00d4ff" stroke-width="1.5" stroke-opacity="0.6"/>
    <circle cx="0" cy="0" r="1.5" fill="#00d4ff" fill-opacity="0.5"/>
  </g>
  <g id="pose4" transform="translate(197.30,102.39) rotate(-91.56)">
    <line x1="0" y1="0" x2="10.00" y2="0" stroke="#00d4ff" stroke-width="1.5" stroke-opacity="0.6"/>
    <circle cx="0" cy="0" r="1.5" fill="#00d4ff" fill-opacity="0.5"/>
  </g>
  <g id="pose5" transform="translate(197.11,103.39) rotate(-92.50)">
    <line x1="0" y1="0" x2="10.00" y2="0" stroke="#00d4ff" stroke-width="1.5" stroke-opacity="0.6"/>
    <circle cx="0" cy="0" r="1.5" fill="#00d4ff" fill-opacity="0.5"/>
  </g>
  <g id="pose6" transform="translate(196.88,104.61) rotate(-93.61)">
    <line x1="0" y1="0" x2="10.00" y2="0" stroke="#00d4ff" stroke-width="1.5" stroke-opacity="0.6"/>
    <circle cx="0" cy="0" r="1.5" fill="#00d4ff" fill-opacity="0.5"/>
  </g>
  <g id="pose7" transform="translate(196.60,106.04) rotate(-94.87)">
    <line x1="0" y1="0" x2="10.00" y2="0" stroke="#00d4ff" stroke-width="1.5" stroke-opacity="0.6"/>
    <circle cx="0" cy="0" r="1.5" fill="#00d4ff" fill-opacity="0.5"/>
  </g>
  <g id="pose8" transform="translate(196.28,107.70) rotate(-96.25)">
    <line x1="0" y1="0" x2="10.00" y2="0" stroke="#00d4ff" stroke-width="1.5" stroke-opacity="0.6"/>
    <circle cx="0" cy="0" r="1.5" fill="#00d4ff" fill-opacity="0.5"/>
  </g>
  <g id="pose9" transform="translate(195.93,109.58) rotate(-97.74)">
    <line x1="0" y1="0" x2="10.00" y2="0" stroke="#00d4ff" stroke-width="1.5" stroke-opacity="0.6"/>
    <circle cx="0" cy="0" r="1.5" fill="#00d4ff" fill-opacity="0.5"/>
  </g>
  <g id="pose10" transform="translate(195.52,111.69) rotate(-99.31)">
    <line x1="0" y1="0" x2="10.00" y2="0" stroke="#00d4ff" stroke-width="1.5" stroke-opacity="0.6"/>
    <circle cx="0" cy="0" r="1.5" fill="#00d4ff" fill-opacity="0.5"/>
  </g>
  <g id="pose11" transform="translate(195.08,114.01) rotate(-100.94)">
    <line x1="0" y1="0" x2="10.00" y2="0" stroke="#00d4ff" stroke-width="1.5" stroke-opacity="0.6"/>
    <circle cx="0" cy="0" r="1.5" fill="#00d4ff" fill-opacity="0.5"/>
  </g>
  <g id="pose12" transform="translate(194.59,116.55) rotate(-102.62)">
    <line x1="0" y1="0" x2="10.00" y2="0" stroke="#00d4ff" stroke-width="1.5" stroke-opacity="0.6"/>
    <circle cx="0" cy="0" r="1.5" fill="#00d4ff" fill-opacity="0.5"/>
  </g>
  <g id="pose13" transform="translate(194.06,119.32) rotate(-104.31)">
    <line x1="0" y1="0" x2="10.00" y2="0" stroke="#00d4ff" stroke-width="1.5" stroke-opacity="0.6"/>
    <circle cx="0" cy="0" r="1.5" fill="#00d4ff" fill-opacity="0.5"/>
  </g>
  <g id="pose14" transform="translate(193.51,122.19) rotate(-106.01)">
    <line x1="0" y1="0" x2="10.00" y2="0" stroke="#00d4ff" stroke-width="1.5" stroke-opacity="0.6"/>
    <circle cx="0" cy="0" r="1.5" fill="#00d4ff" fill-opacity="0.5"/>
  </g>
  <g id="pose15" transform="translate(192.98,124.95) rotate(-107.70)">
    <line x1="0" y1="0" x2="10.00" y2="0" stroke="#00d4ff" stroke-width="1.5" stroke-opacity="0.6"/>
    <circle cx="0" cy="0" r="1.5" fill="#00d4ff" fill-opacity="0.5"/>
  </g>
  <g id="pose16" transform="translate(192.50,127.50) rotate(-109.40)">
    <line x1="0" y1="0" x2="10.00" y2="0" stroke="#00d4ff" stroke-width="1.5" stroke-opacity="0.6"/>
    <circle cx="0" cy="0" r="1.5" fill="#00d4ff" fill-opacity="0.5"/>
  </g>
  <g id="pose17" transform="translate(192.05,129.82) rotate(-111.08)">
    <line x1="0" y1="0" x2="10.00" y2="0" stroke="#00d4ff" stroke-width="1.5" stroke-opacity="0.6"/>
    <circle cx="0" cy="0" r="1.5" fill="#00d4ff" fill-opacity="0.5"/>
  </g>
  <g id="pose18" transform="translate(191.65,131.92) rotate(-112.72)">
    <line x1="0" y1="0" x2="10.00" y2="0" stroke="#00d4ff" stroke-width="1.5" stroke-opacity="0.6"/>
    <circle cx="0" cy="0" r="1.5" fill="#00d4ff" fill-opacity="0.5"/>
  </g>
  <g id="pose19" transform="translate(191.29,133.80) rotate(-114.29)">
    <line x1="0" y1="0" x2="10.00" y2="0" stroke="#00d4ff" stroke-width="1.5" stroke-opacity="0.6"/>
    <circle cx="0" cy="0" r="1.5" fill="#00d4ff" fill-opacity="0.5"/>
  </g>
  <g id="pose20" transform="translate(190.98,135.46) rotate(-115.78)">
    <line x1="0" y1="0" x2="10.00" y2="0" stroke="#00d4ff" stroke-width="1.5" stroke-opacity="0.6"/>
    <circle cx="0" cy="0" r="1.5" fill="#00d4ff" fill-opacity="0.5"/>
  </g>
  <g id="pose21" transform="translate(190.70,136.90) rotate(-117.17)">
    <line x1="0" y1="0" x2="10.00" y2="0" stroke="#00d4ff" stroke-width="1.5" stroke-opacity="0.6"/>
    <circle cx="0" cy="0" r="1.5" fill="#00d4ff" fill-opacity="0.5"/>
  </g>
  <g id="pose22" transform="translate(190.47,138.12) rotate(-118.44)">
    <line x1="0" y1="0" x2="10.00" y2="0" stroke="#00d4ff" stroke-width="1.5" stroke-opacity="0.6"/>
    <circle cx="0" cy="0" r="1.5" fill="#00d4ff" fill-opacity="0.5"/>
  </g>
  <g id="pose23" transform="translate(190.28,139.11) rotate(-119.56)">
    <line x1="0" y1="0" x2="10.00" y2="0" stroke="#00d4ff" stroke-width="1.5" stroke-opacity="0.6"/>
    <circle cx="0" cy="0" r="1.5" fill="#00d4ff" fill-opacity="0.5"/>
  </g>
  <g id="pose24" transform="translate(190.13,139.89) rotate(-120.51)">
    <line x1="0" y1="0" x2="10.00" y2="0" stroke="#00d4ff" stroke-width="1.5" stroke-opacity="0.6"/>
    <circle cx="0" cy="0" r="1.5" fill="#00d4ff" fill-opacity="0.5"/>
  </g>
  <g id="pose25" transform="translate(190.02,140.44) rotate(-121.26)">
    <line x1="0" y1="0" x2="10.00" y2="0" stroke="#00d4ff" stroke-width="1.5" stroke-opacity="0.6"/>
    <circle cx="0" cy="0" r="1.5" fill="#00d4ff" fill-opacity="0.5"/>
  </g>
  <g id="pose26" transform="translate(189.96,140.77) rotate(-121.79)">
    <line x1="0" y1="0" x2="10.00" y2="0" stroke="#00d4ff" stroke-width="1.5" stroke-opacity="0.6"/>
    <circle cx="0" cy="0" r="1.5" fill="#00d4ff" fill-opacity="0.5"/>
  </g>
  <g id="pose27" transform="translate(189.94,140.88) rotate(-122.07)">
    <rect x="-20.83" y="-25.00" width="41.66" height="50.00" rx="3" fill="#00d4ff" fill-opacity="0.25" stroke="#00d4ff" stroke-width="1.2" stroke-opacity="0.7"/>
    <rect x="-16.67" y="-20.83" width="33.33" height="41.66" fill="#00d4ff" fill-opacity="0.55" stroke="#00d4ff" stroke-width="1.5"/>
    <polygon points="16.67,0 2.08,14.58 2.08,-14.58" fill="#ffffff" fill-opacity="0.9"/>
    <circle cx="0" cy="0" r="3" fill="#ffffff" fill-opacity="0.9"/>
  </g>
  <rect x="199.6" y="83.6" width="79.5" height="11" rx="3" fill="#000000" fill-opacity="0.65"/>
  <text x="203.6" y="92.6" font-size="9" fill="#00d4ff" font-family="monospace" font-weight="bold">S1: Passing1_Init</text>
  <polyline points="189.94,140.88 190.14,140.88 190.73,140.88 191.72,140.88 193.10,140.88 194.87,140.88 197.05,140.88 199.61,140.88 202.57,140.88 205.93,140.88 209.68,140.88 213.82,140.88 218.36,140.88 223.30,140.88 228.62,140.88 234.35,140.88 240.46,140.88 246.98,140.88 253.88,140.88 260.78,140.88 267.30,140.88 273.41,140.88 279.14,140.88 284.47,140.88 289.40,140.88 293.94,140.88 298.08,140.88 301.83,140.88 305.19,140.88 308.15,140.88 310.72,140.88 312.89,140.88 314.66,140.88 316.04,140.88 317.03,140.88 317.62,140.88 317.82,140.88" fill="none" stroke="#ffcc00" stroke-width="2" stroke-opacity="0.85" stroke-linejoin="round" stroke-linecap="round"/>
  <g id="pose1000" transform="translate(189.94,140.88) rotate(-122.07)">
    <rect x="-20.83" y="-25.00" width="41.66" height="50.00" rx="3" fill="#ffcc00" fill-opacity="0.25" stroke="#ffcc00" stroke-width="1.2" stroke-opacity="0.7"/>
    <rect x="-16.67" y="-20.83" width="33.33" height="41.66" fill="#ffcc00" fill-opacity="0.55" stroke="#ffcc00" stroke-width="1.5"/>
    <polygon points="16.67,0 2.08,14.58 2.08,-14.58" fill="#ffffff" fill-opacity="0.9"/>
    <circle cx="0" cy="0" r="3" fill="#ffffff" fill-opacity="0.9"/>
  </g>
  <g id="pose1001" transform="translate(190.14,140.88) rotate(-122.07)">
    <line x1="0" y1="0" x2="10.00" y2="0" stroke="#ffcc00" stroke-width="1.5" stroke-opacity="0.6"/>
    <circle cx="0" cy="0" r="1.5" fill="#ffcc00" fill-opacity="0.5"/>
  </g>
  <g id="pose1002" transform="translate(190.73,140.88) rotate(-122.06)">
    <line x1="0" y1="0" x2="10.00" y2="0" stroke="#ffcc00" stroke-width="1.5" stroke-opacity="0.6"/>
    <circle cx="0" cy="0" r="1.5" fill="#ffcc00" fill-opacity="0.5"/>
  </g>
  <g id="pose1003" transform="translate(191.72,140.88) rotate(-122.06)">
    <line x1="0" y1="0" x2="10.00" y2="0" stroke="#ffcc00" stroke-width="1.5" stroke-opacity="0.6"/>
    <circle cx="0" cy="0" r="1.5" fill="#ffcc00" fill-opacity="0.5"/>
  </g>
  <g id="pose1004" transform="translate(193.10,140.88) rotate(-122.05)">
    <line x1="0" y1="0" x2="10.00" y2="0" stroke="#ffcc00" stroke-width="1.5" stroke-opacity="0.6"/>
    <circle cx="0" cy="0" r="1.5" fill="#ffcc00" fill-opacity="0.5"/>
  </g>
  <g id="pose1005" transform="translate(194.87,140.88) rotate(-122.04)">
    <line x1="0" y1="0" x2="10.00" y2="0" stroke="#ffcc00" stroke-width="1.5" stroke-opacity="0.6"/>
    <circle cx="0" cy="0" r="1.5" fill="#ffcc00" fill-opacity="0.5"/>
  </g>
  <g id="pose1006" transform="translate(197.05,140.88) rotate(-122.03)">
    <line x1="0" y1="0" x2="10.00" y2="0" stroke="#ffcc00" stroke-width="1.5" stroke-opacity="0.6"/>
    <circle cx="0" cy="0" r="1.5" fill="#ffcc00" fill-opacity="0.5"/>
  </g>
  <g id="pose1007" transform="translate(199.61,140.88) rotate(-122.02)">
    <line x1="0" y1="0" x2="10.00" y2="0" stroke="#ffcc00" stroke-width="1.5" stroke-opacity="0.6"/>
    <circle cx="0" cy="0" r="1.5" fill="#ffcc00" fill-opacity="0.5"/>
  </g>
  <g id="pose1008" transform="translate(202.57,140.88) rotate(-122.02)">
    <line x1="0" y1="0" x2="10.00" y2="0" stroke="#ffcc00" stroke-width="1.5" stroke-opacity="0.6"/>
    <circle cx="0" cy="0" r="1.5" fill="#ffcc00" fill-opacity="0.5"/>
  </g>
  <g id="pose1009" transform="translate(205.93,140.88) rotate(-122.01)">
    <line x1="0" y1="0" x2="10.00" y2="0" stroke="#ffcc00" stroke-width="1.5" stroke-opacity="0.6"/>
    <circle cx="0" cy="0" r="1.5" fill="#ffcc00" fill-opacity="0.5"/>
  </g>
  <g id="pose1010" transform="translate(209.68,140.88) rotate(-122.00)">
    <line x1="0" y1="0" x2="10.00" y2="0" stroke="#ffcc00" stroke-width="1.5" stroke-opacity="0.6"/>
    <circle cx="0" cy="0" r="1.5" fill="#ffcc00" fill-opacity="0.5"/>
  </g>
  <g id="pose1011" transform="translate(213.82,140.88) rotate(-121.99)">
    <line x1="0" y1="0" x2="10.00" y2="0" stroke="#ffcc00" stroke-width="1.5" stroke-opacity="0.6"/>
    <circle cx="0" cy="0" r="1.5" fill="#ffcc00" fill-opacity="0.5"/>
  </g>
  <g id="pose1012" transform="translate(218.36,140.88) rotate(-121.99)">
    <line x1="0" y1="0" x2="10.00" y2="0" stroke="#ffcc00" stroke-width="1.5" stroke-opacity="0.6"/>
    <circle cx="0" cy="0" r="1.5" fill="#ffcc00" fill-opacity="0.5"/>
  </g>
  <g id="pose1013" transform="translate(223.30,140.88) rotate(-121.99)">
    <line x1="0" y1="0" x2="10.00" y2="0" stroke="#ffcc00" stroke-width="1.5" stroke-opacity="0.6"/>
    <circle cx="0" cy="0" r="1.5" fill="#ffcc00" fill-opacity="0.5"/>
  </g>
  <g id="pose1014" transform="translate(228.62,140.88) rotate(-122.00)">
    <line x1="0" y1="0" x2="10.00" y2="0" stroke="#ffcc00" stroke-width="1.5" stroke-opacity="0.6"/>
    <circle cx="0" cy="0" r="1.5" fill="#ffcc00" fill-opacity="0.5"/>
  </g>
  <g id="pose1015" transform="translate(234.35,140.88) rotate(-122.00)">
    <line x1="0" y1="0" x2="10.00" y2="0" stroke="#ffcc00" stroke-width="1.5" stroke-opacity="0.6"/>
    <circle cx="0" cy="0" r="1.5" fill="#ffcc00" fill-opacity="0.5"/>
  </g>
  <g id="pose1016" transform="translate(240.46,140.88) rotate(-122.04)">
    <line x1="0" y1="0" x2="10.00" y2="0" stroke="#ffcc00" stroke-width="1.5" stroke-opacity="0.6"/>
    <circle cx="0" cy="0" r="1.5" fill="#ffcc00" fill-opacity="0.5"/>
  </g>
  <g id="pose1017" transform="translate(246.98,140.88) rotate(-122.07)">
    <line x1="0" y1="0" x2="10.00" y2="0" stroke="#ffcc00" stroke-width="1.5" stroke-opacity="0.6"/>
    <circle cx="0" cy="0" r="1.5" fill="#ffcc00" fill-opacity="0.5"/>
  </g>
  <g id="pose1018" transform="translate(253.88,140.88) rotate(-122.14)">
    <line x1="0" y1="0" x2="10.00" y2="0" stroke="#ffcc00" stroke-width="1.5" stroke-opacity="0.6"/>
    <circle cx="0" cy="0" r="1.5" fill="#ffcc00" fill-opacity="0.5"/>
  </g>
  <g id="pose1019" transform="translate(260.78,140.88) rotate(-122.22)">
    <line x1="0" y1="0" x2="10.00" y2="0" stroke="#ffcc00" stroke-width="1.5" stroke-opacity="0.6"/>
    <circle cx="0" cy="0" r="1.5" fill="#ffcc00" fill-opacity="0.5"/>
  </g>
  <g id="pose1020" transform="translate(267.30,140.88) rotate(-122.24)">
    <line x1="0" y1="0" x2="10.00" y2="0" stroke="#ffcc00" stroke-width="1.5" stroke-opacity="0.6"/>
    <circle cx="0" cy="0" r="1.5" fill="#ffcc00" fill-opacity="0.5"/>
  </g>
  <g id="pose1021" transform="translate(273.41,140.88) rotate(-122.27)">
    <line x1="0" y1="0" x2="10.00" y2="0" stroke="#ffcc00" stroke-width="1.5" stroke-opacity="0.6"/>
    <circle cx="0" cy="0" r="1.5" fill="#ffcc00" fill-opacity="0.5"/>
  </g>
  <g id="pose1022" transform="translate(279.14,140.88) rotate(-122.27)">
    <line x1="0" y1="0" x2="10.00" y2="0" stroke="#ffcc00" stroke-width="1.5" stroke-opacity="0.6"/>
    <circle cx="0" cy="0" r="1.5" fill="#ffcc00" fill-opacity="0.5"/>
  </g>
  <g id="pose1023" transform="translate(284.47,140.88) rotate(-122.27)">
    <line x1="0" y1="0" x2="10.00" y2="0" stroke="#ffcc00" stroke-width="1.5" stroke-opacity="0.6"/>
    <circle cx="0" cy="0" r="1.5" fill="#ffcc00" fill-opacity="0.5"/>
  </g>
  <g id="pose1024" transform="translate(289.40,140.88) rotate(-122.25)">
    <line x1="0" y1="0" x2="10.00" y2="0" stroke="#ffcc00" stroke-width="1.5" stroke-opacity="0.6"/>
    <circle cx="0" cy="0" r="1.5" fill="#ffcc00" fill-opacity="0.5"/>
  </g>
  <g id="pose1025" transform="translate(293.94,140.88) rotate(-122.24)">
    <line x1="0" y1="0" x2="10.00" y2="0" stroke="#ffcc00" stroke-width="1.5" stroke-opacity="0.6"/>
    <circle cx="0" cy="0" r="1.5" fill="#ffcc00" fill-opacity="0.5"/>
  </g>
  <g id="pose1026" transform="translate(298.08,140.88) rotate(-122.22)">
    <line x1="0" y1="0" x2="10.00" y2="0" stroke="#ffcc00" stroke-width="1.5" stroke-opacity="0.6"/>
    <circle cx="0" cy="0" r="1.5" fill="#ffcc00" fill-opacity="0.5"/>
  </g>
  <g id="pose1027" transform="translate(301.83,140.88) rotate(-122.21)">
    <line x1="0" y1="0" x2="10.00" y2="0" stroke="#ffcc00" stroke-width="1.5" stroke-opacity="0.6"/>
    <circle cx="0" cy="0" r="1.5" fill="#ffcc00" fill-opacity="0.5"/>
  </g>
  <g id="pose1028" transform="translate(305.19,140.88) rotate(-122.19)">
    <line x1="0" y1="0" x2="10.00" y2="0" stroke="#ffcc00" stroke-width="1.5" stroke-opacity="0.6"/>
    <circle cx="0" cy="0" r="1.5" fill="#ffcc00" fill-opacity="0.5"/>
  </g>
  <g id="pose1029" transform="translate(308.15,140.88) rotate(-122.17)">
    <line x1="0" y1="0" x2="10.00" y2="0" stroke="#ffcc00" stroke-width="1.5" stroke-opacity="0.6"/>
    <circle cx="0" cy="0" r="1.5" fill="#ffcc00" fill-opacity="0.5"/>
  </g>
  <g id="pose1030" transform="translate(310.72,140.88) rotate(-122.15)">
    <line x1="0" y1="0" x2="10.00" y2="0" stroke="#ffcc00" stroke-width="1.5" stroke-opacity="0.6"/>
    <circle cx="0" cy="0" r="1.5" fill="#ffcc00" fill-opacity="0.5"/>
  </g>
  <g id="pose1031" transform="translate(312.89,140.88) rotate(-122.14)">
    <line x1="0" y1="0" x2="10.00" y2="0" stroke="#ffcc00" stroke-width="1.5" stroke-opacity="0.6"/>
    <circle cx="0" cy="0" r="1.5" fill="#ffcc00" fill-opacity="0.5"/>
  </g>
  <g id="pose1032" transform="translate(314.66,140.88) rotate(-122.12)">
    <line x1="0" y1="0" x2="10.00" y2="0" stroke="#ffcc00" stroke-width="1.5" stroke-opacity="0.6"/>
    <circle cx="0" cy="0" r="1.5" fill="#ffcc00" fill-opacity="0.5"/>
  </g>
  <g id="pose1033" transform="translate(316.04,140.88) rotate(-122.11)">
    <line x1="0" y1="0" x2="10.00" y2="0" stroke="#ffcc00" stroke-width="1.5" stroke-opacity="0.6"/>
    <circle cx="0" cy="0" r="1.5" fill="#ffcc00" fill-opacity="0.5"/>
  </g>
  <g id="pose1034" transform="translate(317.03,140.88) rotate(-122.09)">
    <line x1="0" y1="0" x2="10.00" y2="0" stroke="#ffcc00" stroke-width="1.5" stroke-opacity="0.6"/>
    <circle cx="0" cy="0" r="1.5" fill="#ffcc00" fill-opacity="0.5"/>
  </g>
  <g id="pose1035" transform="translate(317.62,140.88) rotate(-122.08)">
    <rect x="-20.83" y="-25.00" width="41.66" height="50.00" rx="3" fill="#ffcc00" fill-opacity="0.25" stroke="#ffcc00" stroke-width="1.2" stroke-opacity="0.7"/>
    <rect x="-16.67" y="-20.83" width="33.33" height="41.66" fill="#ffcc00" fill-opacity="0.55" stroke="#ffcc00" stroke-width="1.5"/>
    <polygon points="16.67,0 2.08,14.58 2.08,-14.58" fill="#ffffff" fill-opacity="0.9"/>
    <circle cx="0" cy="0" r="3" fill="#ffffff" fill-opacity="0.9"/>
  </g>
  <g id="pose1036" transform="translate(317.82,140.88) rotate(-122.07)">
    <rect x="-20.83" y="-25.00" width="41.66" height="50.00" rx="3" fill="#ffcc00" fill-opacity="0.25" stroke="#ffcc00" stroke-width="1.2" stroke-opacity="0.7"/>
    <rect x="-16.67" y="-20.83" width="33.33" height="41.66" fill="#ffcc00" fill-opacity="0.55" stroke="#ffcc00" stroke-width="1.5"/>
    <polygon points="16.67,0 2.08,14.58 2.08,-14.58" fill="#ffffff" fill-opacity="0.9"/>
    <circle cx="0" cy="0" r="3" fill="#ffffff" fill-opacity="0.9"/>
  </g>
  <rect x="191.9" y="123.9" width="90.5" height="11" rx="3" fill="#000000" fill-opacity="0.65"/>
  <text x="195.9" y="132.9" font-size="9" fill="#ffcc00" font-family="monospace" font-weight="bold">S3: Passing1_Init_B</text>
  <polyline points="310.12,140.29 314.57,134.85 328.35,118.94 357.15,92.16 388.86,76.69 416.23,74.48 438.43,85.79 453.57,115.01 453.37,150.85 438.68,182.79 421.21,198.29 410.78,202.63 398.81,204.10 388.45,202.38 378.76,197.88 362.62,180.95 351.32,147.92 353.02,112.95 365.33,84.25 379.20,69.82 391.93,63.66 405.79,63.07 416.37,67.95 424.39,77.53 429.86,94.15 431.35,120.08 429.37,150.01 426.46,186.91 427.83,231.12 434.19,273.43 438.58,311.99 438.25,338.71 433.58,358.53 425.59,370.53 415.11,376.41 401.95,375.48 390.77,367.84 381.34,353.54 374.61,331.76 371.04,299.04 371.45,262.68 375.33,219.53 380.34,177.23 382.44,142.27 381.34,110.61 377.26,89.30 370.47,74.70 362.05,66.76 351.58,64.63 342.88,68.81 335.97,78.61 331.55,95.57 330.53,118.96 333.09,153.11 337.89,190.74 341.91,246.68 342.84,294.42 343.19,332.40 343.27,352.16 343.28,358.75" fill="none" stroke="#ff6688" stroke-width="2" stroke-opacity="0.85" stroke-linejoin="round" stroke-linecap="round"/>
  <g id="pose2000" transform="translate(310.12,140.29) rotate(38.52)">
    <rect x="-20.83" y="-25.00" width="41.66" height="50.00" rx="3" fill="#ff6688" fill-opacity="0.25" stroke="#ff6688" stroke-width="1.2" stroke-opacity="0.7"/>
    <rect x="-16.67" y="-20.83" width="33.33" height="41.66" fill="#ff6688" fill-opacity="0.55" stroke="#ff6688" stroke-width="1.5"/>
    <polygon points="16.67,0 2.08,14.58 2.08,-14.58" fill="#ffffff" fill-opacity="0.9"/>
    <circle cx="0" cy="0" r="3" fill="#ffffff" fill-opacity="0.9"/>
  </g>
  <g id="pose2001" transform="translate(314.57,134.85) rotate(41.32)">
    <line x1="0" y1="0" x2="10.00" y2="0" stroke="#ff6688" stroke-width="1.5" stroke-opacity="0.6"/>
    <circle cx="0" cy="0" r="1.5" fill="#ff6688" fill-opacity="0.5"/>
  </g>
  <g id="pose2002" transform="translate(328.35,118.94) rotate(48.09)">
    <line x1="0" y1="0" x2="10.00" y2="0" stroke="#ff6688" stroke-width="1.5" stroke-opacity="0.6"/>
    <circle cx="0" cy="0" r="1.5" fill="#ff6688" fill-opacity="0.5"/>
  </g>
  <g id="pose2003" transform="translate(357.15,92.16) rotate(58.22)">
    <line x1="0" y1="0" x2="10.00" y2="0" stroke="#ff6688" stroke-width="1.5" stroke-opacity="0.6"/>
    <circle cx="0" cy="0" r="1.5" fill="#ff6688" fill-opacity="0.5"/>
  </g>
  <g id="pose2004" transform="translate(388.86,76.69) rotate(69.31)">
    <line x1="0" y1="0" x2="10.00" y2="0" stroke="#ff6688" stroke-width="1.5" stroke-opacity="0.6"/>
    <circle cx="0" cy="0" r="1.5" fill="#ff6688" fill-opacity="0.5"/>
  </g>
  <g id="pose2005" transform="translate(416.23,74.48) rotate(83.50)">
    <line x1="0" y1="0" x2="10.00" y2="0" stroke="#ff6688" stroke-width="1.5" stroke-opacity="0.6"/>
    <circle cx="0" cy="0" r="1.5" fill="#ff6688" fill-opacity="0.5"/>
  </g>
  <g id="pose2006" transform="translate(438.43,85.79) rotate(103.45)">
    <line x1="0" y1="0" x2="10.00" y2="0" stroke="#ff6688" stroke-width="1.5" stroke-opacity="0.6"/>
    <circle cx="0" cy="0" r="1.5" fill="#ff6688" fill-opacity="0.5"/>
  </g>
  <g id="pose2007" transform="translate(453.57,115.01) rotate(127.44)">
    <line x1="0" y1="0" x2="10.00" y2="0" stroke="#ff6688" stroke-width="1.5" stroke-opacity="0.6"/>
    <circle cx="0" cy="0" r="1.5" fill="#ff6688" fill-opacity="0.5"/>
  </g>
  <g id="pose2008" transform="translate(453.37,150.85) rotate(138.93)">
    <line x1="0" y1="0" x2="10.00" y2="0" stroke="#ff6688" stroke-width="1.5" stroke-opacity="0.6"/>
    <circle cx="0" cy="0" r="1.5" fill="#ff6688" fill-opacity="0.5"/>
  </g>
  <g id="pose2009" transform="translate(438.68,182.79) rotate(124.94)">
    <line x1="0" y1="0" x2="10.00" y2="0" stroke="#ff6688" stroke-width="1.5" stroke-opacity="0.6"/>
    <circle cx="0" cy="0" r="1.5" fill="#ff6688" fill-opacity="0.5"/>
  </g>
  <g id="pose2010" transform="translate(421.21,198.29) rotate(76.42)">
    <line x1="0" y1="0" x2="10.00" y2="0" stroke="#ff6688" stroke-width="1.5" stroke-opacity="0.6"/>
    <circle cx="0" cy="0" r="1.5" fill="#ff6688" fill-opacity="0.5"/>
  </g>
  <g id="pose2011" transform="translate(410.78,202.63) rotate(36.47)">
    <line x1="0" y1="0" x2="10.00" y2="0" stroke="#ff6688" stroke-width="1.5" stroke-opacity="0.6"/>
    <circle cx="0" cy="0" r="1.5" fill="#ff6688" fill-opacity="0.5"/>
  </g>
  <g id="pose2012" transform="translate(398.81,204.10) rotate(-11.05)">
    <line x1="0" y1="0" x2="10.00" y2="0" stroke="#ff6688" stroke-width="1.5" stroke-opacity="0.6"/>
    <circle cx="0" cy="0" r="1.5" fill="#ff6688" fill-opacity="0.5"/>
  </g>
  <g id="pose2013" transform="translate(388.45,202.38) rotate(-51.54)">
    <line x1="0" y1="0" x2="10.00" y2="0" stroke="#ff6688" stroke-width="1.5" stroke-opacity="0.6"/>
    <circle cx="0" cy="0" r="1.5" fill="#ff6688" fill-opacity="0.5"/>
  </g>
  <g id="pose2014" transform="translate(378.76,197.88) rotate(-86.29)">
    <line x1="0" y1="0" x2="10.00" y2="0" stroke="#ff6688" stroke-width="1.5" stroke-opacity="0.6"/>
    <circle cx="0" cy="0" r="1.5" fill="#ff6688" fill-opacity="0.5"/>
  </g>
  <g id="pose2015" transform="translate(362.62,180.95) rotate(-120.77)">
    <line x1="0" y1="0" x2="10.00" y2="0" stroke="#ff6688" stroke-width="1.5" stroke-opacity="0.6"/>
    <circle cx="0" cy="0" r="1.5" fill="#ff6688" fill-opacity="0.5"/>
  </g>
  <g id="pose2016" transform="translate(351.32,147.92) rotate(-110.19)">
    <line x1="0" y1="0" x2="10.00" y2="0" stroke="#ff6688" stroke-width="1.5" stroke-opacity="0.6"/>
    <circle cx="0" cy="0" r="1.5" fill="#ff6688" fill-opacity="0.5"/>
  </g>
  <g id="pose2017" transform="translate(353.02,112.95) rotate(-87.62)">
    <line x1="0" y1="0" x2="10.00" y2="0" stroke="#ff6688" stroke-width="1.5" stroke-opacity="0.6"/>
    <circle cx="0" cy="0" r="1.5" fill="#ff6688" fill-opacity="0.5"/>
  </g>
  <g id="pose2018" transform="translate(365.33,84.25) rotate(-81.45)">
    <line x1="0" y1="0" x2="10.00" y2="0" stroke="#ff6688" stroke-width="1.5" stroke-opacity="0.6"/>
    <circle cx="0" cy="0" r="1.5" fill="#ff6688" fill-opacity="0.5"/>
  </g>
  <g id="pose2019" transform="translate(379.20,69.82) rotate(-107.80)">
    <line x1="0" y1="0" x2="10.00" y2="0" stroke="#ff6688" stroke-width="1.5" stroke-opacity="0.6"/>
    <circle cx="0" cy="0" r="1.5" fill="#ff6688" fill-opacity="0.5"/>
  </g>
  <g id="pose2020" transform="translate(391.93,63.66) rotate(-146.16)">
    <line x1="0" y1="0" x2="10.00" y2="0" stroke="#ff6688" stroke-width="1.5" stroke-opacity="0.6"/>
    <circle cx="0" cy="0" r="1.5" fill="#ff6688" fill-opacity="0.5"/>
  </g>
  <g id="pose2021" transform="translate(405.79,63.07) rotate(164.47)">
    <line x1="0" y1="0" x2="10.00" y2="0" stroke="#ff6688" stroke-width="1.5" stroke-opacity="0.6"/>
    <circle cx="0" cy="0" r="1.5" fill="#ff6688" fill-opacity="0.5"/>
  </g>
  <g id="pose2022" transform="translate(416.37,67.95) rotate(122.52)">
    <line x1="0" y1="0" x2="10.00" y2="0" stroke="#ff6688" stroke-width="1.5" stroke-opacity="0.6"/>
    <circle cx="0" cy="0" r="1.5" fill="#ff6688" fill-opacity="0.5"/>
  </g>
  <g id="pose2023" transform="translate(424.39,77.53) rotate(90.00)">
    <rect x="-20.83" y="-25.00" width="41.66" height="50.00" rx="3" fill="#ff6688" fill-opacity="0.25" stroke="#ff6688" stroke-width="1.2" stroke-opacity="0.7"/>
    <rect x="-16.67" y="-20.83" width="33.33" height="41.66" fill="#ff6688" fill-opacity="0.55" stroke="#ff6688" stroke-width="1.5"/>
    <polygon points="16.67,0 2.08,14.58 2.08,-14.58" fill="#ffffff" fill-opacity="0.9"/>
    <circle cx="0" cy="0" r="3" fill="#ffffff" fill-opacity="0.9"/>
  </g>
  <g id="pose2024" transform="translate(429.86,94.15) rotate(72.51)">
    <line x1="0" y1="0" x2="10.00" y2="0" stroke="#ff6688" stroke-width="1.5" stroke-opacity="0.6"/>
    <circle cx="0" cy="0" r="1.5" fill="#ff6688" fill-opacity="0.5"/>
  </g>
  <g id="pose2025" transform="translate(431.35,120.08) rotate(71.78)">
    <line x1="0" y1="0" x2="10.00" y2="0" stroke="#ff6688" stroke-width="1.5" stroke-opacity="0.6"/>
    <circle cx="0" cy="0" r="1.5" fill="#ff6688" fill-opacity="0.5"/>
  </g>
  <g id="pose2026" transform="translate(429.37,150.01) rotate(78.90)">
    <line x1="0" y1="0" x2="10.00" y2="0" stroke="#ff6688" stroke-width="1.5" stroke-opacity="0.6"/>
    <circle cx="0" cy="0" r="1.5" fill="#ff6688" fill-opacity="0.5"/>
  </g>
  <g id="pose2027" transform="translate(426.46,186.91) rotate(87.86)">
    <line x1="0" y1="0" x2="10.00" y2="0" stroke="#ff6688" stroke-width="1.5" stroke-opacity="0.6"/>
    <circle cx="0" cy="0" r="1.5" fill="#ff6688" fill-opacity="0.5"/>
  </g>
  <g id="pose2028" transform="translate(427.83,231.12) rotate(96.19)">
    <line x1="0" y1="0" x2="10.00" y2="0" stroke="#ff6688" stroke-width="1.5" stroke-opacity="0.6"/>
    <circle cx="0" cy="0" r="1.5" fill="#ff6688" fill-opacity="0.5"/>
  </g>
  <g id="pose2029" transform="translate(434.19,273.43) rotate(103.58)">
    <line x1="0" y1="0" x2="10.00" y2="0" stroke="#ff6688" stroke-width="1.5" stroke-opacity="0.6"/>
    <circle cx="0" cy="0" r="1.5" fill="#ff6688" fill-opacity="0.5"/>
  </g>
  <g id="pose2030" transform="translate(438.58,311.99) rotate(109.56)">
    <line x1="0" y1="0" x2="10.00" y2="0" stroke="#ff6688" stroke-width="1.5" stroke-opacity="0.6"/>
    <circle cx="0" cy="0" r="1.5" fill="#ff6688" fill-opacity="0.5"/>
  </g>
  <g id="pose2031" transform="translate(438.25,338.71) rotate(108.42)">
    <line x1="0" y1="0" x2="10.00" y2="0" stroke="#ff6688" stroke-width="1.5" stroke-opacity="0.6"/>
    <circle cx="0" cy="0" r="1.5" fill="#ff6688" fill-opacity="0.5"/>
  </g>
  <g id="pose2032" transform="translate(433.58,358.53) rotate(93.40)">
    <line x1="0" y1="0" x2="10.00" y2="0" stroke="#ff6688" stroke-width="1.5" stroke-opacity="0.6"/>
    <circle cx="0" cy="0" r="1.5" fill="#ff6688" fill-opacity="0.5"/>
  </g>
  <g id="pose2033" transform="translate(425.59,370.53) rotate(61.19)">
    <line x1="0" y1="0" x2="10.00" y2="0" stroke="#ff6688" stroke-width="1.5" stroke-opacity="0.6"/>
    <circle cx="0" cy="0" r="1.5" fill="#ff6688" fill-opacity="0.5"/>
  </g>
  <g id="pose2034" transform="translate(415.11,376.41) rotate(18.98)">
    <line x1="0" y1="0" x2="10.00" y2="0" stroke="#ff6688" stroke-width="1.5" stroke-opacity="0.6"/>
    <circle cx="0" cy="0" r="1.5" fill="#ff6688" fill-opacity="0.5"/>
  </g>
  <g id="pose2035" transform="translate(401.95,375.48) rotate(-31.41)">
    <line x1="0" y1="0" x2="10.00" y2="0" stroke="#ff6688" stroke-width="1.5" stroke-opacity="0.6"/>
    <circle cx="0" cy="0" r="1.5" fill="#ff6688" fill-opacity="0.5"/>
  </g>
  <g id="pose2036" transform="translate(390.77,367.84) rotate(-71.16)">
    <line x1="0" y1="0" x2="10.00" y2="0" stroke="#ff6688" stroke-width="1.5" stroke-opacity="0.6"/>
    <circle cx="0" cy="0" r="1.5" fill="#ff6688" fill-opacity="0.5"/>
  </g>
  <g id="pose2037" transform="translate(381.34,353.54) rotate(-98.55)">
    <line x1="0" y1="0" x2="10.00" y2="0" stroke="#ff6688" stroke-width="1.5" stroke-opacity="0.6"/>
    <circle cx="0" cy="0" r="1.5" fill="#ff6688" fill-opacity="0.5"/>
  </g>
  <g id="pose2038" transform="translate(374.61,331.76) rotate(-108.68)">
    <line x1="0" y1="0" x2="10.00" y2="0" stroke="#ff6688" stroke-width="1.5" stroke-opacity="0.6"/>
    <circle cx="0" cy="0" r="1.5" fill="#ff6688" fill-opacity="0.5"/>
  </g>
  <g id="pose2039" transform="translate(371.04,299.04) rotate(-107.23)">
    <line x1="0" y1="0" x2="10.00" y2="0" stroke="#ff6688" stroke-width="1.5" stroke-opacity="0.6"/>
    <circle cx="0" cy="0" r="1.5" fill="#ff6688" fill-opacity="0.5"/>
  </g>
  <g id="pose2040" transform="translate(371.45,262.68) rotate(-101.22)">
    <line x1="0" y1="0" x2="10.00" y2="0" stroke="#ff6688" stroke-width="1.5" stroke-opacity="0.6"/>
    <circle cx="0" cy="0" r="1.5" fill="#ff6688" fill-opacity="0.5"/>
  </g>
  <g id="pose2041" transform="translate(375.33,219.53) rotate(-93.96)">
    <line x1="0" y1="0" x2="10.00" y2="0" stroke="#ff6688" stroke-width="1.5" stroke-opacity="0.6"/>
    <circle cx="0" cy="0" r="1.5" fill="#ff6688" fill-opacity="0.5"/>
  </g>
  <g id="pose2042" transform="translate(380.34,177.23) rotate(-85.64)">
    <line x1="0" y1="0" x2="10.00" y2="0" stroke="#ff6688" stroke-width="1.5" stroke-opacity="0.6"/>
    <circle cx="0" cy="0" r="1.5" fill="#ff6688" fill-opacity="0.5"/>
  </g>
  <g id="pose2043" transform="translate(382.44,142.27) rotate(-76.59)">
    <line x1="0" y1="0" x2="10.00" y2="0" stroke="#ff6688" stroke-width="1.5" stroke-opacity="0.6"/>
    <circle cx="0" cy="0" r="1.5" fill="#ff6688" fill-opacity="0.5"/>
  </g>
  <g id="pose2044" transform="translate(381.34,110.61) rotate(-70.12)">
    <line x1="0" y1="0" x2="10.00" y2="0" stroke="#ff6688" stroke-width="1.5" stroke-opacity="0.6"/>
    <circle cx="0" cy="0" r="1.5" fill="#ff6688" fill-opacity="0.5"/>
  </g>
  <g id="pose2045" transform="translate(377.26,89.30) rotate(-74.56)">
    <line x1="0" y1="0" x2="10.00" y2="0" stroke="#ff6688" stroke-width="1.5" stroke-opacity="0.6"/>
    <circle cx="0" cy="0" r="1.5" fill="#ff6688" fill-opacity="0.5"/>
  </g>
  <g id="pose2046" transform="translate(370.47,74.70) rotate(-97.54)">
    <line x1="0" y1="0" x2="10.00" y2="0" stroke="#ff6688" stroke-width="1.5" stroke-opacity="0.6"/>
    <circle cx="0" cy="0" r="1.5" fill="#ff6688" fill-opacity="0.5"/>
  </g>
  <g id="pose2047" transform="translate(362.05,66.76) rotate(-137.73)">
    <line x1="0" y1="0" x2="10.00" y2="0" stroke="#ff6688" stroke-width="1.5" stroke-opacity="0.6"/>
    <circle cx="0" cy="0" r="1.5" fill="#ff6688" fill-opacity="0.5"/>
  </g>
  <g id="pose2048" transform="translate(351.58,64.63) rotate(167.60)">
    <line x1="0" y1="0" x2="10.00" y2="0" stroke="#ff6688" stroke-width="1.5" stroke-opacity="0.6"/>
    <circle cx="0" cy="0" r="1.5" fill="#ff6688" fill-opacity="0.5"/>
  </g>
  <g id="pose2049" transform="translate(342.88,68.81) rotate(121.06)">
    <line x1="0" y1="0" x2="10.00" y2="0" stroke="#ff6688" stroke-width="1.5" stroke-opacity="0.6"/>
    <circle cx="0" cy="0" r="1.5" fill="#ff6688" fill-opacity="0.5"/>
  </g>
  <g id="pose2050" transform="translate(335.97,78.61) rotate(86.36)">
    <line x1="0" y1="0" x2="10.00" y2="0" stroke="#ff6688" stroke-width="1.5" stroke-opacity="0.6"/>
    <circle cx="0" cy="0" r="1.5" fill="#ff6688" fill-opacity="0.5"/>
  </g>
  <g id="pose2051" transform="translate(331.55,95.57) rotate(71.07)">
    <line x1="0" y1="0" x2="10.00" y2="0" stroke="#ff6688" stroke-width="1.5" stroke-opacity="0.6"/>
    <circle cx="0" cy="0" r="1.5" fill="#ff6688" fill-opacity="0.5"/>
  </g>
  <g id="pose2052" transform="translate(330.53,118.96) rotate(71.87)">
    <line x1="0" y1="0" x2="10.00" y2="0" stroke="#ff6688" stroke-width="1.5" stroke-opacity="0.6"/>
    <circle cx="0" cy="0" r="1.5" fill="#ff6688" fill-opacity="0.5"/>
  </g>
  <g id="pose2053" transform="translate(333.09,153.11) rotate(80.87)">
    <line x1="0" y1="0" x2="10.00" y2="0" stroke="#ff6688" stroke-width="1.5" stroke-opacity="0.6"/>
    <circle cx="0" cy="0" r="1.5" fill="#ff6688" fill-opacity="0.5"/>
  </g>
  <g id="pose2054" transform="translate(337.89,190.74) rotate(89.20)">
    <line x1="0" y1="0" x2="10.00" y2="0" stroke="#ff6688" stroke-width="1.5" stroke-opacity="0.6"/>
    <circle cx="0" cy="0" r="1.5" fill="#ff6688" fill-opacity="0.5"/>
  </g>
  <g id="pose2055" transform="translate(341.91,246.68) rotate(93.64)">
    <line x1="0" y1="0" x2="10.00" y2="0" stroke="#ff6688" stroke-width="1.5" stroke-opacity="0.6"/>
    <circle cx="0" cy="0" r="1.5" fill="#ff6688" fill-opacity="0.5"/>
  </g>
  <g id="pose2056" transform="translate(342.84,294.42) rotate(93.91)">
    <line x1="0" y1="0" x2="10.00" y2="0" stroke="#ff6688" stroke-width="1.5" stroke-opacity="0.6"/>
    <circle cx="0" cy="0" r="1.5" fill="#ff6688" fill-opacity="0.5"/>
  </g>
  <g id="pose2057" transform="translate(343.19,332.40) rotate(92.55)">
    <line x1="0" y1="0" x2="10.00" y2="0" stroke="#ff6688" stroke-width="1.5" stroke-opacity="0.6"/>
    <circle cx="0" cy="0" r="1.5" fill="#ff6688" fill-opacity="0.5"/>
  </g>
  <g id="pose2058" transform="translate(343.27,352.16) rotate(90.93)">
    <line x1="0" y1="0" x2="10.00" y2="0" stroke="#ff6688" stroke-width="1.5" stroke-opacity="0.6"/>
    <circle cx="0" cy="0" r="1.5" fill="#ff6688" fill-opacity="0.5"/>
  </g>
  <g id="pose2059" transform="translate(343.28,358.75) rotate(90.00)">
    <rect x="-20.83" y="-25.00" width="41.66" height="50.00" rx="3" fill="#ff6688" fill-opacity="0.25" stroke="#ff6688" stroke-width="1.2" stroke-opacity="0.7"/>
    <rect x="-16.67" y="-20.83" width="33.33" height="41.66" fill="#ff6688" fill-opacity="0.55" stroke="#ff6688" stroke-width="1.5"/>
    <polygon points="16.67,0 2.08,14.58 2.08,-14.58" fill="#ffffff" fill-opacity="0.9"/>
    <circle cx="0" cy="0" r="3" fill="#ffffff" fill-opacity="0.9"/>
  </g>
  <rect x="312.1" y="123.3" width="85.0" height="11" rx="3" fill="#000000" fill-opacity="0.65"/>
  <text x="316.1" y="132.3" font-size="9" fill="#ff6688" font-family="monospace" font-weight="bold">S4: PassingPath1_A</text>
</svg>