<svg xmlns="http://www.w3.org/2000/svg" width="900" height="442" viewBox="0 0 900 442">
  <rect x="0" y="0" width="900" height="442" fill="#1a1a1a"/>
  <rect x="0" y="0" width="218.7" height="442" fill="#0d1a3a" fill-opacity="0.7"/>
  <text x="109.4" y="14" text-anchor="middle" font-size="10" fill="#4466cc" font-family="sans-serif">BLUE</text>
  <rect x="262.5" y="0" width="386.0" height="442" fill="#111111" fill-opacity="0.7"/>
  <text x="455.5" y="14" text-anchor="middle" font-size="10" fill="#888" font-family="sans-serif">NEUTRAL</text>
  <rect x="686.2" y="0" width="213.8" height="442" fill="#3a0d0d" fill-opacity="0.7"/>
  <text x="793.1" y="14" text-anchor="middle" font-size="10" fill="#cc4444" font-family="sans-serif">RED</text>
  <rect x="0" y="0" width="900" height="442" fill="none" stroke="#888" stroke-width="2"/>
  <line x1="0.0" y1="442" x2="0.0" y2="437" stroke="#555" stroke-width="1"/>
  <text x="0.0" y="435" text-anchor="middle" font-size="7" fill="#666" font-family="monospace">0m</text>
  <line x1="109.4" y1="442" x2="109.4" y2="437" stroke="#555" stroke-width="1"/>
  <text x="109.4" y="435" text-anchor="middle" font-size="7" fill="#666" font-family="monospace">2m</text>
  <line x1="218.7" y1="442" x2="218.7" y2="437" stroke="#555" stroke-width="1"/>
  <text x="218.7" y="435" text-anchor="middle" font-size="7" fill="#666" font-family="monospace">4m</text>
  <line x1="328.1" y1="442" x2="328.1" y2="437" stroke="#555" stroke-width="1"/>
  <text x="328.1" y="435" text-anchor="middle" font-size="7" fill="#666" font-family="monospace">6m</text>
  <line x1="437.4" y1="442" x2="437.4" y2="437" stroke="#555" stroke-width="1"/>
  <text x="437.4" y="435" text-anchor="middle" font-size="7" fill="#666" font-family="monospace">8m</text>
  <line x1="546.8" y1="442" x2="546.8" y2="437" stroke="#555" stroke-width="1"/>
  <text x="546.8" y="435" text-anchor="middle" font-size="7" fill="#666" font-family="monospace">10m</text>
  <line x1="656.1" y1="442" x2="656.1" y2="437" stroke="#555" stroke-width="1"/>
  <text x="656.1" y="435" text-anchor="middle" font-size="7" fill="#666" font-family="monospace">12m</text>
  <line x1="765.5" y1="442" x2="765.5" y2="437" stroke="#555" stroke-width="1"/>
  <text x="765.5" y="435" text-anchor="middle" font-size="7" fill="#666" font-family="monospace">14m</text>
  <line x1="874.8" y1="442" x2="874.8" y2="437" stroke="#555" stroke-width="1"/>
  <text x="874.8" y="435" text-anchor="middle" font-size="7" fill="#666" font-family="monospace">16m</text>
  <line x1="0" y1="442.9" x2="5" y2="442.9" stroke="#555" stroke-width="1"/>
  <text x="7" y="442.9" dominant-baseline="middle" font-size="7" fill="#666" font-family="monospace">0m</text>
  <line x1="0" y1="333.5" x2="5" y2="333.5" stroke="#555" stroke-width="1"/>
  <text x="7" y="333.5" dominant-baseline="middle" font-size="7" fill="#666" font-family="monospace">2m</text>
  <line x1="0" y1="224.2" x2="5" y2="224.2" stroke="#555" stroke-width="1"/>
  <text x="7" y="224.2" dominant-baseline="middle" font-size="7" fill="#666" font-family="monospace">4m</text>
  <line x1="0" y1="114.8" x2="5" y2="114.8" stroke="#555" stroke-width="1"/>
  <text x="7" y="114.8" dominant-baseline="middle" font-size="7" fill="#666" font-family="monospace">6m</text>
  <line x1="0" y1="5.5" x2="5" y2="5.5" stroke="#555" stroke-width="1"/>
  <text x="7" y="5.5" dominant-baseline="middle" font-size="7" fill="#666" font-family="monospace">8m</text>
  <rect x="220.8" y="254.3" width="61.1" height="100.6" fill="none" stroke="#4d7dff" stroke-width="1.6" stroke-dasharray="4 3" stroke-opacity="0.85"/>
  <text x="224.8" y="263.3" text-anchor="start" font-size="8" fill="#9bb6ff" font-family="monospace">BumpDepotElement</text>
  <rect x="220.8" y="88.0" width="61.1" height="100.6" fill="none" stroke="#4d7dff" stroke-width="1.6" stroke-dasharray="4 3" stroke-opacity="0.85"/>
  <text x="224.8" y="97.0" text-anchor="start" font-size="8" fill="#9bb6ff" font-family="monospace">BumpOutpostElement</text>
  <rect x="218.7" y="189.0" width="65.3" height="65.3" fill="none" stroke="#4d7dff" stroke-width="1.6" stroke-dasharray="4 3" stroke-opacity="0.85"/>
  <text x="222.7" y="198.0" text-anchor="start" font-size="8" fill="#9bb6ff" font-family="monospace">HubElement</text>
  <rect x="218.7" y="354.9" width="65.3" height="17.0" fill="none" stroke="#4d7dff" stroke-width="1.6" stroke-dasharray="4 3" stroke-opacity="0.85"/>
  <text x="222.7" y="363.9" text-anchor="start" font-size="8" fill="#9bb6ff" font-family="monospace">TrenchADepotElement</text>
  <rect x="218.7" y="71.1" width="65.3" height="17.0" fill="none" stroke="#4d7dff" stroke-width="1.6" stroke-dasharray="4 3" stroke-opacity="0.85"/>
  <text x="222.7" y="80.1" text-anchor="start" font-size="8" fill="#9bb6ff" font-family="monospace">TrenchAOutpostElement</text>
  <polyline points="254.20,138.40 254.09,138.41 253.79,138.41 253.27,138.42 252.55,138.44 251.62,138.46 250.49,138.48 249.15,138.51 247.61,138.54 245.86,138.58 243.91,138.62 241.75,138.67 239.38,138.72 236.81,138.77 234.03,138.83 231.04,138.90 227.85,138.97 224.46,139.04 220.86,139.11 217.05,139.20 213.04,139.28 208.82,139.37 204.40,139.46 199.77,139.56 195.04,139.66 190.41,139.76 185.99,139.86 181.77,139.95 177.76,140.03 173.95,140.11 170.35,140.19 166.95,140.26 163.77,140.33 160.78,140.39 158.00,140.45 155.43,140.51 153.06,140.56 150.90,140.60 148.95,140.64 147.20,140.68 145.65,140.71 144.32,140.74 143.18,140.77 142.26,140.79 141.54,140.80 141.02,140.81 140.71,140.82 140.61,140.82" fill="none" stroke="#ff6688" stroke-width="2" stroke-opacity="0.85" stroke-linejoin="round" stroke-linecap="round"/>
  <g id="pose2000" transform="translate(254.20,138.40) rotate(45.00)">
    <rect x="-20.83" y="-25.00" width="41.66" height="50.00" rx="3" fill="#ff6688" fill-opacity="0.25" stroke="#ff6688" stroke-width="1.2" stroke-opacity="0.7"/>
    <rect x="-16.67" y="-20.83" width="33.33" height="41.66" fill="#ff6688" fill-opacity="0.55" stroke="#ff6688" stroke-width="1.5"/>
    <polygon points="16.67,0 2.08,14.58 2.08,-14.58" fill="#ffffff" fill-opacity="0.9"/>
    <circle cx="0" cy="0" r="3" fill="#ffffff" fill-opacity="0.9"/>
  </g>
  <g id="pose2001" transform="translate(254.09,138.41) rotate(45.00)">
    <rect x="-20.83" y="-25.00" width="41.66" height="50.00" rx="3" fill="#ff6688" fill-opacity="0.25" stroke="#ff6688" stroke-width="1.2" stroke-opacity="0.7"/>
    <rect x="-16.67" y="-20.83" width="33.33" height="41.66" fill="#ff6688" fill-opacity="0.55" stroke="#ff6688" stroke-width="1.5"/>
    <polygon points="16.67,0 2.08,14.58 2.08,-14.58" fill="#ffffff" fill-opacity="0.9"/>
    <circle cx="0" cy="0" r="3" fill="#ffffff" fill-opacity="0.9"/>
  </g>
  <g id="pose2002" transform="translate(253.79,138.41) rotate(45.55)">
    <line x1="0" y1="0" x2="10.00" y2="0" stroke="#ff6688" stroke-width="1.5" stroke-opacity="0.6"/>
    <circle cx="0" cy="0" r="1.5" fill="#ff6688" fill-opacity="0.5"/>
  </g>
  <g id="pose2003" transform="translate(253.27,138.42) rotate(46.60)">
    <line x1="0" y1="0" x2="10.00" y2="0" stroke="#ff6688" stroke-width="1.5" stroke-opacity="0.6"/>
    <circle cx="0" cy="0" r="1.5" fill="#ff6688" fill-opacity="0.5"/>
  </g>
  <g id="pose2004" transform="translate(252.55,138.44) rotate(48.10)">
    <line x1="0" y1="0" x2="10.00" y2="0" stroke="#ff6688" stroke-width="1.5" stroke-opacity="0.6"/>
    <circle cx="0" cy="0" r="1.5" fill="#ff6688" fill-opacity="0.5"/>
  </g>
  <g id="pose2005" transform="translate(251.62,138.46) rotate(50.01)">
    <line x1="0" y1="0" x2="10.00" y2="0" stroke="#ff6688" stroke-width="1.5" stroke-opacity="0.6"/>
    <circle cx="0" cy="0" r="1.5" fill="#ff6688" fill-opacity="0.5"/>
  </g>
  <g id="pose2006" transform="translate(250.49,138.48) rotate(52.28)">
    <line x1="0" y1="0" x2="10.00" y2="0" stroke="#ff6688" stroke-width="1.5" stroke-opacity="0.6"/>
    <circle cx="0" cy="0" r="1.5" fill="#ff6688" fill-opacity="0.5"/>
  </g>
  <g id="pose2007" transform="translate(249.15,138.51) rotate(54.89)">
    <line x1="0" y1="0" x2="10.00" y2="0" stroke="#ff6688" stroke-width="1.5" stroke-opacity="0.6"/>
    <circle cx="0" cy="0" r="1.5" fill="#ff6688" fill-opacity="0.5"/>
  </g>
  <g id="pose2008" transform="translate(247.61,138.54) rotate(57.79)">
    <line x1="0" y1="0" x2="10.00" y2="0" stroke="#ff6688" stroke-width="1.5" stroke-opacity="0.6"/>
    <circle cx="0" cy="0" r="1.5" fill="#ff6688" fill-opacity="0.5"/>
  </g>
  <g id="pose2009" transform="translate(245.86,138.58) rotate(60.95)">
    <line x1="0" y1="0" x2="10.00" y2="0" stroke="#ff6688" stroke-width="1.5" stroke-opacity="0.6"/>
    <circle cx="0" cy="0" r="1.5" fill="#ff6688" fill-opacity="0.5"/>
  </g>
  <g id="pose2010" transform="translate(243.91,138.62) rotate(64.35)">
    <line x1="0" y1="0" x2="10.00" y2="0" stroke="#ff6688" stroke-width="1.5" stroke-opacity="0.6"/>
    <circle cx="0" cy="0" r="1.5" fill="#ff6688" fill-opacity="0.5"/>
  </g>
  <g id="pose2011" transform="translate(241.75,138.67) rotate(67.96)">
    <line x1="0" y1="0" x2="10.00" y2="0" stroke="#ff6688" stroke-width="1.5" stroke-opacity="0.6"/>
    <circle cx="0" cy="0" r="1.5" fill="#ff6688" fill-opacity="0.5"/>
  </g>
  <g id="pose2012" transform="translate(239.38,138.72) rotate(71.74)">
    <line x1="0" y1="0" x2="10.00" y2="0" stroke="#ff6688" stroke-width="1.5" stroke-opacity="0.6"/>
    <circle cx="0" cy="0" r="1.5" fill="#ff6688" fill-opacity="0.5"/>
  </g>
  <g id="pose2013" transform="translate(236.81,138.77) rotate(75.69)">
    <line x1="0" y1="0" x2="10.00" y2="0" stroke="#ff6688" stroke-width="1.5" stroke-opacity="0.6"/>
    <circle cx="0" cy="0" r="1.5" fill="#ff6688" fill-opacity="0.5"/>
  </g>
  <g id="pose2014" transform="translate(234.03,138.83) rotate(79.77)">
    <line x1="0" y1="0" x2="10.00" y2="0" stroke="#ff6688" stroke-width="1.5" stroke-opacity="0.6"/>
    <circle cx="0" cy="0" r="1.5" fill="#ff6688" fill-opacity="0.5"/>
  </g>
  <g id="pose2015" transform="translate(231.04,138.90) rotate(83.97)">
    <line x1="0" y1="0" x2="10.00" y2="0" stroke="#ff6688" stroke-width="1.5" stroke-opacity="0.6"/>
    <circle cx="0" cy="0" r="1.5" fill="#ff6688" fill-opacity="0.5"/>
  </g>
  <g id="pose2016" transform="translate(227.85,138.97) rotate(88.26)">
    <line x1="0" y1="0" x2="10.00" y2="0" stroke="#ff6688" stroke-width="1.5" stroke-opacity="0.6"/>
    <circle cx="0" cy="0" r="1.5" fill="#ff6688" fill-opacity="0.5"/>
  </g>
  <g id="pose2017" transform="translate(224.46,139.04) rotate(92.64)">
    <line x1="0" y1="0" x2="10.00" y2="0" stroke="#ff6688" stroke-width="1.5" stroke-opacity="0.6"/>
    <circle cx="0" cy="0" r="1.5" fill="#ff6688" fill-opacity="0.5"/>
  </g>
  <g id="pose2018" transform="translate(220.86,139.11) rotate(97.08)">
    <line x1="0" y1="0" x2="10.00" y2="0" stroke="#ff6688" stroke-width="1.5" stroke-opacity="0.6"/>
    <circle cx="0" cy="0" r="1.5" fill="#ff6688" fill-opacity="0.5"/>
  </g>
  <g id="pose2019" transform="translate(217.05,139.20) rotate(101.58)">
    <line x1="0" y1="0" x2="10.00" y2="0" stroke="#ff6688" stroke-width="1.5" stroke-opacity="0.6"/>
    <circle cx="0" cy="0" r="1.5" fill="#ff6688" fill-opacity="0.5"/>
  </g>
  <g id="pose2020" transform="translate(213.04,139.28) rotate(106.11)">
    <line x1="0" y1="0" x2="10.00" y2="0" stroke="#ff6688" stroke-width="1.5" stroke-opacity="0.6"/>
    <circle cx="0" cy="0" r="1.5" fill="#ff6688" fill-opacity="0.5"/>
  </g>
  <g id="pose2021" transform="translate(208.82,139.37) rotate(110.68)">
    <line x1="0" y1="0" x2="10.00" y2="0" stroke="#ff6688" stroke-width="1.5" stroke-opacity="0.6"/>
    <circle cx="0" cy="0" r="1.5" fill="#ff6688" fill-opacity="0.5"/>
  </g>
  <g id="pose2022" transform="translate(204.40,139.46) rotate(115.26)">
    <line x1="0" y1="0" x2="10.00" y2="0" stroke="#ff6688" stroke-width="1.5" stroke-opacity="0.6"/>
    <circle cx="0" cy="0" r="1.5" fill="#ff6688" fill-opacity="0.5"/>
  </g>
  <g id="pose2023" transform="translate(199.77,139.56) rotate(119.86)">
    <line x1="0" y1="0" x2="10.00" y2="0" stroke="#ff6688" stroke-width="1.5" stroke-opacity="0.6"/>
    <circle cx="0" cy="0" r="1.5" fill="#ff6688" fill-opacity="0.5"/>
  </g>
  <g id="pose2024" transform="translate(195.04,139.66) rotate(124.46)">
    <line x1="0" y1="0" x2="10.00" y2="0" stroke="#ff6688" stroke-width="1.5" stroke-opacity="0.6"/>
    <circle cx="0" cy="0" r="1.5" fill="#ff6688" fill-opacity="0.5"/>
  </g>
  <g id="pose2025" transform="translate(190.41,139.76) rotate(129.06)">
    <line x1="0" y1="0" x2="10.00" y2="0" stroke="#ff6688" stroke-width="1.5" stroke-opacity="0.6"/>
    <circle cx="0" cy="0" r="1.5" fill="#ff6688" fill-opacity="0.5"/>
  </g>
  <g id="pose2026" transform="translate(185.99,139.86) rotate(133.65)">
    <line x1="0" y1="0" x2="10.00" y2="0" stroke="#ff6688" stroke-width="1.5" stroke-opacity="0.6"/>
    <circle cx="0" cy="0" r="1.5" fill="#ff6688" fill-opacity="0.5"/>
  </g>
  <g id="pose2027" transform="translate(181.77,139.95) rotate(138.23)">
    <line x1="0" y1="0" x2="10.00" y2="0" stroke="#ff6688" stroke-width="1.5" stroke-opacity="0.6"/>
    <circle cx="0" cy="0" r="1.5" fill="#ff6688" fill-opacity="0.5"/>
  </g>
  <g id="pose2028" transform="translate(177.76,140.03) rotate(142.79)">
    <line x1="0" y1="0" x2="10.00" y2="0" stroke="#ff6688" stroke-width="1.5" stroke-opacity="0.6"/>
    <circle cx="0" cy="0" r="1.5" fill="#ff6688" fill-opacity="0.5"/>
  </g>
  <g id="pose2029" transform="translate(173.95,140.11) rotate(147.31)">
    <line x1="0" y1="0" x2="10.00" y2="0" stroke="#ff6688" stroke-width="1.5" stroke-opacity="0.6"/>
    <circle cx="0" cy="0" r="1.5" fill="#ff6688" fill-opacity="0.5"/>
  </g>
  <g id="pose2030" transform="translate(170.35,140.19) rotate(151.79)">
    <line x1="0" y1="0" x2="10.00" y2="0" stroke="#ff6688" stroke-width="1.5" stroke-opacity="0.6"/>
    <circle cx="0" cy="0" r="1.5" fill="#ff6688" fill-opacity="0.5"/>
  </g>
  <g id="pose2031" transform="translate(166.95,140.26) rotate(156.22)">
    <line x1="0" y1="0" x2="10.00" y2="0" stroke="#ff6688" stroke-width="1.5" stroke-opacity="0.6"/>
    <circle cx="0" cy="0" r="1.5" fill="#ff6688" fill-opacity="0.5"/>
  </g>
  <g id="pose2032" transform="translate(163.77,140.33) rotate(160.57)">
    <line x1="0" y1="0" x2="10.00" y2="0" stroke="#ff6688" stroke-width="1.5" stroke-opacity="0.6"/>
    <circle cx="0" cy="0" r="1.5" fill="#ff6688" fill-opacity="0.5"/>
  </g>
  <g id="pose2033" transform="translate(160.78,140.39) rotate(164.85)">
    <line x1="0" y1="0" x2="10.00" y2="0" stroke="#ff6688" stroke-width="1.5" stroke-opacity="0.6"/>
    <circle cx="0" cy="0" r="1.5" fill="#ff6688" fill-opacity="0.5"/>
  </g>
  <g id="pose2034" transform="translate(158.00,140.45) rotate(169.03)">
    <line x1="0" y1="0" x2="10.00" y2="0" stroke="#ff6688" stroke-width="1.5" stroke-opacity="0.6"/>
    <circle cx="0" cy="0" r="1.5" fill="#ff6688" fill-opacity="0.5"/>
  </g>
  <g id="pose2035" transform="translate(155.43,140.51) rotate(173.09)">
    <line x1="0" y1="0" x2="10.00" y2="0" stroke="#ff6688" stroke-width="1.5" stroke-opacity="0.6"/>
    <circle cx="0" cy="0" r="1.5" fill="#ff6688" fill-opacity="0.5"/>
  </g>
  <g id="pose2036" transform="translate(153.06,140.56) rotate(177.02)">
    <line x1="0" y1="0" x2="10.00" y2="0" stroke="#ff6688" stroke-width="1.5" stroke-opacity="0.6"/>
    <circle cx="0" cy="0" r="1.5" fill="#ff6688" fill-opacity="0.5"/>
  </g>
  <g id="pose2037" transform="translate(150.90,140.60) rotate(-179.21)">
    <line x1="0" y1="0" x2="10.00" y2="0" stroke="#ff6688" stroke-width="1.5" stroke-opacity="0.6"/>
    <circle cx="0" cy="0" r="1.5" fill="#ff6688" fill-opacity="0.5"/>
  </g>
  <g id="pose2038" transform="translate(148.95,140.64) rotate(-175.62)">
    <line x1="0" y1="0" x2="10.00" y2="0" stroke="#ff6688" stroke-width="1.5" stroke-opacity="0.6"/>
    <circle cx="0" cy="0" r="1.5" fill="#ff6688" fill-opacity="0.5"/>
  </g>
  <g id="pose2039" transform="translate(147.20,140.68) rotate(-172.23)">
    <line x1="0" y1="0" x2="10.00" y2="0" stroke="#ff6688" stroke-width="1.5" stroke-opacity="0.6"/>
    <circle cx="0" cy="0" r="1.5" fill="#ff6688" fill-opacity="0.5"/>
  </g>
  <g id="pose2040" transform="translate(145.65,140.71) rotate(-169.09)">
    <line x1="0" y1="0" x2="10.00" y2="0" stroke="#ff6688" stroke-width="1.5" stroke-opacity="0.6"/>
    <circle cx="0" cy="0" r="1.5" fill="#ff6688" fill-opacity="0.5"/>
  </g>
  <g id="pose2041" transform="translate(144.32,140.74) rotate(-166.20)">
    <line x1="0" y1="0" x2="10.00" y2="0" stroke="#ff6688" stroke-width="1.5" stroke-opacity="0.6"/>
    <circle cx="0" cy="0" r="1.5" fill="#ff6688" fill-opacity="0.5"/>
  </g>
  <g id="pose2042" transform="translate(143.18,140.77) rotate(-163.61)">
    <line x1="0" y1="0" x2="10.00" y2="0" stroke="#ff6688" stroke-width="1.5" stroke-opacity="0.6"/>
    <circle cx="0" cy="0" r="1.5" fill="#ff6688" fill-opacity="0.5"/>
  </g>
  <g id="pose2043" transform="translate(142.26,140.79) rotate(-161.34)">
    <line x1="0" y1="0" x2="10.00" y2="0" stroke="#ff6688" stroke-width="1.5" stroke-opacity="0.6"/>
    <circle cx="0" cy="0" r="1.5" fill="#ff6688" fill-opacity="0.5"/>
  </g>
  <g id="pose2044" transform="translate(141.54,140.80) rotate(-159.45)">
    <line x1="0" y1="0" x2="10.00" y2="0" stroke="#ff6688" stroke-width="1.5" stroke-opacity="0.6"/>
    <circle cx="0" cy="0" r="1.5" fill="#ff6688" fill-opacity="0.5"/>
  </g>
  <g id="pose2045" transform="translate(141.02,140.81) rotate(-157.97)">
    <line x1="0" y1="0" x2="10.00" y2="0" stroke="#ff6688" stroke-width="1.5" stroke-opacity="0.6"/>
    <circle cx="0" cy="0" r="1.5" fill="#ff6688" fill-opacity="0.5"/>
  </g>
  <g id="pose2046" transform="translate(140.71,140.82) rotate(-156.94)">
    <line x1="0" y1="0" x2="10.00" y2="0" stroke="#ff6688" stroke-width="1.5" stroke-opacity="0.6"/>
    <circle cx="0" cy="0" r="1.5" fill="#ff6688" fill-opacity="0.5"/>
  </g>
  <g id="pose2047" transform="translate(140.61,140.82) rotate(-156.41)">
    <line x1="0" y1="0" x2="10.00" y2="0" stroke="#ff6688" stroke-width="1.5" stroke-opacity="0.6"/>
    <circle cx="0" cy="0" r="1.5" fill="#ff6688" fill-opacity="0.5"/>
  </g>
  <rect x="256.2" y="121.4" width="112.5" height="11" rx="3" fill="#000000" fill-opacity="0.65"/>
  <text x="260.2" y="130.4" font-size="9" fill="#ff6688" font-family="monospace" font-weight="bold">S3: BlueRightBumpNZNZ_C</text>
</svg>