<svg xmlns="http://www.w3.org/2000/svg" width="900" height="442" viewBox="0 0 900 442">
  <rect x="0" y="0" width="900" height="442" fill="#1a1a1a"/>
  <rect x="0" y="0" width="218.7" height="442" fill="#0d1a3a" fill-opacity="0.7"/>
  <text x="109.4" y="14" text-anchor="middle" font-size="10" fill="#4466cc" font-family="sans-serif">BLUE</text>
  <rect x="262.5" y="0" width="386.0" height="442" fill="#111111" fill-opacity="0.7"/>
  <text x="455.5" y="14" text-anchor="middle" font-size="10" fill="#888" font-family="sans-serif">NEUTRAL</text>
  <rect x="686.2" y="0" width="213.8" height="442" fill="#3a0d0d" fill-opacity="0.7"/>
  <text x="793.1" y="14" text-anchor="middle" font-size="10" fill="#cc4444" font-family="sans-serif">RED</text>
  <rect x="0" y="0" width="900" height="442" fill="none" stroke="#888" stroke-width="2"/>
  <line x1="0.0" y1="442" x2="0.0" y2="437" stroke="#555" stroke-width="1"/>
  <text x="0.0" y="435" text-anchor="middle" font-size="7" fill="#666" font-family="monospace">0m</text>
  <line x1="109.4" y1="442" x2="109.4" y2="437" stroke="#555" stroke-width="1"/>
  <text x="109.4" y="435" text-anchor="middle" font-size="7" fill="#666" font-family="monospace">2m</text>
  <line x1="218.7" y1="442" x2="218.7" y2="437" stroke="#555" stroke-width="1"/>
  <text x="218.7" y="435" text-anchor="middle" font-size="7" fill="#666" font-family="monospace">4m</text>
  <line x1="328.1" y1="442" x2="328.1" y2="437" stroke="#555" stroke-width="1"/>
  <text x="328.1" y="435" text-anchor="middle" font-size="7" fill="#666" font-family="monospace">6m</text>
  <line x1="437.4" y1="442" x2="437.4" y2="437" stroke="#555" stroke-width="1"/>
  <text x="437.4" y="435" text-anchor="middle" font-size="7" fill="#666" font-family="monospace">8m</text>
  <line x1="546.8" y1="442" x2="546.8" y2="437" stroke="#555" stroke-width="1"/>
  <text x="546.8" y="435" text-anchor="middle" font-size="7" fill="#666" font-family="monospace">10m</text>
  <line x1="656.1" y1="442" x2="656.1" y2="437" stroke="#555" stroke-width="1"/>
  <text x="656.1" y="435" text-anchor="middle" font-size="7" fill="#666" font-family="monospace">12m</text>
  <line x1="765.5" y1="442" x2="765.5" y2="437" stroke="#555" stroke-width="1"/>
  <text x="765.5" y="435" text-anchor="middle" font-size="7" fill="#666" font-family="monospace">14m</text>
  <line x1="874.8" y1="442" x2="874.8" y2="437" stroke="#555" stroke-width="1"/>
  <text x="874.8" y="435" text-anchor="middle" font-size="7" fill="#666" font-family="monospace">16m</text>
  <line x1="0" y1="442.9" x2="5" y2="442.9" stroke="#555" stroke-width="1"/>
  <text x="7" y="442.9" dominant-baseline="middle" font-size="7" fill="#666" font-family="monospace">0m</text>
  <line x1="0" y1="333.5" x2="5" y2="333.5" stroke="#555" stroke-width="1"/>
  <text x="7" y="333.5" dominant-baseline="middle" font-size="7" fill="#666" font-family="monospace">2m</text>
  <line x1="0" y1="224.2" x2="5" y2="224.2" stroke="#555" stroke-width="1"/>
  <text x="7" y="224.2" dominant-baseline="middle" font-size="7" fill="#666" font-family="monospace">4m</text>
  <line x1="0" y1="114.8" x2="5" y2="114.8" stroke="#555" stroke-width="1"/>
  <text x="7" y="114.8" dominant-baseline="middle" font-size="7" fill="#666" font-family="monospace">6m</text>
  <line x1="0" y1="5.5" x2="5" y2="5.5" stroke="#555" stroke-width="1"/>
  <text x="7" y="5.5" dominant-baseline="middle" font-size="7" fill="#666" font-family="monospace">8m</text>
  <rect x="220.8" y="254.3" width="61.1" height="100.6" fill="none" stroke="#4d7dff" stroke-width="1.6" stroke-dasharray="4 3" stroke-opacity="0.85"/>
  <text x="224.8" y="263.3" text-anchor="start" font-size="8" fill="#9bb6ff" font-family="monospace">BumpDepotElement</text>
  <rect x="220.8" y="88.0" width="61.1" height="100.6" fill="none" stroke="#4d7dff" stroke-width="1.6" stroke-dasharray="4 3" stroke-opacity="0.85"/>
  <text x="224.8" y="97.0" text-anchor="start" font-size="8" fill="#9bb6ff" font-family="monospace">BumpOutpostElement</text>
  <rect x="218.7" y="189.0" width="65.3" height="65.3" fill="none" stroke="#4d7dff" stroke-width="1.6" stroke-dasharray="4 3" stroke-opacity="0.85"/>
  <text x="222.7" y="198.0" text-anchor="start" font-size="8" fill="#9bb6ff" font-family="monospace">HubElement</text>
  <rect x="218.7" y="354.9" width="65.3" height="17.0" fill="none" stroke="#4d7dff" stroke-width="1.6" stroke-dasharray="4 3" stroke-opacity="0.85"/>
  <text x="222.7" y="363.9" text-anchor="start" font-size="8" fill="#9bb6ff" font-family="monospace">TrenchADepotElement</text>
  <rect x="218.7" y="71.1" width="65.3" height="17.0" fill="none" stroke="#4d7dff" stroke-width="1.6" stroke-dasharray="4 3" stroke-opacity="0.85"/>
  <text x="222.7" y="80.1" text-anchor="start" font-size="8" fill="#9bb6ff" font-family="monospace">TrenchAOutpostElement</text>
  <polyline points="197.64,401.97 197.50,401.99 196.38,402.13 195.40,402.26 194.15,402.42 190.80,402.85 188.70,403.11 186.33,403.41 180.75,404.12 177.54,404.52 170.27,405.42 166.22,405.91 161.89,406.44 152.40,407.57 147.23,408.18 141.78,408.81 130.03,410.12 123.74,410.79 117.17,411.42 103.79,412.16 97.40,412.32 91.28,412.40 79.85,412.36 74.55,412.26 64.78,411.88 60.31,411.62 56.12,411.30 48.56,410.52 45.20,410.06 42.11,409.56 36.78,408.40 34.52,407.75 32.55,407.06 29.43,405.54 28.29,404.72 27.43,403.85 26.54,401.97 26.50,401.07 27.09,399.17 27.72,398.17 28.58,397.14 30.97,394.98 32.50,393.85 34.25,392.69 38.43,390.31 40.86,389.09 43.52,387.85 49.50,385.42 52.73,384.36 55.88,383.47 61.58,382.01 64.11,381.39 68.51,380.33 70.38,379.90 72.04,379.51 74.69,378.91 75.68,378.69 76.46,378.51 77.34,378.32 77.45,378.29" fill="none" stroke="#00d4ff" stroke-width="2" stroke-opacity="0.85" stroke-linejoin="round" stroke-linecap="round"/>
  <g id="pose0" transform="translate(197.64,401.97) rotate(125.71)">
    <line x1="0" y1="0" x2="10.00" y2="0" stroke="#00d4ff" stroke-width="1.5" stroke-opacity="0.6"/>
    <circle cx="0" cy="0" r="1.5" fill="#00d4ff" fill-opacity="0.5"/>
  </g>
  <g id="pose1" transform="translate(197.50,401.99) rotate(125.71)">
    <line x1="0" y1="0" x2="10.00" y2="0" stroke="#00d4ff" stroke-width="1.5" stroke-opacity="0.6"/>
    <circle cx="0" cy="0" r="1.5" fill="#00d4ff" fill-opacity="0.5"/>
  </g>
  <g id="pose2" transform="translate(196.38,402.13) rotate(126.36)">
    <line x1="0" y1="0" x2="10.00" y2="0" stroke="#00d4ff" stroke-width="1.5" stroke-opacity="0.6"/>
    <circle cx="0" cy="0" r="1.5" fill="#00d4ff" fill-opacity="0.5"/>
  </g>
  <g id="pose3" transform="translate(195.40,402.26) rotate(126.96)">
    <line x1="0" y1="0" x2="10.00" y2="0" stroke="#00d4ff" stroke-width="1.5" stroke-opacity="0.6"/>
    <circle cx="0" cy="0" r="1.5" fill="#00d4ff" fill-opacity="0.5"/>
  </g>
  <g id="pose4" transform="translate(194.15,402.42) rotate(127.72)">
    <line x1="0" y1="0" x2="10.00" y2="0" stroke="#00d4ff" stroke-width="1.5" stroke-opacity="0.6"/>
    <circle cx="0" cy="0" r="1.5" fill="#00d4ff" fill-opacity="0.5"/>
  </g>
  <g id="pose5" transform="translate(190.80,402.85) rotate(129.63)">
    <line x1="0" y1="0" x2="10.00" y2="0" stroke="#00d4ff" stroke-width="1.5" stroke-opacity="0.6"/>
    <circle cx="0" cy="0" r="1.5" fill="#00d4ff" fill-opacity="0.5"/>
  </g>
  <g id="pose6" transform="translate(188.70,403.11) rotate(130.74)">
    <line x1="0" y1="0" x2="10.00" y2="0" stroke="#00d4ff" stroke-width="1.5" stroke-opacity="0.6"/>
    <circle cx="0" cy="0" r="1.5" fill="#00d4ff" fill-opacity="0.5"/>
  </g>
  <g id="pose7" transform="translate(186.33,403.41) rotate(131.95)">
    <line x1="0" y1="0" x2="10.00" y2="0" stroke="#00d4ff" stroke-width="1.5" stroke-opacity="0.6"/>
    <circle cx="0" cy="0" r="1.5" fill="#00d4ff" fill-opacity="0.5"/>
  </g>
  <g id="pose8" transform="translate(180.75,404.12) rotate(134.56)">
    <line x1="0" y1="0" x2="10.00" y2="0" stroke="#00d4ff" stroke-width="1.5" stroke-opacity="0.6"/>
    <circle cx="0" cy="0" r="1.5" fill="#00d4ff" fill-opacity="0.5"/>
  </g>
  <g id="pose9" transform="translate(177.54,404.52) rotate(135.95)">
    <line x1="0" y1="0" x2="10.00" y2="0" stroke="#00d4ff" stroke-width="1.5" stroke-opacity="0.6"/>
    <circle cx="0" cy="0" r="1.5" fill="#00d4ff" fill-opacity="0.5"/>
  </g>
  <g id="pose10" transform="translate(170.27,405.42) rotate(138.85)">
    <line x1="0" y1="0" x2="10.00" y2="0" stroke="#00d4ff" stroke-width="1.5" stroke-opacity="0.6"/>
    <circle cx="0" cy="0" r="1.5" fill="#00d4ff" fill-opacity="0.5"/>
  </g>
  <g id="pose11" transform="translate(166.22,405.91) rotate(140.33)">
    <line x1="0" y1="0" x2="10.00" y2="0" stroke="#00d4ff" stroke-width="1.5" stroke-opacity="0.6"/>
    <circle cx="0" cy="0" r="1.5" fill="#00d4ff" fill-opacity="0.5"/>
  </g>
  <g id="pose12" transform="translate(161.89,406.44) rotate(141.83)">
    <line x1="0" y1="0" x2="10.00" y2="0" stroke="#00d4ff" stroke-width="1.5" stroke-opacity="0.6"/>
    <circle cx="0" cy="0" r="1.5" fill="#00d4ff" fill-opacity="0.5"/>
  </g>
  <g id="pose13" transform="translate(152.40,407.57) rotate(144.86)">
    <line x1="0" y1="0" x2="10.00" y2="0" stroke="#00d4ff" stroke-width="1.5" stroke-opacity="0.6"/>
    <circle cx="0" cy="0" r="1.5" fill="#00d4ff" fill-opacity="0.5"/>
  </g>
  <g id="pose14" transform="translate(147.23,408.18) rotate(146.37)">
    <line x1="0" y1="0" x2="10.00" y2="0" stroke="#00d4ff" stroke-width="1.5" stroke-opacity="0.6"/>
    <circle cx="0" cy="0" r="1.5" fill="#00d4ff" fill-opacity="0.5"/>
  </g>
  <g id="pose15" transform="translate(141.78,408.81) rotate(147.89)">
    <line x1="0" y1="0" x2="10.00" y2="0" stroke="#00d4ff" stroke-width="1.5" stroke-opacity="0.6"/>
    <circle cx="0" cy="0" r="1.5" fill="#00d4ff" fill-opacity="0.5"/>
  </g>
  <g id="pose16" transform="translate(130.03,410.12) rotate(150.90)">
    <line x1="0" y1="0" x2="10.00" y2="0" stroke="#00d4ff" stroke-width="1.5" stroke-opacity="0.6"/>
    <circle cx="0" cy="0" r="1.5" fill="#00d4ff" fill-opacity="0.5"/>
  </g>
  <g id="pose17" transform="translate(123.74,410.79) rotate(152.39)">
    <line x1="0" y1="0" x2="10.00" y2="0" stroke="#00d4ff" stroke-width="1.5" stroke-opacity="0.6"/>
    <circle cx="0" cy="0" r="1.5" fill="#00d4ff" fill-opacity="0.5"/>
  </g>
  <g id="pose18" transform="translate(117.17,411.42) rotate(153.88)">
    <line x1="0" y1="0" x2="10.00" y2="0" stroke="#00d4ff" stroke-width="1.5" stroke-opacity="0.6"/>
    <circle cx="0" cy="0" r="1.5" fill="#00d4ff" fill-opacity="0.5"/>
  </g>
  <g id="pose19" transform="translate(103.79,412.16) rotate(156.85)">
    <line x1="0" y1="0" x2="10.00" y2="0" stroke="#00d4ff" stroke-width="1.5" stroke-opacity="0.6"/>
    <circle cx="0" cy="0" r="1.5" fill="#00d4ff" fill-opacity="0.5"/>
  </g>
  <g id="pose20" transform="translate(97.40,412.32) rotate(158.33)">
    <line x1="0" y1="0" x2="10.00" y2="0" stroke="#00d4ff" stroke-width="1.5" stroke-opacity="0.6"/>
    <circle cx="0" cy="0" r="1.5" fill="#00d4ff" fill-opacity="0.5"/>
  </g>
  <g id="pose21" transform="translate(91.28,412.40) rotate(159.81)">
    <line x1="0" y1="0" x2="10.00" y2="0" stroke="#00d4ff" stroke-width="1.5" stroke-opacity="0.6"/>
    <circle cx="0" cy="0" r="1.5" fill="#00d4ff" fill-opacity="0.5"/>
  </g>
  <g id="pose22" transform="translate(79.85,412.36) rotate(162.74)">
    <line x1="0" y1="0" x2="10.00" y2="0" stroke="#00d4ff" stroke-width="1.5" stroke-opacity="0.6"/>
    <circle cx="0" cy="0" r="1.5" fill="#00d4ff" fill-opacity="0.5"/>
  </g>
  <g id="pose23" transform="translate(74.55,412.26) rotate(164.20)">
    <line x1="0" y1="0" x2="10.00" y2="0" stroke="#00d4ff" stroke-width="1.5" stroke-opacity="0.6"/>
    <circle cx="0" cy="0" r="1.5" fill="#00d4ff" fill-opacity="0.5"/>
  </g>
  <g id="pose24" transform="translate(64.78,411.88) rotate(167.07)">
    <line x1="0" y1="0" x2="10.00" y2="0" stroke="#00d4ff" stroke-width="1.5" stroke-opacity="0.6"/>
    <circle cx="0" cy="0" r="1.5" fill="#00d4ff" fill-opacity="0.5"/>
  </g>
  <g id="pose25" transform="translate(60.31,411.62) rotate(168.48)">
    <line x1="0" y1="0" x2="10.00" y2="0" stroke="#00d4ff" stroke-width="1.5" stroke-opacity="0.6"/>
    <circle cx="0" cy="0" r="1.5" fill="#00d4ff" fill-opacity="0.5"/>
  </g>
  <g id="pose26" transform="translate(56.12,411.30) rotate(169.87)">
    <line x1="0" y1="0" x2="10.00" y2="0" stroke="#00d4ff" stroke-width="1.5" stroke-opacity="0.6"/>
    <circle cx="0" cy="0" r="1.5" fill="#00d4ff" fill-opacity="0.5"/>
  </g>
  <g id="pose27" transform="translate(48.56,410.52) rotate(172.52)">
    <line x1="0" y1="0" x2="10.00" y2="0" stroke="#00d4ff" stroke-width="1.5" stroke-opacity="0.6"/>
    <circle cx="0" cy="0" r="1.5" fill="#00d4ff" fill-opacity="0.5"/>
  </g>
  <g id="pose28" transform="translate(45.20,410.06) rotate(173.78)">
    <line x1="0" y1="0" x2="10.00" y2="0" stroke="#00d4ff" stroke-width="1.5" stroke-opacity="0.6"/>
    <circle cx="0" cy="0" r="1.5" fill="#00d4ff" fill-opacity="0.5"/>
  </g>
  <g id="pose29" transform="translate(42.11,409.56) rotate(174.97)">
    <line x1="0" y1="0" x2="10.00" y2="0" stroke="#00d4ff" stroke-width="1.5" stroke-opacity="0.6"/>
    <circle cx="0" cy="0" r="1.5" fill="#00d4ff" fill-opacity="0.5"/>
  </g>
  <g id="pose30" transform="translate(36.78,408.40) rotate(177.12)">
    <line x1="0" y1="0" x2="10.00" y2="0" stroke="#00d4ff" stroke-width="1.5" stroke-opacity="0.6"/>
    <circle cx="0" cy="0" r="1.5" fill="#00d4ff" fill-opacity="0.5"/>
  </g>
  <g id="pose31" transform="translate(34.52,407.75) rotate(178.04)">
    <line x1="0" y1="0" x2="10.00" y2="0" stroke="#00d4ff" stroke-width="1.5" stroke-opacity="0.6"/>
    <circle cx="0" cy="0" r="1.5" fill="#00d4ff" fill-opacity="0.5"/>
  </g>
  <g id="pose32" transform="translate(32.55,407.06) rotate(178.84)">
    <line x1="0" y1="0" x2="10.00" y2="0" stroke="#00d4ff" stroke-width="1.5" stroke-opacity="0.6"/>
    <circle cx="0" cy="0" r="1.5" fill="#00d4ff" fill-opacity="0.5"/>
  </g>
  <g id="pose33" transform="translate(29.43,405.54) rotate(-179.99)">
    <line x1="0" y1="0" x2="10.00" y2="0" stroke="#00d4ff" stroke-width="1.5" stroke-opacity="0.6"/>
    <circle cx="0" cy="0" r="1.5" fill="#00d4ff" fill-opacity="0.5"/>
  </g>
  <g id="pose34" transform="translate(28.29,404.72) rotate(-179.66)">
    <line x1="0" y1="0" x2="10.00" y2="0" stroke="#00d4ff" stroke-width="1.5" stroke-opacity="0.6"/>
    <circle cx="0" cy="0" r="1.5" fill="#00d4ff" fill-opacity="0.5"/>
  </g>
  <g id="pose35" transform="translate(27.43,403.85) rotate(-179.53)">
    <line x1="0" y1="0" x2="10.00" y2="0" stroke="#00d4ff" stroke-width="1.5" stroke-opacity="0.6"/>
    <circle cx="0" cy="0" r="1.5" fill="#00d4ff" fill-opacity="0.5"/>
  </g>
  <g id="pose36" transform="translate(26.54,401.97) rotate(-180.00)">
    <line x1="0" y1="0" x2="10.00" y2="0" stroke="#00d4ff" stroke-width="1.5" stroke-opacity="0.6"/>
    <circle cx="0" cy="0" r="1.5" fill="#00d4ff" fill-opacity="0.5"/>
  </g>
  <g id="pose37" transform="translate(26.50,401.07) rotate(179.43)">
    <line x1="0" y1="0" x2="10.00" y2="0" stroke="#00d4ff" stroke-width="1.5" stroke-opacity="0.6"/>
    <circle cx="0" cy="0" r="1.5" fill="#00d4ff" fill-opacity="0.5"/>
  </g>
  <g id="pose38" transform="translate(27.09,399.17) rotate(177.73)">
    <line x1="0" y1="0" x2="10.00" y2="0" stroke="#00d4ff" stroke-width="1.5" stroke-opacity="0.6"/>
    <circle cx="0" cy="0" r="1.5" fill="#00d4ff" fill-opacity="0.5"/>
  </g>
  <g id="pose39" transform="translate(27.72,398.17) rotate(176.66)">
    <line x1="0" y1="0" x2="10.00" y2="0" stroke="#00d4ff" stroke-width="1.5" stroke-opacity="0.6"/>
    <circle cx="0" cy="0" r="1.5" fill="#00d4ff" fill-opacity="0.5"/>
  </g>
  <g id="pose40" transform="translate(28.58,397.14) rotate(175.45)">
    <line x1="0" y1="0" x2="10.00" y2="0" stroke="#00d4ff" stroke-width="1.5" stroke-opacity="0.6"/>
    <circle cx="0" cy="0" r="1.5" fill="#00d4ff" fill-opacity="0.5"/>
  </g>
  <g id="pose41" transform="translate(30.97,394.98) rotate(172.72)">
    <line x1="0" y1="0" x2="10.00" y2="0" stroke="#00d4ff" stroke-width="1.5" stroke-opacity="0.6"/>
    <circle cx="0" cy="0" r="1.5" fill="#00d4ff" fill-opacity="0.5"/>
  </g>
  <g id="pose42" transform="translate(32.50,393.85) rotate(171.22)">
    <line x1="0" y1="0" x2="10.00" y2="0" stroke="#00d4ff" stroke-width="1.5" stroke-opacity="0.6"/>
    <circle cx="0" cy="0" r="1.5" fill="#00d4ff" fill-opacity="0.5"/>
  </g>
  <g id="pose43" transform="translate(34.25,392.69) rotate(169.65)">
    <line x1="0" y1="0" x2="10.00" y2="0" stroke="#00d4ff" stroke-width="1.5" stroke-opacity="0.6"/>
    <circle cx="0" cy="0" r="1.5" fill="#00d4ff" fill-opacity="0.5"/>
  </g>
  <g id="pose44" transform="translate(38.43,390.31) rotate(166.34)">
    <line x1="0" y1="0" x2="10.00" y2="0" stroke="#00d4ff" stroke-width="1.5" stroke-opacity="0.6"/>
    <circle cx="0" cy="0" r="1.5" fill="#00d4ff" fill-opacity="0.5"/>
  </g>
  <g id="pose45" transform="translate(40.86,389.09) rotate(164.62)">
    <line x1="0" y1="0" x2="10.00" y2="0" stroke="#00d4ff" stroke-width="1.5" stroke-opacity="0.6"/>
    <circle cx="0" cy="0" r="1.5" fill="#00d4ff" fill-opacity="0.5"/>
  </g>
  <g id="pose46" transform="translate(43.52,387.85) rotate(162.88)">
    <line x1="0" y1="0" x2="10.00" y2="0" stroke="#00d4ff" stroke-width="1.5" stroke-opacity="0.6"/>
    <circle cx="0" cy="0" r="1.5" fill="#00d4ff" fill-opacity="0.5"/>
  </g>
  <g id="pose47" transform="translate(49.50,385.42) rotate(159.35)">
    <line x1="0" y1="0" x2="10.00" y2="0" stroke="#00d4ff" stroke-width="1.5" stroke-opacity="0.6"/>
    <circle cx="0" cy="0" r="1.5" fill="#00d4ff" fill-opacity="0.5"/>
  </g>
  <g id="pose48" transform="translate(52.73,384.36) rotate(157.59)">
    <line x1="0" y1="0" x2="10.00" y2="0" stroke="#00d4ff" stroke-width="1.5" stroke-opacity="0.6"/>
    <circle cx="0" cy="0" r="1.5" fill="#00d4ff" fill-opacity="0.5"/>
  </g>
  <g id="pose49" transform="translate(55.88,383.47) rotate(155.84)">
    <line x1="0" y1="0" x2="10.00" y2="0" stroke="#00d4ff" stroke-width="1.5" stroke-opacity="0.6"/>
    <circle cx="0" cy="0" r="1.5" fill="#00d4ff" fill-opacity="0.5"/>
  </g>
  <g id="pose50" transform="translate(61.58,382.01) rotate(152.41)">
    <line x1="0" y1="0" x2="10.00" y2="0" stroke="#00d4ff" stroke-width="1.5" stroke-opacity="0.6"/>
    <circle cx="0" cy="0" r="1.5" fill="#00d4ff" fill-opacity="0.5"/>
  </g>
  <g id="pose51" transform="translate(64.11,381.39) rotate(150.76)">
    <line x1="0" y1="0" x2="10.00" y2="0" stroke="#00d4ff" stroke-width="1.5" stroke-opacity="0.6"/>
    <circle cx="0" cy="0" r="1.5" fill="#00d4ff" fill-opacity="0.5"/>
  </g>
  <g id="pose52" transform="translate(68.51,380.33) rotate(147.64)">
    <line x1="0" y1="0" x2="10.00" y2="0" stroke="#00d4ff" stroke-width="1.5" stroke-opacity="0.6"/>
    <circle cx="0" cy="0" r="1.5" fill="#00d4ff" fill-opacity="0.5"/>
  </g>
  <g id="pose53" transform="translate(70.38,379.90) rotate(146.19)">
    <line x1="0" y1="0" x2="10.00" y2="0" stroke="#00d4ff" stroke-width="1.5" stroke-opacity="0.6"/>
    <circle cx="0" cy="0" r="1.5" fill="#00d4ff" fill-opacity="0.5"/>
  </g>
  <g id="pose54" transform="translate(72.04,379.51) rotate(144.83)">
    <line x1="0" y1="0" x2="10.00" y2="0" stroke="#00d4ff" stroke-width="1.5" stroke-opacity="0.6"/>
    <circle cx="0" cy="0" r="1.5" fill="#00d4ff" fill-opacity="0.5"/>
  </g>
  <g id="pose55" transform="translate(74.69,378.91) rotate(142.44)">
    <line x1="0" y1="0" x2="10.00" y2="0" stroke="#00d4ff" stroke-width="1.5" stroke-opacity="0.6"/>
    <circle cx="0" cy="0" r="1.5" fill="#00d4ff" fill-opacity="0.5"/>
  </g>
  <g id="pose56" transform="translate(75.68,378.69) rotate(141.45)">
    <line x1="0" y1="0" x2="10.00" y2="0" stroke="#00d4ff" stroke-width="1.5" stroke-opacity="0.6"/>
    <circle cx="0" cy="0" r="1.5" fill="#00d4ff" fill-opacity="0.5"/>
  </g>
  <g id="pose57" transform="translate(76.46,378.51) rotate(140.61)">
    <line x1="0" y1="0" x2="10.00" y2="0" stroke="#00d4ff" stroke-width="1.5" stroke-opacity="0.6"/>
    <circle cx="0" cy="0" r="1.5" fill="#00d4ff" fill-opacity="0.5"/>
  </g>
  <g id="pose58" transform="translate(77.34,378.32) rotate(139.48)">
    <line x1="0" y1="0" x2="10.00" y2="0" stroke="#00d4ff" stroke-width="1.5" stroke-opacity="0.6"/>
    <circle cx="0" cy="0" r="1.5" fill="#00d4ff" fill-opacity="0.5"/>
  </g>
  <g id="pose59" transform="translate(77.45,378.29) rotate(139.24)">
    <rect x="-20.83" y="-25.00" width="41.66" height="50.00" rx="3" fill="#00d4ff" fill-opacity="0.25" stroke="#00d4ff" stroke-width="1.2" stroke-opacity="0.7"/>
    <rect x="-16.67" y="-20.83" width="33.33" height="41.66" fill="#00d4ff" fill-opacity="0.55" stroke="#00d4ff" stroke-width="1.5"/>
    <polygon points="16.67,0 2.08,14.58 2.08,-14.58" fill="#ffffff" fill-opacity="0.9"/>
    <circle cx="0" cy="0" r="3" fill="#ffffff" fill-opacity="0.9"/>
  </g>
  <rect x="199.6" y="385.0" width="52.0" height="11" rx="3" fill="#000000" fill-opacity="0.65"/>
  <text x="203.6" y="394.0" font-size="9" fill="#00d4ff" font-family="monospace" font-weight="bold">S1: BlueROut</text>
</svg>