<svg xmlns="http://www.w3.org/2000/svg" width="900" height="442" viewBox="0 0 900 442">
  <rect x="0" y="0" width="900" height="442" fill="#1a1a1a"/>
  <rect x="0" y="0" width="218.7" height="442" fill="#0d1a3a" fill-opacity="0.7"/>
  <text x="109.4" y="14" text-anchor="middle" font-size="10" fill="#4466cc" font-family="sans-serif">BLUE</text>
  <rect x="262.5" y="0" width="386.0" height="442" fill="#111111" fill-opacity="0.7"/>
  <text x="455.5" y="14" text-anchor="middle" font-size="10" fill="#888" font-family="sans-serif">NEUTRAL</text>
  <rect x="686.2" y="0" width="213.8" height="442" fill="#3a0d0d" fill-opacity="0.7"/>
  <text x="793.1" y="14" text-anchor="middle" font-size="10" fill="#cc4444" font-family="sans-serif">RED</text>
  <rect x="0" y="0" width="900" height="442" fill="none" stroke="#888" stroke-width="2"/>
  <line x1="0.0" y1="442" x2="0.0" y2="437" stroke="#555" stroke-width="1"/>
  <text x="0.0" y="435" text-anchor="middle" font-size="7" fill="#666" font-family="monospace">0m</text>
  <line x1="109.4" y1="442" x2="109.4" y2="437" stroke="#555" stroke-width="1"/>
  <text x="109.4" y="435" text-anchor="middle" font-size="7" fill="#666" font-family="monospace">2m</text>
  <line x1="218.7" y1="442" x2="218.7" y2="437" stroke="#555" stroke-width="1"/>
  <text x="218.7" y="435" text-anchor="middle" font-size="7" fill="#666" font-family="monospace">4m</text>
  <line x1="328.1" y1="442" x2="328.1" y2="437" stroke="#555" stroke-width="1"/>
  <text x="328.1" y="435" text-anchor="middle" font-size="7" fill="#666" font-family="monospace">6m</text>
  <line x1="437.4" y1="442" x2="437.4" y2="437" stroke="#555" stroke-width="1"/>
  <text x="437.4" y="435" text-anchor="middle" font-size="7" fill="#666" font-family="monospace">8m</text>
  <line x1="546.8" y1="442" x2="546.8" y2="437" stroke="#555" stroke-width="1"/>
  <text x="546.8" y="435" text-anchor="middle" font-size="7" fill="#666" font-family="monospace">10m</text>
  <line x1="656.1" y1="442" x2="656.1" y2="437" stroke="#555" stroke-width="1"/>
  <text x="656.1" y="435" text-anchor="middle" font-size="7" fill="#666" font-family="monospace">12m</text>
  <line x1="765.5" y1="442" x2="765.5" y2="437" stroke="#555" stroke-width="1"/>
  <text x="765.5" y="435" text-anchor="middle" font-size="7" fill="#666" font-family="monospace">14m</text>
  <line x1="874.8" y1="442" x2="874.8" y2="437" stroke="#555" stroke-width="1"/>
  <text x="874.8" y="435" text-anchor="middle" font-size="7" fill="#666" font-family="monospace">16m</text>
  <line x1="0" y1="442.9" x2="5" y2="442.9" stroke="#555" stroke-width="1"/>
  <text x="7" y="442.9" dominant-baseline="middle" font-size="7" fill="#666" font-family="monospace">0m</text>
  <line x1="0" y1="333.5" x2="5" y2="333.5" stroke="#555" stroke-width="1"/>
  <text x="7" y="333.5" dominant-baseline="middle" font-size="7" fill="#666" font-family="monospace">2m</text>
  <line x1="0" y1="224.2" x2="5" y2="224.2" stroke="#555" stroke-width="1"/>
  <text x="7" y="224.2" dominant-baseline="middle" font-size="7" fill="#666" font-family="monospace">4m</text>
  <line x1="0" y1="114.8" x2="5" y2="114.8" stroke="#555" stroke-width="1"/>
  <text x="7" y="114.8" dominant-baseline="middle" font-size="7" fill="#666" font-family="monospace">6m</text>
  <line x1="0" y1="5.5" x2="5" y2="5.5" stroke="#555" stroke-width="1"/>
  <text x="7" y="5.5" dominant-baseline="middle" font-size="7" fill="#666" font-family="monospace">8m</text>
  <rect x="220.8" y="254.3" width="61.1" height="100.6" fill="none" stroke="#4d7dff" stroke-width="1.6" stroke-dasharray="4 3" stroke-opacity="0.85"/>
  <text x="224.8" y="263.3" text-anchor="start" font-size="8" fill="#9bb6ff" font-family="monospace">BumpDepotElement</text>
  <rect x="220.8" y="88.0" width="61.1" height="100.6" fill="none" stroke="#4d7dff" stroke-width="1.6" stroke-dasharray="4 3" stroke-opacity="0.85"/>
  <text x="224.8" y="97.0" text-anchor="start" font-size="8" fill="#9bb6ff" font-family="monospace">BumpOutpostElement</text>
  <rect x="218.7" y="189.0" width="65.3" height="65.3" fill="none" stroke="#4d7dff" stroke-width="1.6" stroke-dasharray="4 3" stroke-opacity="0.85"/>
  <text x="222.7" y="198.0" text-anchor="start" font-size="8" fill="#9bb6ff" font-family="monospace">HubElement</text>
  <rect x="218.7" y="354.9" width="65.3" height="17.0" fill="none" stroke="#4d7dff" stroke-width="1.6" stroke-dasharray="4 3" stroke-opacity="0.85"/>
  <text x="222.7" y="363.9" text-anchor="start" font-size="8" fill="#9bb6ff" font-family="monospace">TrenchADepotElement</text>
  <rect x="218.7" y="71.1" width="65.3" height="17.0" fill="none" stroke="#4d7dff" stroke-width="1.6" stroke-dasharray="4 3" stroke-opacity="0.85"/>
  <text x="222.7" y="80.1" text-anchor="start" font-size="8" fill="#9bb6ff" font-family="monospace">TrenchAOutpostElement</text>
  <polyline points="196.45,333.89 196.43,333.83 196.36,333.64 196.24,333.33 196.08,332.90 195.87,332.35 195.61,331.67 195.30,330.87 194.95,329.94 194.55,328.89 194.11,327.72 193.62,326.42 193.08,325.01 192.49,323.46 191.86,321.80 191.18,320.01 190.48,318.16 189.80,316.37 189.17,314.71 188.58,313.17 188.04,311.75 187.55,310.45 187.10,309.28 186.70,308.23 186.35,307.31 186.05,306.51 185.79,305.83 185.58,305.27 185.41,304.84 185.30,304.53 185.23,304.35 185.20,304.29" fill="none" stroke="#00d4ff" stroke-width="2" stroke-opacity="0.85" stroke-linejoin="round" stroke-linecap="round"/>
  <g id="pose0" transform="translate(196.45,333.89) rotate(-0.00)">
    <rect x="-20.83" y="-25.00" width="41.66" height="50.00" rx="3" fill="#00d4ff" fill-opacity="0.25" stroke="#00d4ff" stroke-width="1.2" stroke-opacity="0.7"/>
    <rect x="-16.67" y="-20.83" width="33.33" height="41.66" fill="#00d4ff" fill-opacity="0.55" stroke="#00d4ff" stroke-width="1.5"/>
    <polygon points="16.67,0 2.08,14.58 2.08,-14.58" fill="#ffffff" fill-opacity="0.9"/>
    <circle cx="0" cy="0" r="3" fill="#ffffff" fill-opacity="0.9"/>
  </g>
  <g id="pose1" transform="translate(196.43,333.83) rotate(-0.00)">
    <rect x="-20.83" y="-25.00" width="41.66" height="50.00" rx="3" fill="#00d4ff" fill-opacity="0.25" stroke="#00d4ff" stroke-width="1.2" stroke-opacity="0.7"/>
    <rect x="-16.67" y="-20.83" width="33.33" height="41.66" fill="#00d4ff" fill-opacity="0.55" stroke="#00d4ff" stroke-width="1.5"/>
    <polygon points="16.67,0 2.08,14.58 2.08,-14.58" fill="#ffffff" fill-opacity="0.9"/>
    <circle cx="0" cy="0" r="3" fill="#ffffff" fill-opacity="0.9"/>
  </g>
  <g id="pose2" transform="translate(196.36,333.64) rotate(0.86)">
    <line x1="0" y1="0" x2="10.00" y2="0" stroke="#00d4ff" stroke-width="1.5" stroke-opacity="0.6"/>
    <circle cx="0" cy="0" r="1.5" fill="#00d4ff" fill-opacity="0.5"/>
  </g>
  <g id="pose3" transform="translate(196.24,333.33) rotate(2.51)">
    <line x1="0" y1="0" x2="10.00" y2="0" stroke="#00d4ff" stroke-width="1.5" stroke-opacity="0.6"/>
    <circle cx="0" cy="0" r="1.5" fill="#00d4ff" fill-opacity="0.5"/>
  </g>
  <g id="pose4" transform="translate(196.08,332.90) rotate(4.90)">
    <line x1="0" y1="0" x2="10.00" y2="0" stroke="#00d4ff" stroke-width="1.5" stroke-opacity="0.6"/>
    <circle cx="0" cy="0" r="1.5" fill="#00d4ff" fill-opacity="0.5"/>
  </g>
  <g id="pose5" transform="translate(195.87,332.35) rotate(7.96)">
    <line x1="0" y1="0" x2="10.00" y2="0" stroke="#00d4ff" stroke-width="1.5" stroke-opacity="0.6"/>
    <circle cx="0" cy="0" r="1.5" fill="#00d4ff" fill-opacity="0.5"/>
  </g>
  <g id="pose6" transform="translate(195.61,331.67) rotate(11.65)">
    <line x1="0" y1="0" x2="10.00" y2="0" stroke="#00d4ff" stroke-width="1.5" stroke-opacity="0.6"/>
    <circle cx="0" cy="0" r="1.5" fill="#00d4ff" fill-opacity="0.5"/>
  </g>
  <g id="pose7" transform="translate(195.30,330.87) rotate(15.90)">
    <line x1="0" y1="0" x2="10.00" y2="0" stroke="#00d4ff" stroke-width="1.5" stroke-opacity="0.6"/>
    <circle cx="0" cy="0" r="1.5" fill="#00d4ff" fill-opacity="0.5"/>
  </g>
  <g id="pose8" transform="translate(194.95,329.94) rotate(20.65)">
    <line x1="0" y1="0" x2="10.00" y2="0" stroke="#00d4ff" stroke-width="1.5" stroke-opacity="0.6"/>
    <circle cx="0" cy="0" r="1.5" fill="#00d4ff" fill-opacity="0.5"/>
  </g>
  <g id="pose9" transform="translate(194.55,328.89) rotate(25.85)">
    <line x1="0" y1="0" x2="10.00" y2="0" stroke="#00d4ff" stroke-width="1.5" stroke-opacity="0.6"/>
    <circle cx="0" cy="0" r="1.5" fill="#00d4ff" fill-opacity="0.5"/>
  </g>
  <g id="pose10" transform="translate(194.11,327.72) rotate(31.44)">
    <line x1="0" y1="0" x2="10.00" y2="0" stroke="#00d4ff" stroke-width="1.5" stroke-opacity="0.6"/>
    <circle cx="0" cy="0" r="1.5" fill="#00d4ff" fill-opacity="0.5"/>
  </g>
  <g id="pose11" transform="translate(193.62,326.42) rotate(37.36)">
    <line x1="0" y1="0" x2="10.00" y2="0" stroke="#00d4ff" stroke-width="1.5" stroke-opacity="0.6"/>
    <circle cx="0" cy="0" r="1.5" fill="#00d4ff" fill-opacity="0.5"/>
  </g>
  <g id="pose12" transform="translate(193.08,325.01) rotate(43.56)">
    <line x1="0" y1="0" x2="10.00" y2="0" stroke="#00d4ff" stroke-width="1.5" stroke-opacity="0.6"/>
    <circle cx="0" cy="0" r="1.5" fill="#00d4ff" fill-opacity="0.5"/>
  </g>
  <g id="pose13" transform="translate(192.49,323.46) rotate(49.98)">
    <line x1="0" y1="0" x2="10.00" y2="0" stroke="#00d4ff" stroke-width="1.5" stroke-opacity="0.6"/>
    <circle cx="0" cy="0" r="1.5" fill="#00d4ff" fill-opacity="0.5"/>
  </g>
  <g id="pose14" transform="translate(191.86,321.80) rotate(56.57)">
    <line x1="0" y1="0" x2="10.00" y2="0" stroke="#00d4ff" stroke-width="1.5" stroke-opacity="0.6"/>
    <circle cx="0" cy="0" r="1.5" fill="#00d4ff" fill-opacity="0.5"/>
  </g>
  <g id="pose15" transform="translate(191.18,320.01) rotate(63.27)">
    <line x1="0" y1="0" x2="10.00" y2="0" stroke="#00d4ff" stroke-width="1.5" stroke-opacity="0.6"/>
    <circle cx="0" cy="0" r="1.5" fill="#00d4ff" fill-opacity="0.5"/>
  </g>
  <g id="pose16" transform="translate(190.48,318.16) rotate(70.04)">
    <line x1="0" y1="0" x2="10.00" y2="0" stroke="#00d4ff" stroke-width="1.5" stroke-opacity="0.6"/>
    <circle cx="0" cy="0" r="1.5" fill="#00d4ff" fill-opacity="0.5"/>
  </g>
  <g id="pose17" transform="translate(189.80,316.37) rotate(76.80)">
    <line x1="0" y1="0" x2="10.00" y2="0" stroke="#00d4ff" stroke-width="1.5" stroke-opacity="0.6"/>
    <circle cx="0" cy="0" r="1.5" fill="#00d4ff" fill-opacity="0.5"/>
  </g>
  <g id="pose18" transform="translate(189.17,314.71) rotate(83.50)">
    <line x1="0" y1="0" x2="10.00" y2="0" stroke="#00d4ff" stroke-width="1.5" stroke-opacity="0.6"/>
    <circle cx="0" cy="0" r="1.5" fill="#00d4ff" fill-opacity="0.5"/>
  </g>
  <g id="pose19" transform="translate(188.58,313.17) rotate(90.09)">
    <line x1="0" y1="0" x2="10.00" y2="0" stroke="#00d4ff" stroke-width="1.5" stroke-opacity="0.6"/>
    <circle cx="0" cy="0" r="1.5" fill="#00d4ff" fill-opacity="0.5"/>
  </g>
  <g id="pose20" transform="translate(188.04,311.75) rotate(96.50)">
    <line x1="0" y1="0" x2="10.00" y2="0" stroke="#00d4ff" stroke-width="1.5" stroke-opacity="0.6"/>
    <circle cx="0" cy="0" r="1.5" fill="#00d4ff" fill-opacity="0.5"/>
  </g>
  <g id="pose21" transform="translate(187.55,310.45) rotate(102.69)">
    <line x1="0" y1="0" x2="10.00" y2="0" stroke="#00d4ff" stroke-width="1.5" stroke-opacity="0.6"/>
    <circle cx="0" cy="0" r="1.5" fill="#00d4ff" fill-opacity="0.5"/>
  </g>
  <g id="pose22" transform="translate(187.10,309.28) rotate(108.60)">
    <line x1="0" y1="0" x2="10.00" y2="0" stroke="#00d4ff" stroke-width="1.5" stroke-opacity="0.6"/>
    <circle cx="0" cy="0" r="1.5" fill="#00d4ff" fill-opacity="0.5"/>
  </g>
  <g id="pose23" transform="translate(186.70,308.23) rotate(114.17)">
    <line x1="0" y1="0" x2="10.00" y2="0" stroke="#00d4ff" stroke-width="1.5" stroke-opacity="0.6"/>
    <circle cx="0" cy="0" r="1.5" fill="#00d4ff" fill-opacity="0.5"/>
  </g>
  <g id="pose24" transform="translate(186.35,307.31) rotate(119.36)">
    <line x1="0" y1="0" x2="10.00" y2="0" stroke="#00d4ff" stroke-width="1.5" stroke-opacity="0.6"/>
    <circle cx="0" cy="0" r="1.5" fill="#00d4ff" fill-opacity="0.5"/>
  </g>
  <g id="pose25" transform="translate(186.05,306.51) rotate(124.10)">
    <line x1="0" y1="0" x2="10.00" y2="0" stroke="#00d4ff" stroke-width="1.5" stroke-opacity="0.6"/>
    <circle cx="0" cy="0" r="1.5" fill="#00d4ff" fill-opacity="0.5"/>
  </g>
  <g id="pose26" transform="translate(185.79,305.83) rotate(128.33)">
    <line x1="0" y1="0" x2="10.00" y2="0" stroke="#00d4ff" stroke-width="1.5" stroke-opacity="0.6"/>
    <circle cx="0" cy="0" r="1.5" fill="#00d4ff" fill-opacity="0.5"/>
  </g>
  <g id="pose27" transform="translate(185.58,305.27) rotate(132.00)">
    <line x1="0" y1="0" x2="10.00" y2="0" stroke="#00d4ff" stroke-width="1.5" stroke-opacity="0.6"/>
    <circle cx="0" cy="0" r="1.5" fill="#00d4ff" fill-opacity="0.5"/>
  </g>
  <g id="pose28" transform="translate(185.41,304.84) rotate(135.05)">
    <line x1="0" y1="0" x2="10.00" y2="0" stroke="#00d4ff" stroke-width="1.5" stroke-opacity="0.6"/>
    <circle cx="0" cy="0" r="1.5" fill="#00d4ff" fill-opacity="0.5"/>
  </g>
  <g id="pose29" transform="translate(185.30,304.53) rotate(137.42)">
    <line x1="0" y1="0" x2="10.00" y2="0" stroke="#00d4ff" stroke-width="1.5" stroke-opacity="0.6"/>
    <circle cx="0" cy="0" r="1.5" fill="#00d4ff" fill-opacity="0.5"/>
  </g>
  <g id="pose30" transform="translate(185.23,304.35) rotate(139.06)">
    <line x1="0" y1="0" x2="10.00" y2="0" stroke="#00d4ff" stroke-width="1.5" stroke-opacity="0.6"/>
    <circle cx="0" cy="0" r="1.5" fill="#00d4ff" fill-opacity="0.5"/>
  </g>
  <g id="pose31" transform="translate(185.20,304.29) rotate(139.90)">
    <line x1="0" y1="0" x2="10.00" y2="0" stroke="#00d4ff" stroke-width="1.5" stroke-opacity="0.6"/>
    <circle cx="0" cy="0" r="1.5" fill="#00d4ff" fill-opacity="0.5"/>
  </g>
  <rect x="198.5" y="316.9" width="123.5" height="11" rx="3" fill="#000000" fill-opacity="0.65"/>
  <text x="202.5" y="325.9" font-size="9" fill="#00d4ff" font-family="monospace" font-weight="bold">S1: InitPassingPathRight1</text>
  <polyline points="185.20,304.88 185.40,304.88 185.99,304.88 186.98,304.88 188.36,304.88 190.14,304.88 192.31,304.88 194.88,304.88 197.84,304.88 201.19,304.88 204.94,304.88 209.09,304.88 213.62,304.88 218.56,304.88 223.89,304.88 229.61,304.88 235.73,304.88 242.24,304.88 249.14,304.88 256.25,304.88 263.15,304.88 269.66,304.88 275.78,304.88 281.50,304.88 286.83,304.88 291.77,304.88 296.31,304.88 300.45,304.88 304.20,304.88 307.56,304.88 310.52,304.88 313.08,304.88 315.25,304.88 317.03,304.88 318.41,304.88 319.40,304.88 319.99,304.88 320.19,304.88" fill="none" stroke="#ffcc00" stroke-width="2" stroke-opacity="0.85" stroke-linejoin="round" stroke-linecap="round"/>
  <g id="pose1000" transform="translate(185.20,304.88) rotate(139.90)">
    <rect x="-20.83" y="-25.00" width="41.66" height="50.00" rx="3" fill="#ffcc00" fill-opacity="0.25" stroke="#ffcc00" stroke-width="1.2" stroke-opacity="0.7"/>
    <rect x="-16.67" y="-20.83" width="33.33" height="41.66" fill="#ffcc00" fill-opacity="0.55" stroke="#ffcc00" stroke-width="1.5"/>
    <polygon points="16.67,0 2.08,14.58 2.08,-14.58" fill="#ffffff" fill-opacity="0.9"/>
    <circle cx="0" cy="0" r="3" fill="#ffffff" fill-opacity="0.9"/>
  </g>
  <g id="pose1001" transform="translate(185.40,304.88) rotate(139.90)">
    <rect x="-20.83" y="-25.00" width="41.66" height="50.00" rx="3" fill="#ffcc00" fill-opacity="0.25" stroke="#ffcc00" stroke-width="1.2" stroke-opacity="0.7"/>
    <rect x="-16.67" y="-20.83" width="33.33" height="41.66" fill="#ffcc00" fill-opacity="0.55" stroke="#ffcc00" stroke-width="1.5"/>
    <polygon points="16.67,0 2.08,14.58 2.08,-14.58" fill="#ffffff" fill-opacity="0.9"/>
    <circle cx="0" cy="0" r="3" fill="#ffffff" fill-opacity="0.9"/>
  </g>
  <g id="pose1002" transform="translate(185.99,304.88) rotate(139.90)">
    <line x1="0" y1="0" x2="10.00" y2="0" stroke="#ffcc00" stroke-width="1.5" stroke-opacity="0.6"/>
    <circle cx="0" cy="0" r="1.5" fill="#ffcc00" fill-opacity="0.5"/>
  </g>
  <g id="pose1003" transform="translate(186.98,304.88) rotate(139.90)">
    <line x1="0" y1="0" x2="10.00" y2="0" stroke="#ffcc00" stroke-width="1.5" stroke-opacity="0.6"/>
    <circle cx="0" cy="0" r="1.5" fill="#ffcc00" fill-opacity="0.5"/>
  </g>
  <g id="pose1004" transform="translate(188.36,304.88) rotate(139.90)">
    <line x1="0" y1="0" x2="10.00" y2="0" stroke="#ffcc00" stroke-width="1.5" stroke-opacity="0.6"/>
    <circle cx="0" cy="0" r="1.5" fill="#ffcc00" fill-opacity="0.5"/>
  </g>
  <g id="pose1005" transform="translate(190.14,304.88) rotate(139.91)">
    <line x1="0" y1="0" x2="10.00" y2="0" stroke="#ffcc00" stroke-width="1.5" stroke-opacity="0.6"/>
    <circle cx="0" cy="0" r="1.5" fill="#ffcc00" fill-opacity="0.5"/>
  </g>
  <g id="pose1006" transform="translate(192.31,304.88) rotate(139.91)">
    <line x1="0" y1="0" x2="10.00" y2="0" stroke="#ffcc00" stroke-width="1.5" stroke-opacity="0.6"/>
    <circle cx="0" cy="0" r="1.5" fill="#ffcc00" fill-opacity="0.5"/>
  </g>
  <g id="pose1007" transform="translate(194.88,304.88) rotate(139.92)">
    <line x1="0" y1="0" x2="10.00" y2="0" stroke="#ffcc00" stroke-width="1.5" stroke-opacity="0.6"/>
    <circle cx="0" cy="0" r="1.5" fill="#ffcc00" fill-opacity="0.5"/>
  </g>
  <g id="pose1008" transform="translate(197.84,304.88) rotate(139.92)">
    <line x1="0" y1="0" x2="10.00" y2="0" stroke="#ffcc00" stroke-width="1.5" stroke-opacity="0.6"/>
    <circle cx="0" cy="0" r="1.5" fill="#ffcc00" fill-opacity="0.5"/>
  </g>
  <g id="pose1009" transform="translate(201.19,304.88) rotate(139.92)">
    <line x1="0" y1="0" x2="10.00" y2="0" stroke="#ffcc00" stroke-width="1.5" stroke-opacity="0.6"/>
    <circle cx="0" cy="0" r="1.5" fill="#ffcc00" fill-opacity="0.5"/>
  </g>
  <g id="pose1010" transform="translate(204.94,304.88) rotate(139.92)">
    <line x1="0" y1="0" x2="10.00" y2="0" stroke="#ffcc00" stroke-width="1.5" stroke-opacity="0.6"/>
    <circle cx="0" cy="0" r="1.5" fill="#ffcc00" fill-opacity="0.5"/>
  </g>
  <g id="pose1011" transform="translate(209.09,304.88) rotate(139.93)">
    <line x1="0" y1="0" x2="10.00" y2="0" stroke="#ffcc00" stroke-width="1.5" stroke-opacity="0.6"/>
    <circle cx="0" cy="0" r="1.5" fill="#ffcc00" fill-opacity="0.5"/>
  </g>
  <g id="pose1012" transform="translate(213.62,304.88) rotate(139.93)">
    <line x1="0" y1="0" x2="10.00" y2="0" stroke="#ffcc00" stroke-width="1.5" stroke-opacity="0.6"/>
    <circle cx="0" cy="0" r="1.5" fill="#ffcc00" fill-opacity="0.5"/>
  </g>
  <g id="pose1013" transform="translate(218.56,304.88) rotate(139.93)">
    <line x1="0" y1="0" x2="10.00" y2="0" stroke="#ffcc00" stroke-width="1.5" stroke-opacity="0.6"/>
    <circle cx="0" cy="0" r="1.5" fill="#ffcc00" fill-opacity="0.5"/>
  </g>
  <g id="pose1014" transform="translate(223.89,304.88) rotate(139.93)">
    <line x1="0" y1="0" x2="10.00" y2="0" stroke="#ffcc00" stroke-width="1.5" stroke-opacity="0.6"/>
    <circle cx="0" cy="0" r="1.5" fill="#ffcc00" fill-opacity="0.5"/>
  </g>
  <g id="pose1015" transform="translate(229.61,304.88) rotate(139.93)">
    <line x1="0" y1="0" x2="10.00" y2="0" stroke="#ffcc00" stroke-width="1.5" stroke-opacity="0.6"/>
    <circle cx="0" cy="0" r="1.5" fill="#ffcc00" fill-opacity="0.5"/>
  </g>
  <g id="pose1016" transform="translate(235.73,304.88) rotate(139.92)">
    <line x1="0" y1="0" x2="10.00" y2="0" stroke="#ffcc00" stroke-width="1.5" stroke-opacity="0.6"/>
    <circle cx="0" cy="0" r="1.5" fill="#ffcc00" fill-opacity="0.5"/>
  </g>
  <g id="pose1017" transform="translate(242.24,304.88) rotate(139.92)">
    <line x1="0" y1="0" x2="10.00" y2="0" stroke="#ffcc00" stroke-width="1.5" stroke-opacity="0.6"/>
    <circle cx="0" cy="0" r="1.5" fill="#ffcc00" fill-opacity="0.5"/>
  </g>
  <g id="pose1018" transform="translate(249.14,304.88) rotate(139.91)">
    <line x1="0" y1="0" x2="10.00" y2="0" stroke="#ffcc00" stroke-width="1.5" stroke-opacity="0.6"/>
    <circle cx="0" cy="0" r="1.5" fill="#ffcc00" fill-opacity="0.5"/>
  </g>
  <g id="pose1019" transform="translate(256.25,304.88) rotate(139.89)">
    <line x1="0" y1="0" x2="10.00" y2="0" stroke="#ffcc00" stroke-width="1.5" stroke-opacity="0.6"/>
    <circle cx="0" cy="0" r="1.5" fill="#ffcc00" fill-opacity="0.5"/>
  </g>
  <g id="pose1020" transform="translate(263.15,304.88) rotate(139.88)">
    <line x1="0" y1="0" x2="10.00" y2="0" stroke="#ffcc00" stroke-width="1.5" stroke-opacity="0.6"/>
    <circle cx="0" cy="0" r="1.5" fill="#ffcc00" fill-opacity="0.5"/>
  </g>
  <g id="pose1021" transform="translate(269.66,304.88) rotate(139.87)">
    <line x1="0" y1="0" x2="10.00" y2="0" stroke="#ffcc00" stroke-width="1.5" stroke-opacity="0.6"/>
    <circle cx="0" cy="0" r="1.5" fill="#ffcc00" fill-opacity="0.5"/>
  </g>
  <g id="pose1022" transform="translate(275.78,304.88) rotate(139.86)">
    <line x1="0" y1="0" x2="10.00" y2="0" stroke="#ffcc00" stroke-width="1.5" stroke-opacity="0.6"/>
    <circle cx="0" cy="0" r="1.5" fill="#ffcc00" fill-opacity="0.5"/>
  </g>
  <g id="pose1023" transform="translate(281.50,304.88) rotate(139.86)">
    <line x1="0" y1="0" x2="10.00" y2="0" stroke="#ffcc00" stroke-width="1.5" stroke-opacity="0.6"/>
    <circle cx="0" cy="0" r="1.5" fill="#ffcc00" fill-opacity="0.5"/>
  </g>
  <g id="pose1024" transform="translate(286.83,304.88) rotate(139.86)">
    <line x1="0" y1="0" x2="10.00" y2="0" stroke="#ffcc00" stroke-width="1.5" stroke-opacity="0.6"/>
    <circle cx="0" cy="0" r="1.5" fill="#ffcc00" fill-opacity="0.5"/>
  </g>
  <g id="pose1025" transform="translate(291.77,304.88) rotate(139.86)">
    <line x1="0" y1="0" x2="10.00" y2="0" stroke="#ffcc00" stroke-width="1.5" stroke-opacity="0.6"/>
    <circle cx="0" cy="0" r="1.5" fill="#ffcc00" fill-opacity="0.5"/>
  </g>
  <g id="pose1026" transform="translate(296.31,304.88) rotate(139.86)">
    <line x1="0" y1="0" x2="10.00" y2="0" stroke="#ffcc00" stroke-width="1.5" stroke-opacity="0.6"/>
    <circle cx="0" cy="0" r="1.5" fill="#ffcc00" fill-opacity="0.5"/>
  </g>
  <g id="pose1027" transform="translate(300.45,304.88) rotate(139.86)">
    <line x1="0" y1="0" x2="10.00" y2="0" stroke="#ffcc00" stroke-width="1.5" stroke-opacity="0.6"/>
    <circle cx="0" cy="0" r="1.5" fill="#ffcc00" fill-opacity="0.5"/>
  </g>
  <g id="pose1028" transform="translate(304.20,304.88) rotate(139.87)">
    <line x1="0" y1="0" x2="10.00" y2="0" stroke="#ffcc00" stroke-width="1.5" stroke-opacity="0.6"/>
    <circle cx="0" cy="0" r="1.5" fill="#ffcc00" fill-opacity="0.5"/>
  </g>
  <g id="pose1029" transform="translate(307.56,304.88) rotate(139.87)">
    <line x1="0" y1="0" x2="10.00" y2="0" stroke="#ffcc00" stroke-width="1.5" stroke-opacity="0.6"/>
    <circle cx="0" cy="0" r="1.5" fill="#ffcc00" fill-opacity="0.5"/>
  </g>
  <g id="pose1030" transform="translate(310.52,304.88) rotate(139.87)">
    <line x1="0" y1="0" x2="10.00" y2="0" stroke="#ffcc00" stroke-width="1.5" stroke-opacity="0.6"/>
    <circle cx="0" cy="0" r="1.5" fill="#ffcc00" fill-opacity="0.5"/>
  </g>
  <g id="pose1031" transform="translate(313.08,304.88) rotate(139.88)">
    <line x1="0" y1="0" x2="10.00" y2="0" stroke="#ffcc00" stroke-width="1.5" stroke-opacity="0.6"/>
    <circle cx="0" cy="0" r="1.5" fill="#ffcc00" fill-opacity="0.5"/>
  </g>
  <g id="pose1032" transform="translate(315.25,304.88) rotate(139.88)">
    <line x1="0" y1="0" x2="10.00" y2="0" stroke="#ffcc00" stroke-width="1.5" stroke-opacity="0.6"/>
    <circle cx="0" cy="0" r="1.5" fill="#ffcc00" fill-opacity="0.5"/>
  </g>
  <g id="pose1033" transform="translate(317.03,304.88) rotate(139.89)">
    <line x1="0" y1="0" x2="10.00" y2="0" stroke="#ffcc00" stroke-width="1.5" stroke-opacity="0.6"/>
    <circle cx="0" cy="0" r="1.5" fill="#ffcc00" fill-opacity="0.5"/>
  </g>
  <g id="pose1034" transform="translate(318.41,304.88) rotate(139.89)">
    <line x1="0" y1="0" x2="10.00" y2="0" stroke="#ffcc00" stroke-width="1.5" stroke-opacity="0.6"/>
    <circle cx="0" cy="0" r="1.5" fill="#ffcc00" fill-opacity="0.5"/>
  </g>
  <g id="pose1035" transform="translate(319.40,304.88) rotate(139.89)">
    <line x1="0" y1="0" x2="10.00" y2="0" stroke="#ffcc00" stroke-width="1.5" stroke-opacity="0.6"/>
    <circle cx="0" cy="0" r="1.5" fill="#ffcc00" fill-opacity="0.5"/>
  </g>
  <g id="pose1036" transform="translate(319.99,304.88) rotate(139.90)">
    <line x1="0" y1="0" x2="10.00" y2="0" stroke="#ffcc00" stroke-width="1.5" stroke-opacity="0.6"/>
    <circle cx="0" cy="0" r="1.5" fill="#ffcc00" fill-opacity="0.5"/>
  </g>
  <g id="pose1037" transform="translate(320.19,304.88) rotate(139.90)">
    <rect x="-20.83" y="-25.00" width="41.66" height="50.00" rx="3" fill="#ffcc00" fill-opacity="0.25" stroke="#ffcc00" stroke-width="1.2" stroke-opacity="0.7"/>
    <rect x="-16.67" y="-20.83" width="33.33" height="41.66" fill="#ffcc00" fill-opacity="0.55" stroke="#ffcc00" stroke-width="1.5"/>
    <polygon points="16.67,0 2.08,14.58 2.08,-14.58" fill="#ffffff" fill-opacity="0.9"/>
    <circle cx="0" cy="0" r="3" fill="#ffffff" fill-opacity="0.9"/>
  </g>
  <rect x="187.2" y="287.9" width="123.5" height="11" rx="3" fill="#000000" fill-opacity="0.65"/>
  <text x="191.2" y="296.9" font-size="9" fill="#ffcc00" font-family="monospace" font-weight="bold">S3: InitPassingPathRight2</text>
  <polyline points="320.19,304.88 323.93,310.08 335.41,325.47 355.78,349.88 382.60,370.74 402.93,379.13 420.93,377.91 432.31,366.60 438.42,345.77 439.39,315.37 435.18,275.42 425.72,225.98 416.18,181.03 411.05,147.20 408.85,115.12 410.53,90.07 416.10,72.05 424.22,61.94 434.12,58.07 444.20,60.68 452.82,69.62 458.90,85.30 461.50,104.54 461.45,132.76 458.70,167.84 454.99,210.06 455.88,256.25 459.02,296.75 460.05,329.95 458.06,356.13 453.60,373.38 445.94,386.04 436.39,392.32 425.91,392.56 415.88,386.70 407.38,374.53 401.21,354.52 398.39,327.51 398.67,298.15 402.18,258.08 408.91,212.17 413.14,169.64 414.11,133.97 411.99,105.27 406.81,83.55 399.09,69.39 390.10,62.14 381.58,60.44 372.19,63.85 364.29,72.79 358.06,89.85 355.25,113.99 355.82,145.21 359.65,183.55 365.77,230.58 368.24,279.50 369.62,323.75 370.42,355.37 370.83,374.34 370.95,380.66" fill="none" stroke="#ff6688" stroke-width="2" stroke-opacity="0.85" stroke-linejoin="round" stroke-linecap="round"/>
  <g id="pose2000" transform="translate(320.19,304.88) rotate(139.90)">
    <rect x="-20.83" y="-25.00" width="41.66" height="50.00" rx="3" fill="#ff6688" fill-opacity="0.25" stroke="#ff6688" stroke-width="1.2" stroke-opacity="0.7"/>
    <rect x="-16.67" y="-20.83" width="33.33" height="41.66" fill="#ff6688" fill-opacity="0.55" stroke="#ff6688" stroke-width="1.5"/>
    <polygon points="16.67,0 2.08,14.58 2.08,-14.58" fill="#ffffff" fill-opacity="0.9"/>
    <circle cx="0" cy="0" r="3" fill="#ffffff" fill-opacity="0.9"/>
  </g>
  <g id="pose2001" transform="translate(323.93,310.08) rotate(149.33)">
    <line x1="0" y1="0" x2="10.00" y2="0" stroke="#ff6688" stroke-width="1.5" stroke-opacity="0.6"/>
    <circle cx="0" cy="0" r="1.5" fill="#ff6688" fill-opacity="0.5"/>
  </g>
  <g id="pose2002" transform="translate(335.41,325.47) rotate(171.80)">
    <line x1="0" y1="0" x2="10.00" y2="0" stroke="#ff6688" stroke-width="1.5" stroke-opacity="0.6"/>
    <circle cx="0" cy="0" r="1.5" fill="#ff6688" fill-opacity="0.5"/>
  </g>
  <g id="pose2003" transform="translate(355.78,349.88) rotate(-161.56)">
    <line x1="0" y1="0" x2="10.00" y2="0" stroke="#ff6688" stroke-width="1.5" stroke-opacity="0.6"/>
    <circle cx="0" cy="0" r="1.5" fill="#ff6688" fill-opacity="0.5"/>
  </g>
  <g id="pose2004" transform="translate(382.60,370.74) rotate(-134.49)">
    <line x1="0" y1="0" x2="10.00" y2="0" stroke="#ff6688" stroke-width="1.5" stroke-opacity="0.6"/>
    <circle cx="0" cy="0" r="1.5" fill="#ff6688" fill-opacity="0.5"/>
  </g>
  <g id="pose2005" transform="translate(402.93,379.13) rotate(-111.84)">
    <line x1="0" y1="0" x2="10.00" y2="0" stroke="#ff6688" stroke-width="1.5" stroke-opacity="0.6"/>
    <circle cx="0" cy="0" r="1.5" fill="#ff6688" fill-opacity="0.5"/>
  </g>
  <g id="pose2006" transform="translate(420.93,377.91) rotate(-91.68)">
    <line x1="0" y1="0" x2="10.00" y2="0" stroke="#ff6688" stroke-width="1.5" stroke-opacity="0.6"/>
    <circle cx="0" cy="0" r="1.5" fill="#ff6688" fill-opacity="0.5"/>
  </g>
  <g id="pose2007" transform="translate(432.31,366.60) rotate(-84.46)">
    <line x1="0" y1="0" x2="10.00" y2="0" stroke="#ff6688" stroke-width="1.5" stroke-opacity="0.6"/>
    <circle cx="0" cy="0" r="1.5" fill="#ff6688" fill-opacity="0.5"/>
  </g>
  <g id="pose2008" transform="translate(438.42,345.77) rotate(-84.75)">
    <line x1="0" y1="0" x2="10.00" y2="0" stroke="#ff6688" stroke-width="1.5" stroke-opacity="0.6"/>
    <circle cx="0" cy="0" r="1.5" fill="#ff6688" fill-opacity="0.5"/>
  </g>
  <g id="pose2009" transform="translate(439.39,315.37) rotate(-87.72)">
    <line x1="0" y1="0" x2="10.00" y2="0" stroke="#ff6688" stroke-width="1.5" stroke-opacity="0.6"/>
    <circle cx="0" cy="0" r="1.5" fill="#ff6688" fill-opacity="0.5"/>
  </g>
  <g id="pose2010" transform="translate(435.18,275.42) rotate(-90.42)">
    <line x1="0" y1="0" x2="10.00" y2="0" stroke="#ff6688" stroke-width="1.5" stroke-opacity="0.6"/>
    <circle cx="0" cy="0" r="1.5" fill="#ff6688" fill-opacity="0.5"/>
  </g>
  <g id="pose2011" transform="translate(425.72,225.98) rotate(-90.00)">
    <rect x="-20.83" y="-25.00" width="41.66" height="50.00" rx="3" fill="#ff6688" fill-opacity="0.25" stroke="#ff6688" stroke-width="1.2" stroke-opacity="0.7"/>
    <rect x="-16.67" y="-20.83" width="33.33" height="41.66" fill="#ff6688" fill-opacity="0.55" stroke="#ff6688" stroke-width="1.5"/>
    <polygon points="16.67,0 2.08,14.58 2.08,-14.58" fill="#ffffff" fill-opacity="0.9"/>
    <circle cx="0" cy="0" r="3" fill="#ffffff" fill-opacity="0.9"/>
  </g>
  <g id="pose2012" transform="translate(416.18,181.03) rotate(-84.49)">
    <line x1="0" y1="0" x2="10.00" y2="0" stroke="#ff6688" stroke-width="1.5" stroke-opacity="0.6"/>
    <circle cx="0" cy="0" r="1.5" fill="#ff6688" fill-opacity="0.5"/>
  </g>
  <g id="pose2013" transform="translate(411.05,147.20) rotate(-77.66)">
    <line x1="0" y1="0" x2="10.00" y2="0" stroke="#ff6688" stroke-width="1.5" stroke-opacity="0.6"/>
    <circle cx="0" cy="0" r="1.5" fill="#ff6688" fill-opacity="0.5"/>
  </g>
  <g id="pose2014" transform="translate(408.85,115.12) rotate(-71.25)">
    <line x1="0" y1="0" x2="10.00" y2="0" stroke="#ff6688" stroke-width="1.5" stroke-opacity="0.6"/>
    <circle cx="0" cy="0" r="1.5" fill="#ff6688" fill-opacity="0.5"/>
  </g>
  <g id="pose2015" transform="translate(410.53,90.07) rotate(-72.19)">
    <line x1="0" y1="0" x2="10.00" y2="0" stroke="#ff6688" stroke-width="1.5" stroke-opacity="0.6"/>
    <circle cx="0" cy="0" r="1.5" fill="#ff6688" fill-opacity="0.5"/>
  </g>
  <g id="pose2016" transform="translate(416.10,72.05) rotate(-90.00)">
    <rect x="-20.83" y="-25.00" width="41.66" height="50.00" rx="3" fill="#ff6688" fill-opacity="0.25" stroke="#ff6688" stroke-width="1.2" stroke-opacity="0.7"/>
    <rect x="-16.67" y="-20.83" width="33.33" height="41.66" fill="#ff6688" fill-opacity="0.55" stroke="#ff6688" stroke-width="1.5"/>
    <polygon points="16.67,0 2.08,14.58 2.08,-14.58" fill="#ffffff" fill-opacity="0.9"/>
    <circle cx="0" cy="0" r="3" fill="#ffffff" fill-opacity="0.9"/>
  </g>
  <g id="pose2017" transform="translate(424.22,61.94) rotate(-126.80)">
    <line x1="0" y1="0" x2="10.00" y2="0" stroke="#ff6688" stroke-width="1.5" stroke-opacity="0.6"/>
    <circle cx="0" cy="0" r="1.5" fill="#ff6688" fill-opacity="0.5"/>
  </g>
  <g id="pose2018" transform="translate(434.12,58.07) rotate(-174.11)">
    <line x1="0" y1="0" x2="10.00" y2="0" stroke="#ff6688" stroke-width="1.5" stroke-opacity="0.6"/>
    <circle cx="0" cy="0" r="1.5" fill="#ff6688" fill-opacity="0.5"/>
  </g>
  <g id="pose2019" transform="translate(444.20,60.68) rotate(137.57)">
    <line x1="0" y1="0" x2="10.00" y2="0" stroke="#ff6688" stroke-width="1.5" stroke-opacity="0.6"/>
    <circle cx="0" cy="0" r="1.5" fill="#ff6688" fill-opacity="0.5"/>
  </g>
  <g id="pose2020" transform="translate(452.82,69.62) rotate(97.51)">
    <line x1="0" y1="0" x2="10.00" y2="0" stroke="#ff6688" stroke-width="1.5" stroke-opacity="0.6"/>
    <circle cx="0" cy="0" r="1.5" fill="#ff6688" fill-opacity="0.5"/>
  </g>
  <g id="pose2021" transform="translate(458.90,85.30) rotate(74.78)">
    <line x1="0" y1="0" x2="10.00" y2="0" stroke="#ff6688" stroke-width="1.5" stroke-opacity="0.6"/>
    <circle cx="0" cy="0" r="1.5" fill="#ff6688" fill-opacity="0.5"/>
  </g>
  <g id="pose2022" transform="translate(461.50,104.54) rotate(69.66)">
    <line x1="0" y1="0" x2="10.00" y2="0" stroke="#ff6688" stroke-width="1.5" stroke-opacity="0.6"/>
    <circle cx="0" cy="0" r="1.5" fill="#ff6688" fill-opacity="0.5"/>
  </g>
  <g id="pose2023" transform="translate(461.45,132.76) rotate(73.01)">
    <line x1="0" y1="0" x2="10.00" y2="0" stroke="#ff6688" stroke-width="1.5" stroke-opacity="0.6"/>
    <circle cx="0" cy="0" r="1.5" fill="#ff6688" fill-opacity="0.5"/>
  </g>
  <g id="pose2024" transform="translate(458.70,167.84) rotate(80.33)">
    <line x1="0" y1="0" x2="10.00" y2="0" stroke="#ff6688" stroke-width="1.5" stroke-opacity="0.6"/>
    <circle cx="0" cy="0" r="1.5" fill="#ff6688" fill-opacity="0.5"/>
  </g>
  <g id="pose2025" transform="translate(454.99,210.06) rotate(88.14)">
    <line x1="0" y1="0" x2="10.00" y2="0" stroke="#ff6688" stroke-width="1.5" stroke-opacity="0.6"/>
    <circle cx="0" cy="0" r="1.5" fill="#ff6688" fill-opacity="0.5"/>
  </g>
  <g id="pose2026" transform="translate(455.88,256.25) rotate(95.66)">
    <line x1="0" y1="0" x2="10.00" y2="0" stroke="#ff6688" stroke-width="1.5" stroke-opacity="0.6"/>
    <circle cx="0" cy="0" r="1.5" fill="#ff6688" fill-opacity="0.5"/>
  </g>
  <g id="pose2027" transform="translate(459.02,296.75) rotate(103.45)">
    <line x1="0" y1="0" x2="10.00" y2="0" stroke="#ff6688" stroke-width="1.5" stroke-opacity="0.6"/>
    <circle cx="0" cy="0" r="1.5" fill="#ff6688" fill-opacity="0.5"/>
  </g>
  <g id="pose2028" transform="translate(460.05,329.95) rotate(109.71)">
    <line x1="0" y1="0" x2="10.00" y2="0" stroke="#ff6688" stroke-width="1.5" stroke-opacity="0.6"/>
    <circle cx="0" cy="0" r="1.5" fill="#ff6688" fill-opacity="0.5"/>
  </g>
  <g id="pose2029" transform="translate(458.06,356.13) rotate(110.00)">
    <line x1="0" y1="0" x2="10.00" y2="0" stroke="#ff6688" stroke-width="1.5" stroke-opacity="0.6"/>
    <circle cx="0" cy="0" r="1.5" fill="#ff6688" fill-opacity="0.5"/>
  </g>
  <g id="pose2030" transform="translate(453.60,373.38) rotate(99.47)">
    <line x1="0" y1="0" x2="10.00" y2="0" stroke="#ff6688" stroke-width="1.5" stroke-opacity="0.6"/>
    <circle cx="0" cy="0" r="1.5" fill="#ff6688" fill-opacity="0.5"/>
  </g>
  <g id="pose2031" transform="translate(445.94,386.04) rotate(69.35)">
    <line x1="0" y1="0" x2="10.00" y2="0" stroke="#ff6688" stroke-width="1.5" stroke-opacity="0.6"/>
    <circle cx="0" cy="0" r="1.5" fill="#ff6688" fill-opacity="0.5"/>
  </g>
  <g id="pose2032" transform="translate(436.39,392.32) rotate(26.43)">
    <line x1="0" y1="0" x2="10.00" y2="0" stroke="#ff6688" stroke-width="1.5" stroke-opacity="0.6"/>
    <circle cx="0" cy="0" r="1.5" fill="#ff6688" fill-opacity="0.5"/>
  </g>
  <g id="pose2033" transform="translate(425.91,392.56) rotate(-20.95)">
    <line x1="0" y1="0" x2="10.00" y2="0" stroke="#ff6688" stroke-width="1.5" stroke-opacity="0.6"/>
    <circle cx="0" cy="0" r="1.5" fill="#ff6688" fill-opacity="0.5"/>
  </g>
  <g id="pose2034" transform="translate(415.88,386.70) rotate(-64.73)">
    <line x1="0" y1="0" x2="10.00" y2="0" stroke="#ff6688" stroke-width="1.5" stroke-opacity="0.6"/>
    <circle cx="0" cy="0" r="1.5" fill="#ff6688" fill-opacity="0.5"/>
  </g>
  <g id="pose2035" transform="translate(407.38,374.53) rotate(-96.85)">
    <line x1="0" y1="0" x2="10.00" y2="0" stroke="#ff6688" stroke-width="1.5" stroke-opacity="0.6"/>
    <circle cx="0" cy="0" r="1.5" fill="#ff6688" fill-opacity="0.5"/>
  </g>
  <g id="pose2036" transform="translate(401.21,354.52) rotate(-110.36)">
    <line x1="0" y1="0" x2="10.00" y2="0" stroke="#ff6688" stroke-width="1.5" stroke-opacity="0.6"/>
    <circle cx="0" cy="0" r="1.5" fill="#ff6688" fill-opacity="0.5"/>
  </g>
  <g id="pose2037" transform="translate(398.39,327.51) rotate(-109.93)">
    <line x1="0" y1="0" x2="10.00" y2="0" stroke="#ff6688" stroke-width="1.5" stroke-opacity="0.6"/>
    <circle cx="0" cy="0" r="1.5" fill="#ff6688" fill-opacity="0.5"/>
  </g>
  <g id="pose2038" transform="translate(398.67,298.15) rotate(-104.31)">
    <line x1="0" y1="0" x2="10.00" y2="0" stroke="#ff6688" stroke-width="1.5" stroke-opacity="0.6"/>
    <circle cx="0" cy="0" r="1.5" fill="#ff6688" fill-opacity="0.5"/>
  </g>
  <g id="pose2039" transform="translate(402.18,258.08) rotate(-96.10)">
    <line x1="0" y1="0" x2="10.00" y2="0" stroke="#ff6688" stroke-width="1.5" stroke-opacity="0.6"/>
    <circle cx="0" cy="0" r="1.5" fill="#ff6688" fill-opacity="0.5"/>
  </g>
  <g id="pose2040" transform="translate(408.91,212.17) rotate(-87.99)">
    <line x1="0" y1="0" x2="10.00" y2="0" stroke="#ff6688" stroke-width="1.5" stroke-opacity="0.6"/>
    <circle cx="0" cy="0" r="1.5" fill="#ff6688" fill-opacity="0.5"/>
  </g>
  <g id="pose2041" transform="translate(413.14,169.64) rotate(-79.40)">
    <line x1="0" y1="0" x2="10.00" y2="0" stroke="#ff6688" stroke-width="1.5" stroke-opacity="0.6"/>
    <circle cx="0" cy="0" r="1.5" fill="#ff6688" fill-opacity="0.5"/>
  </g>
  <g id="pose2042" transform="translate(414.11,133.97) rotate(-71.26)">
    <line x1="0" y1="0" x2="10.00" y2="0" stroke="#ff6688" stroke-width="1.5" stroke-opacity="0.6"/>
    <circle cx="0" cy="0" r="1.5" fill="#ff6688" fill-opacity="0.5"/>
  </g>
  <g id="pose2043" transform="translate(411.99,105.27) rotate(-67.51)">
    <line x1="0" y1="0" x2="10.00" y2="0" stroke="#ff6688" stroke-width="1.5" stroke-opacity="0.6"/>
    <circle cx="0" cy="0" r="1.5" fill="#ff6688" fill-opacity="0.5"/>
  </g>
  <g id="pose2044" transform="translate(406.81,83.55) rotate(-75.03)">
    <line x1="0" y1="0" x2="10.00" y2="0" stroke="#ff6688" stroke-width="1.5" stroke-opacity="0.6"/>
    <circle cx="0" cy="0" r="1.5" fill="#ff6688" fill-opacity="0.5"/>
  </g>
  <g id="pose2045" transform="translate(399.09,69.39) rotate(-102.08)">
    <line x1="0" y1="0" x2="10.00" y2="0" stroke="#ff6688" stroke-width="1.5" stroke-opacity="0.6"/>
    <circle cx="0" cy="0" r="1.5" fill="#ff6688" fill-opacity="0.5"/>
  </g>
  <g id="pose2046" transform="translate(390.10,62.14) rotate(-143.93)">
    <line x1="0" y1="0" x2="10.00" y2="0" stroke="#ff6688" stroke-width="1.5" stroke-opacity="0.6"/>
    <circle cx="0" cy="0" r="1.5" fill="#ff6688" fill-opacity="0.5"/>
  </g>
  <g id="pose2047" transform="translate(381.58,60.44) rotate(173.76)">
    <line x1="0" y1="0" x2="10.00" y2="0" stroke="#ff6688" stroke-width="1.5" stroke-opacity="0.6"/>
    <circle cx="0" cy="0" r="1.5" fill="#ff6688" fill-opacity="0.5"/>
  </g>
  <g id="pose2048" transform="translate(372.19,63.85) rotate(126.78)">
    <line x1="0" y1="0" x2="10.00" y2="0" stroke="#ff6688" stroke-width="1.5" stroke-opacity="0.6"/>
    <circle cx="0" cy="0" r="1.5" fill="#ff6688" fill-opacity="0.5"/>
  </g>
  <g id="pose2049" transform="translate(364.29,72.79) rotate(90.00)">
    <rect x="-20.83" y="-25.00" width="41.66" height="50.00" rx="3" fill="#ff6688" fill-opacity="0.25" stroke="#ff6688" stroke-width="1.2" stroke-opacity="0.7"/>
    <rect x="-16.67" y="-20.83" width="33.33" height="41.66" fill="#ff6688" fill-opacity="0.55" stroke="#ff6688" stroke-width="1.5"/>
    <polygon points="16.67,0 2.08,14.58 2.08,-14.58" fill="#ffffff" fill-opacity="0.9"/>
    <circle cx="0" cy="0" r="3" fill="#ffffff" fill-opacity="0.9"/>
  </g>
  <g id="pose2050" transform="translate(358.06,89.85) rotate(70.04)">
    <line x1="0" y1="0" x2="10.00" y2="0" stroke="#ff6688" stroke-width="1.5" stroke-opacity="0.6"/>
    <circle cx="0" cy="0" r="1.5" fill="#ff6688" fill-opacity="0.5"/>
  </g>
  <g id="pose2051" transform="translate(355.25,113.99) rotate(68.39)">
    <line x1="0" y1="0" x2="10.00" y2="0" stroke="#ff6688" stroke-width="1.5" stroke-opacity="0.6"/>
    <circle cx="0" cy="0" r="1.5" fill="#ff6688" fill-opacity="0.5"/>
  </g>
  <g id="pose2052" transform="translate(355.82,145.21) rotate(75.19)">
    <line x1="0" y1="0" x2="10.00" y2="0" stroke="#ff6688" stroke-width="1.5" stroke-opacity="0.6"/>
    <circle cx="0" cy="0" r="1.5" fill="#ff6688" fill-opacity="0.5"/>
  </g>
  <g id="pose2053" transform="translate(359.65,183.55) rotate(84.03)">
    <line x1="0" y1="0" x2="10.00" y2="0" stroke="#ff6688" stroke-width="1.5" stroke-opacity="0.6"/>
    <circle cx="0" cy="0" r="1.5" fill="#ff6688" fill-opacity="0.5"/>
  </g>
  <g id="pose2054" transform="translate(365.77,230.58) rotate(90.71)">
    <line x1="0" y1="0" x2="10.00" y2="0" stroke="#ff6688" stroke-width="1.5" stroke-opacity="0.6"/>
    <circle cx="0" cy="0" r="1.5" fill="#ff6688" fill-opacity="0.5"/>
  </g>
  <g id="pose2055" transform="translate(368.24,279.50) rotate(92.92)">
    <line x1="0" y1="0" x2="10.00" y2="0" stroke="#ff6688" stroke-width="1.5" stroke-opacity="0.6"/>
    <circle cx="0" cy="0" r="1.5" fill="#ff6688" fill-opacity="0.5"/>
  </g>
  <g id="pose2056" transform="translate(369.62,323.75) rotate(92.97)">
    <line x1="0" y1="0" x2="10.00" y2="0" stroke="#ff6688" stroke-width="1.5" stroke-opacity="0.6"/>
    <circle cx="0" cy="0" r="1.5" fill="#ff6688" fill-opacity="0.5"/>
  </g>
  <g id="pose2057" transform="translate(370.42,355.37) rotate(91.99)">
    <line x1="0" y1="0" x2="10.00" y2="0" stroke="#ff6688" stroke-width="1.5" stroke-opacity="0.6"/>
    <circle cx="0" cy="0" r="1.5" fill="#ff6688" fill-opacity="0.5"/>
  </g>
  <g id="pose2058" transform="translate(370.83,374.34) rotate(90.72)">
    <line x1="0" y1="0" x2="10.00" y2="0" stroke="#ff6688" stroke-width="1.5" stroke-opacity="0.6"/>
    <circle cx="0" cy="0" r="1.5" fill="#ff6688" fill-opacity="0.5"/>
  </g>
  <g id="pose2059" transform="translate(370.95,380.66) rotate(90.00)">
    <rect x="-20.83" y="-25.00" width="41.66" height="50.00" rx="3" fill="#ff6688" fill-opacity="0.25" stroke="#ff6688" stroke-width="1.2" stroke-opacity="0.7"/>
    <rect x="-16.67" y="-20.83" width="33.33" height="41.66" fill="#ff6688" fill-opacity="0.55" stroke="#ff6688" stroke-width="1.5"/>
    <polygon points="16.67,0 2.08,14.58 2.08,-14.58" fill="#ffffff" fill-opacity="0.9"/>
    <circle cx="0" cy="0" r="3" fill="#ffffff" fill-opacity="0.9"/>
  </g>
  <rect x="322.2" y="287.9" width="118.0" height="11" rx="3" fill="#000000" fill-opacity="0.65"/>
  <text x="326.2" y="296.9" font-size="9" fill="#ff6688" font-family="monospace" font-weight="bold">S4: FullPassingPathRight</text>
</svg>