<svg xmlns="http://www.w3.org/2000/svg" width="900" height="442" viewBox="0 0 900 442">
  <rect x="0" y="0" width="900" height="442" fill="#1a1a1a"/>
  <rect x="0" y="0" width="218.7" height="442" fill="#0d1a3a" fill-opacity="0.7"/>
  <text x="109.4" y="14" text-anchor="middle" font-size="10" fill="#4466cc" font-family="sans-serif">BLUE</text>
  <rect x="262.5" y="0" width="386.0" height="442" fill="#111111" fill-opacity="0.7"/>
  <text x="455.5" y="14" text-anchor="middle" font-size="10" fill="#888" font-family="sans-serif">NEUTRAL</text>
  <rect x="686.2" y="0" width="213.8" height="442" fill="#3a0d0d" fill-opacity="0.7"/>
  <text x="793.1" y="14" text-anchor="middle" font-size="10" fill="#cc4444" font-family="sans-serif">RED</text>
  <rect x="0" y="0" width="900" height="442" fill="none" stroke="#888" stroke-width="2"/>
  <line x1="0.0" y1="442" x2="0.0" y2="437" stroke="#555" stroke-width="1"/>
  <text x="0.0" y="435" text-anchor="middle" font-size="7" fill="#666" font-family="monospace">0m</text>
  <line x1="109.4" y1="442" x2="109.4" y2="437" stroke="#555" stroke-width="1"/>
  <text x="109.4" y="435" text-anchor="middle" font-size="7" fill="#666" font-family="monospace">2m</text>
  <line x1="218.7" y1="442" x2="218.7" y2="437" stroke="#555" stroke-width="1"/>
  <text x="218.7" y="435" text-anchor="middle" font-size="7" fill="#666" font-family="monospace">4m</text>
  <line x1="328.1" y1="442" x2="328.1" y2="437" stroke="#555" stroke-width="1"/>
  <text x="328.1" y="435" text-anchor="middle" font-size="7" fill="#666" font-family="monospace">6m</text>
  <line x1="437.4" y1="442" x2="437.4" y2="437" stroke="#555" stroke-width="1"/>
  <text x="437.4" y="435" text-anchor="middle" font-size="7" fill="#666" font-family="monospace">8m</text>
  <line x1="546.8" y1="442" x2="546.8" y2="437" stroke="#555" stroke-width="1"/>
  <text x="546.8" y="435" text-anchor="middle" font-size="7" fill="#666" font-family="monospace">10m</text>
  <line x1="656.1" y1="442" x2="656.1" y2="437" stroke="#555" stroke-width="1"/>
  <text x="656.1" y="435" text-anchor="middle" font-size="7" fill="#666" font-family="monospace">12m</text>
  <line x1="765.5" y1="442" x2="765.5" y2="437" stroke="#555" stroke-width="1"/>
  <text x="765.5" y="435" text-anchor="middle" font-size="7" fill="#666" font-family="monospace">14m</text>
  <line x1="874.8" y1="442" x2="874.8" y2="437" stroke="#555" stroke-width="1"/>
  <text x="874.8" y="435" text-anchor="middle" font-size="7" fill="#666" font-family="monospace">16m</text>
  <line x1="0" y1="442.9" x2="5" y2="442.9" stroke="#555" stroke-width="1"/>
  <text x="7" y="442.9" dominant-baseline="middle" font-size="7" fill="#666" font-family="monospace">0m</text>
  <line x1="0" y1="333.5" x2="5" y2="333.5" stroke="#555" stroke-width="1"/>
  <text x="7" y="333.5" dominant-baseline="middle" font-size="7" fill="#666" font-family="monospace">2m</text>
  <line x1="0" y1="224.2" x2="5" y2="224.2" stroke="#555" stroke-width="1"/>
  <text x="7" y="224.2" dominant-baseline="middle" font-size="7" fill="#666" font-family="monospace">4m</text>
  <line x1="0" y1="114.8" x2="5" y2="114.8" stroke="#555" stroke-width="1"/>
  <text x="7" y="114.8" dominant-baseline="middle" font-size="7" fill="#666" font-family="monospace">6m</text>
  <line x1="0" y1="5.5" x2="5" y2="5.5" stroke="#555" stroke-width="1"/>
  <text x="7" y="5.5" dominant-baseline="middle" font-size="7" fill="#666" font-family="monospace">8m</text>
  <polyline points="263.12,210.34 263.83,211.35 267.53,216.65 271.75,222.71 277.35,230.82 288.30,246.81 297.23,260.07 312.39,284.03 321.19,301.68 326.22,313.45 329.91,322.69 332.31,328.53 334.78,334.08 338.68,341.87 341.45,346.69 345.91,353.37 349.10,357.45 352.46,361.23 358.73,367.06 364.45,371.27 370.47,374.75 379.89,378.57 386.34,380.15 396.07,381.08 402.48,380.73 408.75,379.63 417.76,376.61 423.41,373.71 428.71,370.14 435.92,363.59 440.62,357.86 447.04,346.89 450.33,338.57 452.74,329.54 454.53,314.87 454.39,304.57 453.11,294.07 449.04,278.53 444.99,268.68 437.21,255.17 431.08,247.19 424.95,240.71 415.96,233.23 409.62,229.15 403.11,225.85 393.18,222.36 386.55,221.03 376.77,220.52 370.46,221.15 364.37,222.53 355.77,225.97 350.45,229.14 343.48,234.85 332.39,249.79 327.22,262.18 323.84,281.85 323.76,292.75 324.20,300.97 324.87,308.14 325.04,309.50" fill="none" stroke="#00d4ff" stroke-width="2" stroke-opacity="0.85" stroke-linejoin="round" stroke-linecap="round"/>
  <g id="pose0" transform="translate(263.12,210.34) rotate(45.00)">
    <rect x="-25.00" y="-20.83" width="50.00" height="41.66" rx="3" fill="#00d4ff" fill-opacity="0.25" stroke="#00d4ff" stroke-width="1.2" stroke-opacity="0.7"/>
    <rect x="-20.83" y="-16.67" width="41.66" height="33.33" fill="#00d4ff" fill-opacity="0.55" stroke="#00d4ff" stroke-width="1.5"/>
    <polygon points="20.83,0 9.17,11.67 9.17,-11.67" fill="#ffffff" fill-opacity="0.9"/>
    <circle cx="0" cy="0" r="3" fill="#ffffff" fill-opacity="0.9"/>
  </g>
  <g id="pose1" transform="translate(263.83,211.35) rotate(45.02)">
    <line x1="0" y1="0" x2="12.50" y2="0" stroke="#00d4ff" stroke-width="1.5" stroke-opacity="0.6"/>
    <circle cx="0" cy="0" r="1.5" fill="#00d4ff" fill-opacity="0.5"/>
  </g>
  <g id="pose2" transform="translate(267.53,216.65) rotate(45.16)">
    <line x1="0" y1="0" x2="12.50" y2="0" stroke="#00d4ff" stroke-width="1.5" stroke-opacity="0.6"/>
    <circle cx="0" cy="0" r="1.5" fill="#00d4ff" fill-opacity="0.5"/>
  </g>
  <g id="pose3" transform="translate(271.75,222.71) rotate(45.33)">
    <line x1="0" y1="0" x2="12.50" y2="0" stroke="#00d4ff" stroke-width="1.5" stroke-opacity="0.6"/>
    <circle cx="0" cy="0" r="1.5" fill="#00d4ff" fill-opacity="0.5"/>
  </g>
  <g id="pose4" transform="translate(277.35,230.82) rotate(45.56)">
    <line x1="0" y1="0" x2="12.50" y2="0" stroke="#00d4ff" stroke-width="1.5" stroke-opacity="0.6"/>
    <circle cx="0" cy="0" r="1.5" fill="#00d4ff" fill-opacity="0.5"/>
  </g>
  <g id="pose5" transform="translate(288.30,246.81) rotate(46.00)">
    <line x1="0" y1="0" x2="12.50" y2="0" stroke="#00d4ff" stroke-width="1.5" stroke-opacity="0.6"/>
    <circle cx="0" cy="0" r="1.5" fill="#00d4ff" fill-opacity="0.5"/>
  </g>
  <g id="pose6" transform="translate(297.23,260.07) rotate(46.35)">
    <line x1="0" y1="0" x2="12.50" y2="0" stroke="#00d4ff" stroke-width="1.5" stroke-opacity="0.6"/>
    <circle cx="0" cy="0" r="1.5" fill="#00d4ff" fill-opacity="0.5"/>
  </g>
  <g id="pose7" transform="translate(312.39,284.03) rotate(46.86)">
    <line x1="0" y1="0" x2="12.50" y2="0" stroke="#00d4ff" stroke-width="1.5" stroke-opacity="0.6"/>
    <circle cx="0" cy="0" r="1.5" fill="#00d4ff" fill-opacity="0.5"/>
  </g>
  <g id="pose8" transform="translate(321.19,301.68) rotate(46.43)">
    <line x1="0" y1="0" x2="12.50" y2="0" stroke="#00d4ff" stroke-width="1.5" stroke-opacity="0.6"/>
    <circle cx="0" cy="0" r="1.5" fill="#00d4ff" fill-opacity="0.5"/>
  </g>
  <g id="pose9" transform="translate(326.22,313.45) rotate(44.03)">
    <line x1="0" y1="0" x2="12.50" y2="0" stroke="#00d4ff" stroke-width="1.5" stroke-opacity="0.6"/>
    <circle cx="0" cy="0" r="1.5" fill="#00d4ff" fill-opacity="0.5"/>
  </g>
  <g id="pose10" transform="translate(329.91,322.69) rotate(40.12)">
    <line x1="0" y1="0" x2="12.50" y2="0" stroke="#00d4ff" stroke-width="1.5" stroke-opacity="0.6"/>
    <circle cx="0" cy="0" r="1.5" fill="#00d4ff" fill-opacity="0.5"/>
  </g>
  <g id="pose11" transform="translate(332.31,328.53) rotate(36.67)">
    <line x1="0" y1="0" x2="12.50" y2="0" stroke="#00d4ff" stroke-width="1.5" stroke-opacity="0.6"/>
    <circle cx="0" cy="0" r="1.5" fill="#00d4ff" fill-opacity="0.5"/>
  </g>
  <g id="pose12" transform="translate(334.78,334.08) rotate(32.59)">
    <line x1="0" y1="0" x2="12.50" y2="0" stroke="#00d4ff" stroke-width="1.5" stroke-opacity="0.6"/>
    <circle cx="0" cy="0" r="1.5" fill="#00d4ff" fill-opacity="0.5"/>
  </g>
  <g id="pose13" transform="translate(338.68,341.87) rotate(25.39)">
    <line x1="0" y1="0" x2="12.50" y2="0" stroke="#00d4ff" stroke-width="1.5" stroke-opacity="0.6"/>
    <circle cx="0" cy="0" r="1.5" fill="#00d4ff" fill-opacity="0.5"/>
  </g>
  <g id="pose14" transform="translate(341.45,346.69) rotate(19.93)">
    <line x1="0" y1="0" x2="12.50" y2="0" stroke="#00d4ff" stroke-width="1.5" stroke-opacity="0.6"/>
    <circle cx="0" cy="0" r="1.5" fill="#00d4ff" fill-opacity="0.5"/>
  </g>
  <g id="pose15" transform="translate(345.91,353.37) rotate(10.98)">
    <line x1="0" y1="0" x2="12.50" y2="0" stroke="#00d4ff" stroke-width="1.5" stroke-opacity="0.6"/>
    <circle cx="0" cy="0" r="1.5" fill="#00d4ff" fill-opacity="0.5"/>
  </g>
  <g id="pose16" transform="translate(349.10,357.45) rotate(4.69)">
    <line x1="0" y1="0" x2="12.50" y2="0" stroke="#00d4ff" stroke-width="1.5" stroke-opacity="0.6"/>
    <circle cx="0" cy="0" r="1.5" fill="#00d4ff" fill-opacity="0.5"/>
  </g>
  <g id="pose17" transform="translate(352.46,361.23) rotate(-1.75)">
    <line x1="0" y1="0" x2="12.50" y2="0" stroke="#00d4ff" stroke-width="1.5" stroke-opacity="0.6"/>
    <circle cx="0" cy="0" r="1.5" fill="#00d4ff" fill-opacity="0.5"/>
  </g>
  <g id="pose18" transform="translate(358.73,367.06) rotate(-13.07)">
    <line x1="0" y1="0" x2="12.50" y2="0" stroke="#00d4ff" stroke-width="1.5" stroke-opacity="0.6"/>
    <circle cx="0" cy="0" r="1.5" fill="#00d4ff" fill-opacity="0.5"/>
  </g>
  <g id="pose19" transform="translate(364.45,371.27) rotate(-22.69)">
    <line x1="0" y1="0" x2="12.50" y2="0" stroke="#00d4ff" stroke-width="1.5" stroke-opacity="0.6"/>
    <circle cx="0" cy="0" r="1.5" fill="#00d4ff" fill-opacity="0.5"/>
  </g>
  <g id="pose20" transform="translate(370.47,374.75) rotate(-32.22)">
    <line x1="0" y1="0" x2="12.50" y2="0" stroke="#00d4ff" stroke-width="1.5" stroke-opacity="0.6"/>
    <circle cx="0" cy="0" r="1.5" fill="#00d4ff" fill-opacity="0.5"/>
  </g>
  <g id="pose21" transform="translate(379.89,378.57) rotate(-46.20)">
    <line x1="0" y1="0" x2="12.50" y2="0" stroke="#00d4ff" stroke-width="1.5" stroke-opacity="0.6"/>
    <circle cx="0" cy="0" r="1.5" fill="#00d4ff" fill-opacity="0.5"/>
  </g>
  <g id="pose22" transform="translate(386.34,380.15) rotate(-55.23)">
    <line x1="0" y1="0" x2="12.50" y2="0" stroke="#00d4ff" stroke-width="1.5" stroke-opacity="0.6"/>
    <circle cx="0" cy="0" r="1.5" fill="#00d4ff" fill-opacity="0.5"/>
  </g>
  <g id="pose23" transform="translate(396.07,381.08) rotate(-68.21)">
    <line x1="0" y1="0" x2="12.50" y2="0" stroke="#00d4ff" stroke-width="1.5" stroke-opacity="0.6"/>
    <circle cx="0" cy="0" r="1.5" fill="#00d4ff" fill-opacity="0.5"/>
  </g>
  <g id="pose24" transform="translate(402.48,380.73) rotate(-76.42)">
    <line x1="0" y1="0" x2="12.50" y2="0" stroke="#00d4ff" stroke-width="1.5" stroke-opacity="0.6"/>
    <circle cx="0" cy="0" r="1.5" fill="#00d4ff" fill-opacity="0.5"/>
  </g>
  <g id="pose25" transform="translate(408.75,379.63) rotate(-84.22)">
    <line x1="0" y1="0" x2="12.50" y2="0" stroke="#00d4ff" stroke-width="1.5" stroke-opacity="0.6"/>
    <circle cx="0" cy="0" r="1.5" fill="#00d4ff" fill-opacity="0.5"/>
  </g>
  <g id="pose26" transform="translate(417.76,376.61) rotate(-95.05)">
    <line x1="0" y1="0" x2="12.50" y2="0" stroke="#00d4ff" stroke-width="1.5" stroke-opacity="0.6"/>
    <circle cx="0" cy="0" r="1.5" fill="#00d4ff" fill-opacity="0.5"/>
  </g>
  <g id="pose27" transform="translate(423.41,373.71) rotate(-101.64)">
    <line x1="0" y1="0" x2="12.50" y2="0" stroke="#00d4ff" stroke-width="1.5" stroke-opacity="0.6"/>
    <circle cx="0" cy="0" r="1.5" fill="#00d4ff" fill-opacity="0.5"/>
  </g>
  <g id="pose28" transform="translate(428.71,370.14) rotate(-107.68)">
    <line x1="0" y1="0" x2="12.50" y2="0" stroke="#00d4ff" stroke-width="1.5" stroke-opacity="0.6"/>
    <circle cx="0" cy="0" r="1.5" fill="#00d4ff" fill-opacity="0.5"/>
  </g>
  <g id="pose29" transform="translate(435.92,363.59) rotate(-115.63)">
    <line x1="0" y1="0" x2="12.50" y2="0" stroke="#00d4ff" stroke-width="1.5" stroke-opacity="0.6"/>
    <circle cx="0" cy="0" r="1.5" fill="#00d4ff" fill-opacity="0.5"/>
  </g>
  <g id="pose30" transform="translate(440.62,357.86) rotate(-120.62)">
    <line x1="0" y1="0" x2="12.50" y2="0" stroke="#00d4ff" stroke-width="1.5" stroke-opacity="0.6"/>
    <circle cx="0" cy="0" r="1.5" fill="#00d4ff" fill-opacity="0.5"/>
  </g>
  <g id="pose31" transform="translate(447.04,346.89) rotate(-127.26)">
    <line x1="0" y1="0" x2="12.50" y2="0" stroke="#00d4ff" stroke-width="1.5" stroke-opacity="0.6"/>
    <circle cx="0" cy="0" r="1.5" fill="#00d4ff" fill-opacity="0.5"/>
  </g>
  <g id="pose32" transform="translate(450.33,338.57) rotate(-130.65)">
    <line x1="0" y1="0" x2="12.50" y2="0" stroke="#00d4ff" stroke-width="1.5" stroke-opacity="0.6"/>
    <circle cx="0" cy="0" r="1.5" fill="#00d4ff" fill-opacity="0.5"/>
  </g>
  <g id="pose33" transform="translate(452.74,329.54) rotate(-133.30)">
    <line x1="0" y1="0" x2="12.50" y2="0" stroke="#00d4ff" stroke-width="1.5" stroke-opacity="0.6"/>
    <circle cx="0" cy="0" r="1.5" fill="#00d4ff" fill-opacity="0.5"/>
  </g>
  <g id="pose34" transform="translate(454.53,314.87) rotate(-136.10)">
    <line x1="0" y1="0" x2="12.50" y2="0" stroke="#00d4ff" stroke-width="1.5" stroke-opacity="0.6"/>
    <circle cx="0" cy="0" r="1.5" fill="#00d4ff" fill-opacity="0.5"/>
  </g>
  <g id="pose35" transform="translate(454.39,304.57) rotate(-137.36)">
    <line x1="0" y1="0" x2="12.50" y2="0" stroke="#00d4ff" stroke-width="1.5" stroke-opacity="0.6"/>
    <circle cx="0" cy="0" r="1.5" fill="#00d4ff" fill-opacity="0.5"/>
  </g>
  <g id="pose36" transform="translate(453.11,294.07) rotate(-138.31)">
    <line x1="0" y1="0" x2="12.50" y2="0" stroke="#00d4ff" stroke-width="1.5" stroke-opacity="0.6"/>
    <circle cx="0" cy="0" r="1.5" fill="#00d4ff" fill-opacity="0.5"/>
  </g>
  <g id="pose37" transform="translate(449.04,278.53) rotate(-139.67)">
    <line x1="0" y1="0" x2="12.50" y2="0" stroke="#00d4ff" stroke-width="1.5" stroke-opacity="0.6"/>
    <circle cx="0" cy="0" r="1.5" fill="#00d4ff" fill-opacity="0.5"/>
  </g>
  <g id="pose38" transform="translate(444.99,268.68) rotate(-141.00)">
    <line x1="0" y1="0" x2="12.50" y2="0" stroke="#00d4ff" stroke-width="1.5" stroke-opacity="0.6"/>
    <circle cx="0" cy="0" r="1.5" fill="#00d4ff" fill-opacity="0.5"/>
  </g>
  <g id="pose39" transform="translate(437.21,255.17) rotate(-144.44)">
    <line x1="0" y1="0" x2="12.50" y2="0" stroke="#00d4ff" stroke-width="1.5" stroke-opacity="0.6"/>
    <circle cx="0" cy="0" r="1.5" fill="#00d4ff" fill-opacity="0.5"/>
  </g>
  <g id="pose40" transform="translate(431.08,247.19) rotate(-148.09)">
    <line x1="0" y1="0" x2="12.50" y2="0" stroke="#00d4ff" stroke-width="1.5" stroke-opacity="0.6"/>
    <circle cx="0" cy="0" r="1.5" fill="#00d4ff" fill-opacity="0.5"/>
  </g>
  <g id="pose41" transform="translate(424.95,240.71) rotate(-152.58)">
    <line x1="0" y1="0" x2="12.50" y2="0" stroke="#00d4ff" stroke-width="1.5" stroke-opacity="0.6"/>
    <circle cx="0" cy="0" r="1.5" fill="#00d4ff" fill-opacity="0.5"/>
  </g>
  <g id="pose42" transform="translate(415.96,233.23) rotate(-160.29)">
    <line x1="0" y1="0" x2="12.50" y2="0" stroke="#00d4ff" stroke-width="1.5" stroke-opacity="0.6"/>
    <circle cx="0" cy="0" r="1.5" fill="#00d4ff" fill-opacity="0.5"/>
  </g>
  <g id="pose43" transform="translate(409.62,229.15) rotate(-166.21)">
    <line x1="0" y1="0" x2="12.50" y2="0" stroke="#00d4ff" stroke-width="1.5" stroke-opacity="0.6"/>
    <circle cx="0" cy="0" r="1.5" fill="#00d4ff" fill-opacity="0.5"/>
  </g>
  <g id="pose44" transform="translate(403.11,225.85) rotate(-172.56)">
    <line x1="0" y1="0" x2="12.50" y2="0" stroke="#00d4ff" stroke-width="1.5" stroke-opacity="0.6"/>
    <circle cx="0" cy="0" r="1.5" fill="#00d4ff" fill-opacity="0.5"/>
  </g>
  <g id="pose45" transform="translate(393.18,222.36) rotate(177.45)">
    <line x1="0" y1="0" x2="12.50" y2="0" stroke="#00d4ff" stroke-width="1.5" stroke-opacity="0.6"/>
    <circle cx="0" cy="0" r="1.5" fill="#00d4ff" fill-opacity="0.5"/>
  </g>
  <g id="pose46" transform="translate(386.55,221.03) rotate(170.68)">
    <line x1="0" y1="0" x2="12.50" y2="0" stroke="#00d4ff" stroke-width="1.5" stroke-opacity="0.6"/>
    <circle cx="0" cy="0" r="1.5" fill="#00d4ff" fill-opacity="0.5"/>
  </g>
  <g id="pose47" transform="translate(376.77,220.52) rotate(160.73)">
    <line x1="0" y1="0" x2="12.50" y2="0" stroke="#00d4ff" stroke-width="1.5" stroke-opacity="0.6"/>
    <circle cx="0" cy="0" r="1.5" fill="#00d4ff" fill-opacity="0.5"/>
  </g>
  <g id="pose48" transform="translate(370.46,221.15) rotate(154.40)">
    <line x1="0" y1="0" x2="12.50" y2="0" stroke="#00d4ff" stroke-width="1.5" stroke-opacity="0.6"/>
    <circle cx="0" cy="0" r="1.5" fill="#00d4ff" fill-opacity="0.5"/>
  </g>
  <g id="pose49" transform="translate(364.37,222.53) rotate(148.46)">
    <line x1="0" y1="0" x2="12.50" y2="0" stroke="#00d4ff" stroke-width="1.5" stroke-opacity="0.6"/>
    <circle cx="0" cy="0" r="1.5" fill="#00d4ff" fill-opacity="0.5"/>
  </g>
  <g id="pose50" transform="translate(355.77,225.97) rotate(140.47)">
    <line x1="0" y1="0" x2="12.50" y2="0" stroke="#00d4ff" stroke-width="1.5" stroke-opacity="0.6"/>
    <circle cx="0" cy="0" r="1.5" fill="#00d4ff" fill-opacity="0.5"/>
  </g>
  <g id="pose51" transform="translate(350.45,229.14) rotate(135.89)">
    <line x1="0" y1="0" x2="12.50" y2="0" stroke="#00d4ff" stroke-width="1.5" stroke-opacity="0.6"/>
    <circle cx="0" cy="0" r="1.5" fill="#00d4ff" fill-opacity="0.5"/>
  </g>
  <g id="pose52" transform="translate(343.48,234.85) rotate(130.37)">
    <line x1="0" y1="0" x2="12.50" y2="0" stroke="#00d4ff" stroke-width="1.5" stroke-opacity="0.6"/>
    <circle cx="0" cy="0" r="1.5" fill="#00d4ff" fill-opacity="0.5"/>
  </g>
  <g id="pose53" transform="translate(332.39,249.79) rotate(123.49)">
    <line x1="0" y1="0" x2="12.50" y2="0" stroke="#00d4ff" stroke-width="1.5" stroke-opacity="0.6"/>
    <circle cx="0" cy="0" r="1.5" fill="#00d4ff" fill-opacity="0.5"/>
  </g>
  <g id="pose54" transform="translate(327.22,262.18) rotate(122.08)">
    <line x1="0" y1="0" x2="12.50" y2="0" stroke="#00d4ff" stroke-width="1.5" stroke-opacity="0.6"/>
    <circle cx="0" cy="0" r="1.5" fill="#00d4ff" fill-opacity="0.5"/>
  </g>
  <g id="pose55" transform="translate(323.84,281.85) rotate(125.15)">
    <line x1="0" y1="0" x2="12.50" y2="0" stroke="#00d4ff" stroke-width="1.5" stroke-opacity="0.6"/>
    <circle cx="0" cy="0" r="1.5" fill="#00d4ff" fill-opacity="0.5"/>
  </g>
  <g id="pose56" transform="translate(323.76,292.75) rotate(128.57)">
    <line x1="0" y1="0" x2="12.50" y2="0" stroke="#00d4ff" stroke-width="1.5" stroke-opacity="0.6"/>
    <circle cx="0" cy="0" r="1.5" fill="#00d4ff" fill-opacity="0.5"/>
  </g>
  <g id="pose57" transform="translate(324.20,300.97) rotate(131.71)">
    <line x1="0" y1="0" x2="12.50" y2="0" stroke="#00d4ff" stroke-width="1.5" stroke-opacity="0.6"/>
    <circle cx="0" cy="0" r="1.5" fill="#00d4ff" fill-opacity="0.5"/>
  </g>
  <g id="pose58" transform="translate(324.87,308.14) rotate(134.98)">
    <line x1="0" y1="0" x2="12.50" y2="0" stroke="#00d4ff" stroke-width="1.5" stroke-opacity="0.6"/>
    <circle cx="0" cy="0" r="1.5" fill="#00d4ff" fill-opacity="0.5"/>
  </g>
  <g id="pose59" transform="translate(325.04,309.50) rotate(135.86)">
    <line x1="0" y1="0" x2="12.50" y2="0" stroke="#00d4ff" stroke-width="1.5" stroke-opacity="0.6"/>
    <circle cx="0" cy="0" r="1.5" fill="#00d4ff" fill-opacity="0.5"/>
  </g>
  <rect x="265.1" y="193.3" width="79.5" height="11" rx="3" fill="#000000" fill-opacity="0.65"/>
  <text x="269.1" y="202.3" font-size="9" fill="#00d4ff" font-family="monospace" font-weight="bold">S2: BlueMRDrop3_A</text>
</svg>