<svg xmlns="http://www.w3.org/2000/svg" width="900" height="442" viewBox="0 0 900 442">
  <rect x="0" y="0" width="900" height="442" fill="#1a1a1a"/>
  <rect x="0" y="0" width="218.7" height="442" fill="#0d1a3a" fill-opacity="0.7"/>
  <text x="109.4" y="14" text-anchor="middle" font-size="10" fill="#4466cc" font-family="sans-serif">BLUE</text>
  <rect x="262.5" y="0" width="386.0" height="442" fill="#111111" fill-opacity="0.7"/>
  <text x="455.5" y="14" text-anchor="middle" font-size="10" fill="#888" font-family="sans-serif">NEUTRAL</text>
  <rect x="686.2" y="0" width="213.8" height="442" fill="#3a0d0d" fill-opacity="0.7"/>
  <text x="793.1" y="14" text-anchor="middle" font-size="10" fill="#cc4444" font-family="sans-serif">RED</text>
  <rect x="0" y="0" width="900" height="442" fill="none" stroke="#888" stroke-width="2"/>
  <line x1="0.0" y1="442" x2="0.0" y2="437" stroke="#555" stroke-width="1"/>
  <text x="0.0" y="435" text-anchor="middle" font-size="7" fill="#666" font-family="monospace">0m</text>
  <line x1="109.4" y1="442" x2="109.4" y2="437" stroke="#555" stroke-width="1"/>
  <text x="109.4" y="435" text-anchor="middle" font-size="7" fill="#666" font-family="monospace">2m</text>
  <line x1="218.7" y1="442" x2="218.7" y2="437" stroke="#555" stroke-width="1"/>
  <text x="218.7" y="435" text-anchor="middle" font-size="7" fill="#666" font-family="monospace">4m</text>
  <line x1="328.1" y1="442" x2="328.1" y2="437" stroke="#555" stroke-width="1"/>
  <text x="328.1" y="435" text-anchor="middle" font-size="7" fill="#666" font-family="monospace">6m</text>
  <line x1="437.4" y1="442" x2="437.4" y2="437" stroke="#555" stroke-width="1"/>
  <text x="437.4" y="435" text-anchor="middle" font-size="7" fill="#666" font-family="monospace">8m</text>
  <line x1="546.8" y1="442" x2="546.8" y2="437" stroke="#555" stroke-width="1"/>
  <text x="546.8" y="435" text-anchor="middle" font-size="7" fill="#666" font-family="monospace">10m</text>
  <line x1="656.1" y1="442" x2="656.1" y2="437" stroke="#555" stroke-width="1"/>
  <text x="656.1" y="435" text-anchor="middle" font-size="7" fill="#666" font-family="monospace">12m</text>
  <line x1="765.5" y1="442" x2="765.5" y2="437" stroke="#555" stroke-width="1"/>
  <text x="765.5" y="435" text-anchor="middle" font-size="7" fill="#666" font-family="monospace">14m</text>
  <line x1="874.8" y1="442" x2="874.8" y2="437" stroke="#555" stroke-width="1"/>
  <text x="874.8" y="435" text-anchor="middle" font-size="7" fill="#666" font-family="monospace">16m</text>
  <line x1="0" y1="442.9" x2="5" y2="442.9" stroke="#555" stroke-width="1"/>
  <text x="7" y="442.9" dominant-baseline="middle" font-size="7" fill="#666" font-family="monospace">0m</text>
  <line x1="0" y1="333.5" x2="5" y2="333.5" stroke="#555" stroke-width="1"/>
  <text x="7" y="333.5" dominant-baseline="middle" font-size="7" fill="#666" font-family="monospace">2m</text>
  <line x1="0" y1="224.2" x2="5" y2="224.2" stroke="#555" stroke-width="1"/>
  <text x="7" y="224.2" dominant-baseline="middle" font-size="7" fill="#666" font-family="monospace">4m</text>
  <line x1="0" y1="114.8" x2="5" y2="114.8" stroke="#555" stroke-width="1"/>
  <text x="7" y="114.8" dominant-baseline="middle" font-size="7" fill="#666" font-family="monospace">6m</text>
  <line x1="0" y1="5.5" x2="5" y2="5.5" stroke="#555" stroke-width="1"/>
  <text x="7" y="5.5" dominant-baseline="middle" font-size="7" fill="#666" font-family="monospace">8m</text>
  <rect x="220.8" y="254.3" width="61.1" height="100.6" fill="none" stroke="#4d7dff" stroke-width="1.6" stroke-dasharray="4 3" stroke-opacity="0.85"/>
  <text x="224.8" y="263.3" text-anchor="start" font-size="8" fill="#9bb6ff" font-family="monospace">BumpDepotElement</text>
  <rect x="220.8" y="88.0" width="61.1" height="100.6" fill="none" stroke="#4d7dff" stroke-width="1.6" stroke-dasharray="4 3" stroke-opacity="0.85"/>
  <text x="224.8" y="97.0" text-anchor="start" font-size="8" fill="#9bb6ff" font-family="monospace">BumpOutpostElement</text>
  <rect x="218.7" y="189.0" width="65.3" height="65.3" fill="none" stroke="#4d7dff" stroke-width="1.6" stroke-dasharray="4 3" stroke-opacity="0.85"/>
  <text x="222.7" y="198.0" text-anchor="start" font-size="8" fill="#9bb6ff" font-family="monospace">HubElement</text>
  <rect x="218.7" y="354.9" width="65.3" height="17.0" fill="none" stroke="#4d7dff" stroke-width="1.6" stroke-dasharray="4 3" stroke-opacity="0.85"/>
  <text x="222.7" y="363.9" text-anchor="start" font-size="8" fill="#9bb6ff" font-family="monospace">TrenchADepotElement</text>
  <rect x="218.7" y="71.1" width="65.3" height="17.0" fill="none" stroke="#4d7dff" stroke-width="1.6" stroke-dasharray="4 3" stroke-opacity="0.85"/>
  <text x="222.7" y="80.1" text-anchor="start" font-size="8" fill="#9bb6ff" font-family="monospace">TrenchAOutpostElement</text>
  <polyline points="318.11,305.37 318.37,305.04 319.51,303.56 320.96,301.68 322.92,299.14 326.33,294.72 329.49,290.63 334.50,284.15 338.86,278.51 343.74,272.22 351.05,262.81 357.14,255.00 363.80,246.58 371.75,236.92 375.17,232.87 379.58,227.80 382.80,224.26 385.95,220.96 390.07,216.91 393.09,214.15 396.07,211.63 399.96,208.62 402.82,206.64 406.57,204.37 410.09,202.58 413.53,201.18 417.97,199.90 421.16,199.37 424.22,199.23 428.09,199.60 430.81,200.31 434.20,201.81 436.54,203.35 439.25,205.80 442.72,210.43 444.91,214.71 446.76,219.66 448.68,227.34 449.72,233.89 450.58,243.70 450.83,251.86 450.74,260.71 450.11,273.59 449.27,284.06 448.14,295.24 446.67,311.03 446.08,322.23 445.61,336.07 445.40,345.59 445.25,354.38 445.13,364.94 445.08,371.99 445.06,378.31 445.05,385.57 445.06,390.15 445.07,395.10 445.09,397.95 445.10,400.06 445.11,401.71 445.12,402.08" fill="none" stroke="#ff6688" stroke-width="2" stroke-opacity="0.85" stroke-linejoin="round" stroke-linecap="round"/>
  <g id="pose2000" transform="translate(318.11,305.37) rotate(-0.00)">
    <rect x="-20.83" y="-25.00" width="41.66" height="50.00" rx="3" fill="#ff6688" fill-opacity="0.25" stroke="#ff6688" stroke-width="1.2" stroke-opacity="0.7"/>
    <rect x="-16.67" y="-20.83" width="33.33" height="41.66" fill="#ff6688" fill-opacity="0.55" stroke="#ff6688" stroke-width="1.5"/>
    <polygon points="16.67,0 2.08,14.58 2.08,-14.58" fill="#ffffff" fill-opacity="0.9"/>
    <circle cx="0" cy="0" r="3" fill="#ffffff" fill-opacity="0.9"/>
  </g>
  <g id="pose2001" transform="translate(318.37,305.04) rotate(-0.63)">
    <rect x="-20.83" y="-25.00" width="41.66" height="50.00" rx="3" fill="#ff6688" fill-opacity="0.25" stroke="#ff6688" stroke-width="1.2" stroke-opacity="0.7"/>
    <rect x="-16.67" y="-20.83" width="33.33" height="41.66" fill="#ff6688" fill-opacity="0.55" stroke="#ff6688" stroke-width="1.5"/>
    <polygon points="16.67,0 2.08,14.58 2.08,-14.58" fill="#ffffff" fill-opacity="0.9"/>
    <circle cx="0" cy="0" r="3" fill="#ffffff" fill-opacity="0.9"/>
  </g>
  <g id="pose2002" transform="translate(319.51,303.56) rotate(-3.87)">
    <line x1="0" y1="0" x2="10.00" y2="0" stroke="#ff6688" stroke-width="1.5" stroke-opacity="0.6"/>
    <circle cx="0" cy="0" r="1.5" fill="#ff6688" fill-opacity="0.5"/>
  </g>
  <g id="pose2003" transform="translate(320.96,301.68) rotate(-7.60)">
    <line x1="0" y1="0" x2="10.00" y2="0" stroke="#ff6688" stroke-width="1.5" stroke-opacity="0.6"/>
    <circle cx="0" cy="0" r="1.5" fill="#ff6688" fill-opacity="0.5"/>
  </g>
  <g id="pose2004" transform="translate(322.92,299.14) rotate(-12.07)">
    <line x1="0" y1="0" x2="10.00" y2="0" stroke="#ff6688" stroke-width="1.5" stroke-opacity="0.6"/>
    <circle cx="0" cy="0" r="1.5" fill="#ff6688" fill-opacity="0.5"/>
  </g>
  <g id="pose2005" transform="translate(326.33,294.72) rotate(-18.74)">
    <line x1="0" y1="0" x2="10.00" y2="0" stroke="#ff6688" stroke-width="1.5" stroke-opacity="0.6"/>
    <circle cx="0" cy="0" r="1.5" fill="#ff6688" fill-opacity="0.5"/>
  </g>
  <g id="pose2006" transform="translate(329.49,290.63) rotate(-23.96)">
    <line x1="0" y1="0" x2="10.00" y2="0" stroke="#ff6688" stroke-width="1.5" stroke-opacity="0.6"/>
    <circle cx="0" cy="0" r="1.5" fill="#ff6688" fill-opacity="0.5"/>
  </g>
  <g id="pose2007" transform="translate(334.50,284.15) rotate(-30.80)">
    <line x1="0" y1="0" x2="10.00" y2="0" stroke="#ff6688" stroke-width="1.5" stroke-opacity="0.6"/>
    <circle cx="0" cy="0" r="1.5" fill="#ff6688" fill-opacity="0.5"/>
  </g>
  <g id="pose2008" transform="translate(338.86,278.51) rotate(-35.58)">
    <line x1="0" y1="0" x2="10.00" y2="0" stroke="#ff6688" stroke-width="1.5" stroke-opacity="0.6"/>
    <circle cx="0" cy="0" r="1.5" fill="#ff6688" fill-opacity="0.5"/>
  </g>
  <g id="pose2009" transform="translate(343.74,272.22) rotate(-39.82)">
    <line x1="0" y1="0" x2="10.00" y2="0" stroke="#ff6688" stroke-width="1.5" stroke-opacity="0.6"/>
    <circle cx="0" cy="0" r="1.5" fill="#ff6688" fill-opacity="0.5"/>
  </g>
  <g id="pose2010" transform="translate(351.05,262.81) rotate(-44.21)">
    <line x1="0" y1="0" x2="10.00" y2="0" stroke="#ff6688" stroke-width="1.5" stroke-opacity="0.6"/>
    <circle cx="0" cy="0" r="1.5" fill="#ff6688" fill-opacity="0.5"/>
  </g>
  <g id="pose2011" transform="translate(357.14,255.00) rotate(-46.18)">
    <line x1="0" y1="0" x2="10.00" y2="0" stroke="#ff6688" stroke-width="1.5" stroke-opacity="0.6"/>
    <circle cx="0" cy="0" r="1.5" fill="#ff6688" fill-opacity="0.5"/>
  </g>
  <g id="pose2012" transform="translate(363.80,246.58) rotate(-46.62)">
    <line x1="0" y1="0" x2="10.00" y2="0" stroke="#ff6688" stroke-width="1.5" stroke-opacity="0.6"/>
    <circle cx="0" cy="0" r="1.5" fill="#ff6688" fill-opacity="0.5"/>
  </g>
  <g id="pose2013" transform="translate(371.75,236.92) rotate(-44.41)">
    <line x1="0" y1="0" x2="10.00" y2="0" stroke="#ff6688" stroke-width="1.5" stroke-opacity="0.6"/>
    <circle cx="0" cy="0" r="1.5" fill="#ff6688" fill-opacity="0.5"/>
  </g>
  <g id="pose2014" transform="translate(375.17,232.87) rotate(-42.35)">
    <line x1="0" y1="0" x2="10.00" y2="0" stroke="#ff6688" stroke-width="1.5" stroke-opacity="0.6"/>
    <circle cx="0" cy="0" r="1.5" fill="#ff6688" fill-opacity="0.5"/>
  </g>
  <g id="pose2015" transform="translate(379.58,227.80) rotate(-39.01)">
    <line x1="0" y1="0" x2="10.00" y2="0" stroke="#ff6688" stroke-width="1.5" stroke-opacity="0.6"/>
    <circle cx="0" cy="0" r="1.5" fill="#ff6688" fill-opacity="0.5"/>
  </g>
  <g id="pose2016" transform="translate(382.80,224.26) rotate(-36.10)">
    <line x1="0" y1="0" x2="10.00" y2="0" stroke="#ff6688" stroke-width="1.5" stroke-opacity="0.6"/>
    <circle cx="0" cy="0" r="1.5" fill="#ff6688" fill-opacity="0.5"/>
  </g>
  <g id="pose2017" transform="translate(385.95,220.96) rotate(-32.87)">
    <line x1="0" y1="0" x2="10.00" y2="0" stroke="#ff6688" stroke-width="1.5" stroke-opacity="0.6"/>
    <circle cx="0" cy="0" r="1.5" fill="#ff6688" fill-opacity="0.5"/>
  </g>
  <g id="pose2018" transform="translate(390.07,216.91) rotate(-28.10)">
    <line x1="0" y1="0" x2="10.00" y2="0" stroke="#ff6688" stroke-width="1.5" stroke-opacity="0.6"/>
    <circle cx="0" cy="0" r="1.5" fill="#ff6688" fill-opacity="0.5"/>
  </g>
  <g id="pose2019" transform="translate(393.09,214.15) rotate(-24.19)">
    <line x1="0" y1="0" x2="10.00" y2="0" stroke="#ff6688" stroke-width="1.5" stroke-opacity="0.6"/>
    <circle cx="0" cy="0" r="1.5" fill="#ff6688" fill-opacity="0.5"/>
  </g>
  <g id="pose2020" transform="translate(396.07,211.63) rotate(-19.99)">
    <line x1="0" y1="0" x2="10.00" y2="0" stroke="#ff6688" stroke-width="1.5" stroke-opacity="0.6"/>
    <circle cx="0" cy="0" r="1.5" fill="#ff6688" fill-opacity="0.5"/>
  </g>
  <g id="pose2021" transform="translate(399.96,208.62) rotate(-13.98)">
    <line x1="0" y1="0" x2="10.00" y2="0" stroke="#ff6688" stroke-width="1.5" stroke-opacity="0.6"/>
    <circle cx="0" cy="0" r="1.5" fill="#ff6688" fill-opacity="0.5"/>
  </g>
  <g id="pose2022" transform="translate(402.82,206.64) rotate(-9.13)">
    <line x1="0" y1="0" x2="10.00" y2="0" stroke="#ff6688" stroke-width="1.5" stroke-opacity="0.6"/>
    <circle cx="0" cy="0" r="1.5" fill="#ff6688" fill-opacity="0.5"/>
  </g>
  <g id="pose2023" transform="translate(406.57,204.37) rotate(-2.20)">
    <rect x="-20.83" y="-25.00" width="41.66" height="50.00" rx="3" fill="#ff6688" fill-opacity="0.25" stroke="#ff6688" stroke-width="1.2" stroke-opacity="0.7"/>
    <rect x="-16.67" y="-20.83" width="33.33" height="41.66" fill="#ff6688" fill-opacity="0.55" stroke="#ff6688" stroke-width="1.5"/>
    <polygon points="16.67,0 2.08,14.58 2.08,-14.58" fill="#ffffff" fill-opacity="0.9"/>
    <circle cx="0" cy="0" r="3" fill="#ffffff" fill-opacity="0.9"/>
  </g>
  <g id="pose2024" transform="translate(410.09,202.58) rotate(4.99)">
    <line x1="0" y1="0" x2="10.00" y2="0" stroke="#ff6688" stroke-width="1.5" stroke-opacity="0.6"/>
    <circle cx="0" cy="0" r="1.5" fill="#ff6688" fill-opacity="0.5"/>
  </g>
  <g id="pose2025" transform="translate(413.53,201.18) rotate(12.68)">
    <line x1="0" y1="0" x2="10.00" y2="0" stroke="#ff6688" stroke-width="1.5" stroke-opacity="0.6"/>
    <circle cx="0" cy="0" r="1.5" fill="#ff6688" fill-opacity="0.5"/>
  </g>
  <g id="pose2026" transform="translate(417.97,199.90) rotate(23.44)">
    <line x1="0" y1="0" x2="10.00" y2="0" stroke="#ff6688" stroke-width="1.5" stroke-opacity="0.6"/>
    <circle cx="0" cy="0" r="1.5" fill="#ff6688" fill-opacity="0.5"/>
  </g>
  <g id="pose2027" transform="translate(421.16,199.37) rotate(31.73)">
    <line x1="0" y1="0" x2="10.00" y2="0" stroke="#ff6688" stroke-width="1.5" stroke-opacity="0.6"/>
    <circle cx="0" cy="0" r="1.5" fill="#ff6688" fill-opacity="0.5"/>
  </g>
  <g id="pose2028" transform="translate(424.22,199.23) rotate(40.05)">
    <line x1="0" y1="0" x2="10.00" y2="0" stroke="#ff6688" stroke-width="1.5" stroke-opacity="0.6"/>
    <circle cx="0" cy="0" r="1.5" fill="#ff6688" fill-opacity="0.5"/>
  </g>
  <g id="pose2029" transform="translate(428.09,199.60) rotate(50.97)">
    <line x1="0" y1="0" x2="10.00" y2="0" stroke="#ff6688" stroke-width="1.5" stroke-opacity="0.6"/>
    <circle cx="0" cy="0" r="1.5" fill="#ff6688" fill-opacity="0.5"/>
  </g>
  <g id="pose2030" transform="translate(430.81,200.31) rotate(58.87)">
    <line x1="0" y1="0" x2="10.00" y2="0" stroke="#ff6688" stroke-width="1.5" stroke-opacity="0.6"/>
    <circle cx="0" cy="0" r="1.5" fill="#ff6688" fill-opacity="0.5"/>
  </g>
  <g id="pose2031" transform="translate(434.20,201.81) rotate(68.73)">
    <line x1="0" y1="0" x2="10.00" y2="0" stroke="#ff6688" stroke-width="1.5" stroke-opacity="0.6"/>
    <circle cx="0" cy="0" r="1.5" fill="#ff6688" fill-opacity="0.5"/>
  </g>
  <g id="pose2032" transform="translate(436.54,203.35) rotate(75.41)">
    <line x1="0" y1="0" x2="10.00" y2="0" stroke="#ff6688" stroke-width="1.5" stroke-opacity="0.6"/>
    <circle cx="0" cy="0" r="1.5" fill="#ff6688" fill-opacity="0.5"/>
  </g>
  <g id="pose2033" transform="translate(439.25,205.80) rotate(82.72)">
    <line x1="0" y1="0" x2="10.00" y2="0" stroke="#ff6688" stroke-width="1.5" stroke-opacity="0.6"/>
    <circle cx="0" cy="0" r="1.5" fill="#ff6688" fill-opacity="0.5"/>
  </g>
  <g id="pose2034" transform="translate(442.72,210.43) rotate(90.74)">
    <line x1="0" y1="0" x2="10.00" y2="0" stroke="#ff6688" stroke-width="1.5" stroke-opacity="0.6"/>
    <circle cx="0" cy="0" r="1.5" fill="#ff6688" fill-opacity="0.5"/>
  </g>
  <g id="pose2035" transform="translate(444.91,214.71) rotate(94.99)">
    <line x1="0" y1="0" x2="10.00" y2="0" stroke="#ff6688" stroke-width="1.5" stroke-opacity="0.6"/>
    <circle cx="0" cy="0" r="1.5" fill="#ff6688" fill-opacity="0.5"/>
  </g>
  <g id="pose2036" transform="translate(446.76,219.66) rotate(98.05)">
    <line x1="0" y1="0" x2="10.00" y2="0" stroke="#ff6688" stroke-width="1.5" stroke-opacity="0.6"/>
    <circle cx="0" cy="0" r="1.5" fill="#ff6688" fill-opacity="0.5"/>
  </g>
  <g id="pose2037" transform="translate(448.68,227.34) rotate(100.60)">
    <line x1="0" y1="0" x2="10.00" y2="0" stroke="#ff6688" stroke-width="1.5" stroke-opacity="0.6"/>
    <circle cx="0" cy="0" r="1.5" fill="#ff6688" fill-opacity="0.5"/>
  </g>
  <g id="pose2038" transform="translate(449.72,233.89) rotate(101.56)">
    <line x1="0" y1="0" x2="10.00" y2="0" stroke="#ff6688" stroke-width="1.5" stroke-opacity="0.6"/>
    <circle cx="0" cy="0" r="1.5" fill="#ff6688" fill-opacity="0.5"/>
  </g>
  <g id="pose2039" transform="translate(450.58,243.70) rotate(101.76)">
    <line x1="0" y1="0" x2="10.00" y2="0" stroke="#ff6688" stroke-width="1.5" stroke-opacity="0.6"/>
    <circle cx="0" cy="0" r="1.5" fill="#ff6688" fill-opacity="0.5"/>
  </g>
  <g id="pose2040" transform="translate(450.83,251.86) rotate(101.20)">
    <line x1="0" y1="0" x2="10.00" y2="0" stroke="#ff6688" stroke-width="1.5" stroke-opacity="0.6"/>
    <circle cx="0" cy="0" r="1.5" fill="#ff6688" fill-opacity="0.5"/>
  </g>
  <g id="pose2041" transform="translate(450.74,260.71) rotate(100.05)">
    <line x1="0" y1="0" x2="10.00" y2="0" stroke="#ff6688" stroke-width="1.5" stroke-opacity="0.6"/>
    <circle cx="0" cy="0" r="1.5" fill="#ff6688" fill-opacity="0.5"/>
  </g>
  <g id="pose2042" transform="translate(450.11,273.59) rotate(97.63)">
    <line x1="0" y1="0" x2="10.00" y2="0" stroke="#ff6688" stroke-width="1.5" stroke-opacity="0.6"/>
    <circle cx="0" cy="0" r="1.5" fill="#ff6688" fill-opacity="0.5"/>
  </g>
  <g id="pose2043" transform="translate(449.27,284.06) rotate(95.10)">
    <line x1="0" y1="0" x2="10.00" y2="0" stroke="#ff6688" stroke-width="1.5" stroke-opacity="0.6"/>
    <circle cx="0" cy="0" r="1.5" fill="#ff6688" fill-opacity="0.5"/>
  </g>
  <g id="pose2044" transform="translate(448.14,295.24) rotate(91.89)">
    <line x1="0" y1="0" x2="10.00" y2="0" stroke="#ff6688" stroke-width="1.5" stroke-opacity="0.6"/>
    <circle cx="0" cy="0" r="1.5" fill="#ff6688" fill-opacity="0.5"/>
  </g>
  <g id="pose2045" transform="translate(446.67,311.03) rotate(86.33)">
    <rect x="-20.83" y="-25.00" width="41.66" height="50.00" rx="3" fill="#ff6688" fill-opacity="0.25" stroke="#ff6688" stroke-width="1.2" stroke-opacity="0.7"/>
    <rect x="-16.67" y="-20.83" width="33.33" height="41.66" fill="#ff6688" fill-opacity="0.55" stroke="#ff6688" stroke-width="1.5"/>
    <polygon points="16.67,0 2.08,14.58 2.08,-14.58" fill="#ffffff" fill-opacity="0.9"/>
    <circle cx="0" cy="0" r="3" fill="#ffffff" fill-opacity="0.9"/>
  </g>
  <g id="pose2046" transform="translate(446.08,322.23) rotate(81.26)">
    <line x1="0" y1="0" x2="10.00" y2="0" stroke="#ff6688" stroke-width="1.5" stroke-opacity="0.6"/>
    <circle cx="0" cy="0" r="1.5" fill="#ff6688" fill-opacity="0.5"/>
  </g>
  <g id="pose2047" transform="translate(445.61,336.07) rotate(73.56)">
    <line x1="0" y1="0" x2="10.00" y2="0" stroke="#ff6688" stroke-width="1.5" stroke-opacity="0.6"/>
    <circle cx="0" cy="0" r="1.5" fill="#ff6688" fill-opacity="0.5"/>
  </g>
  <g id="pose2048" transform="translate(445.40,345.59) rotate(67.28)">
    <line x1="0" y1="0" x2="10.00" y2="0" stroke="#ff6688" stroke-width="1.5" stroke-opacity="0.6"/>
    <circle cx="0" cy="0" r="1.5" fill="#ff6688" fill-opacity="0.5"/>
  </g>
  <g id="pose2049" transform="translate(445.25,354.38) rotate(60.70)">
    <line x1="0" y1="0" x2="10.00" y2="0" stroke="#ff6688" stroke-width="1.5" stroke-opacity="0.6"/>
    <circle cx="0" cy="0" r="1.5" fill="#ff6688" fill-opacity="0.5"/>
  </g>
  <g id="pose2050" transform="translate(445.13,364.94) rotate(51.65)">
    <line x1="0" y1="0" x2="10.00" y2="0" stroke="#ff6688" stroke-width="1.5" stroke-opacity="0.6"/>
    <circle cx="0" cy="0" r="1.5" fill="#ff6688" fill-opacity="0.5"/>
  </g>
  <g id="pose2051" transform="translate(445.08,371.99) rotate(44.77)">
    <line x1="0" y1="0" x2="10.00" y2="0" stroke="#ff6688" stroke-width="1.5" stroke-opacity="0.6"/>
    <circle cx="0" cy="0" r="1.5" fill="#ff6688" fill-opacity="0.5"/>
  </g>
  <g id="pose2052" transform="translate(445.06,378.31) rotate(37.92)">
    <line x1="0" y1="0" x2="10.00" y2="0" stroke="#ff6688" stroke-width="1.5" stroke-opacity="0.6"/>
    <circle cx="0" cy="0" r="1.5" fill="#ff6688" fill-opacity="0.5"/>
  </g>
  <g id="pose2053" transform="translate(445.05,385.57) rotate(29.00)">
    <line x1="0" y1="0" x2="10.00" y2="0" stroke="#ff6688" stroke-width="1.5" stroke-opacity="0.6"/>
    <circle cx="0" cy="0" r="1.5" fill="#ff6688" fill-opacity="0.5"/>
  </g>
  <g id="pose2054" transform="translate(445.06,390.15) rotate(22.60)">
    <line x1="0" y1="0" x2="10.00" y2="0" stroke="#ff6688" stroke-width="1.5" stroke-opacity="0.6"/>
    <circle cx="0" cy="0" r="1.5" fill="#ff6688" fill-opacity="0.5"/>
  </g>
  <g id="pose2055" transform="translate(445.07,395.10) rotate(14.75)">
    <line x1="0" y1="0" x2="10.00" y2="0" stroke="#ff6688" stroke-width="1.5" stroke-opacity="0.6"/>
    <circle cx="0" cy="0" r="1.5" fill="#ff6688" fill-opacity="0.5"/>
  </g>
  <g id="pose2056" transform="translate(445.09,397.95) rotate(9.57)">
    <line x1="0" y1="0" x2="10.00" y2="0" stroke="#ff6688" stroke-width="1.5" stroke-opacity="0.6"/>
    <circle cx="0" cy="0" r="1.5" fill="#ff6688" fill-opacity="0.5"/>
  </g>
  <g id="pose2057" transform="translate(445.10,400.06) rotate(5.24)">
    <line x1="0" y1="0" x2="10.00" y2="0" stroke="#ff6688" stroke-width="1.5" stroke-opacity="0.6"/>
    <circle cx="0" cy="0" r="1.5" fill="#ff6688" fill-opacity="0.5"/>
  </g>
  <g id="pose2058" transform="translate(445.11,401.71) rotate(1.24)">
    <rect x="-20.83" y="-25.00" width="41.66" height="50.00" rx="3" fill="#ff6688" fill-opacity="0.25" stroke="#ff6688" stroke-width="1.2" stroke-opacity="0.7"/>
    <rect x="-16.67" y="-20.83" width="33.33" height="41.66" fill="#ff6688" fill-opacity="0.55" stroke="#ff6688" stroke-width="1.5"/>
    <polygon points="16.67,0 2.08,14.58 2.08,-14.58" fill="#ffffff" fill-opacity="0.9"/>
    <circle cx="0" cy="0" r="3" fill="#ffffff" fill-opacity="0.9"/>
  </g>
  <g id="pose2059" transform="translate(445.12,402.08) rotate(-0.00)">
    <rect x="-20.83" y="-25.00" width="41.66" height="50.00" rx="3" fill="#ff6688" fill-opacity="0.25" stroke="#ff6688" stroke-width="1.2" stroke-opacity="0.7"/>
    <rect x="-16.67" y="-20.83" width="33.33" height="41.66" fill="#ff6688" fill-opacity="0.55" stroke="#ff6688" stroke-width="1.5"/>
    <polygon points="16.67,0 2.08,14.58 2.08,-14.58" fill="#ffffff" fill-opacity="0.9"/>
    <circle cx="0" cy="0" r="3" fill="#ffffff" fill-opacity="0.9"/>
  </g>
  <rect x="320.1" y="288.4" width="74.0" height="11" rx="3" fill="#000000" fill-opacity="0.65"/>
  <text x="324.1" y="297.4" font-size="9" fill="#ff6688" font-family="monospace" font-weight="bold">S5: Launch1Out_2</text>
</svg>