<svg xmlns="http://www.w3.org/2000/svg" width="900" height="442" viewBox="0 0 900 442">
  <rect x="0" y="0" width="900" height="442" fill="#1a1a1a"/>
  <rect x="0" y="0" width="218.7" height="442" fill="#0d1a3a" fill-opacity="0.7"/>
  <text x="109.4" y="14" text-anchor="middle" font-size="10" fill="#4466cc" font-family="sans-serif">BLUE</text>
  <rect x="262.5" y="0" width="386.0" height="442" fill="#111111" fill-opacity="0.7"/>
  <text x="455.5" y="14" text-anchor="middle" font-size="10" fill="#888" font-family="sans-serif">NEUTRAL</text>
  <rect x="686.2" y="0" width="213.8" height="442" fill="#3a0d0d" fill-opacity="0.7"/>
  <text x="793.1" y="14" text-anchor="middle" font-size="10" fill="#cc4444" font-family="sans-serif">RED</text>
  <rect x="0" y="0" width="900" height="442" fill="none" stroke="#888" stroke-width="2"/>
  <line x1="0.0" y1="442" x2="0.0" y2="437" stroke="#555" stroke-width="1"/>
  <text x="0.0" y="435" text-anchor="middle" font-size="7" fill="#666" font-family="monospace">0m</text>
  <line x1="109.4" y1="442" x2="109.4" y2="437" stroke="#555" stroke-width="1"/>
  <text x="109.4" y="435" text-anchor="middle" font-size="7" fill="#666" font-family="monospace">2m</text>
  <line x1="218.7" y1="442" x2="218.7" y2="437" stroke="#555" stroke-width="1"/>
  <text x="218.7" y="435" text-anchor="middle" font-size="7" fill="#666" font-family="monospace">4m</text>
  <line x1="328.1" y1="442" x2="328.1" y2="437" stroke="#555" stroke-width="1"/>
  <text x="328.1" y="435" text-anchor="middle" font-size="7" fill="#666" font-family="monospace">6m</text>
  <line x1="437.4" y1="442" x2="437.4" y2="437" stroke="#555" stroke-width="1"/>
  <text x="437.4" y="435" text-anchor="middle" font-size="7" fill="#666" font-family="monospace">8m</text>
  <line x1="546.8" y1="442" x2="546.8" y2="437" stroke="#555" stroke-width="1"/>
  <text x="546.8" y="435" text-anchor="middle" font-size="7" fill="#666" font-family="monospace">10m</text>
  <line x1="656.1" y1="442" x2="656.1" y2="437" stroke="#555" stroke-width="1"/>
  <text x="656.1" y="435" text-anchor="middle" font-size="7" fill="#666" font-family="monospace">12m</text>
  <line x1="765.5" y1="442" x2="765.5" y2="437" stroke="#555" stroke-width="1"/>
  <text x="765.5" y="435" text-anchor="middle" font-size="7" fill="#666" font-family="monospace">14m</text>
  <line x1="874.8" y1="442" x2="874.8" y2="437" stroke="#555" stroke-width="1"/>
  <text x="874.8" y="435" text-anchor="middle" font-size="7" fill="#666" font-family="monospace">16m</text>
  <line x1="0" y1="442.9" x2="5" y2="442.9" stroke="#555" stroke-width="1"/>
  <text x="7" y="442.9" dominant-baseline="middle" font-size="7" fill="#666" font-family="monospace">0m</text>
  <line x1="0" y1="333.5" x2="5" y2="333.5" stroke="#555" stroke-width="1"/>
  <text x="7" y="333.5" dominant-baseline="middle" font-size="7" fill="#666" font-family="monospace">2m</text>
  <line x1="0" y1="224.2" x2="5" y2="224.2" stroke="#555" stroke-width="1"/>
  <text x="7" y="224.2" dominant-baseline="middle" font-size="7" fill="#666" font-family="monospace">4m</text>
  <line x1="0" y1="114.8" x2="5" y2="114.8" stroke="#555" stroke-width="1"/>
  <text x="7" y="114.8" dominant-baseline="middle" font-size="7" fill="#666" font-family="monospace">6m</text>
  <line x1="0" y1="5.5" x2="5" y2="5.5" stroke="#555" stroke-width="1"/>
  <text x="7" y="5.5" dominant-baseline="middle" font-size="7" fill="#666" font-family="monospace">8m</text>
  <rect x="623.0" y="254.3" width="61.1" height="100.6" fill="none" stroke="#ff6b6b" stroke-width="1.6" stroke-dasharray="4 3" stroke-opacity="0.85"/>
  <text x="627.0" y="263.3" text-anchor="start" font-size="8" fill="#ffc0c0" font-family="monospace">BumpDepotElement</text>
  <rect x="623.0" y="88.0" width="61.1" height="100.6" fill="none" stroke="#ff6b6b" stroke-width="1.6" stroke-dasharray="4 3" stroke-opacity="0.85"/>
  <text x="627.0" y="97.0" text-anchor="start" font-size="8" fill="#ffc0c0" font-family="monospace">BumpOutpostElement</text>
  <rect x="620.9" y="189.0" width="65.3" height="65.3" fill="none" stroke="#ff6b6b" stroke-width="1.6" stroke-dasharray="4 3" stroke-opacity="0.85"/>
  <text x="624.9" y="198.0" text-anchor="start" font-size="8" fill="#ffc0c0" font-family="monospace">HubElement</text>
  <rect x="620.9" y="354.9" width="65.3" height="17.0" fill="none" stroke="#ff6b6b" stroke-width="1.6" stroke-dasharray="4 3" stroke-opacity="0.85"/>
  <text x="624.9" y="363.9" text-anchor="start" font-size="8" fill="#ffc0c0" font-family="monospace">TrenchADepotElement</text>
  <rect x="620.9" y="71.1" width="65.3" height="17.0" fill="none" stroke="#ff6b6b" stroke-width="1.6" stroke-dasharray="4 3" stroke-opacity="0.85"/>
  <text x="624.9" y="80.1" text-anchor="start" font-size="8" fill="#ffc0c0" font-family="monospace">TrenchAOutpostElement</text>
  <polyline points="714.80,138.01 714.60,138.01 714.01,138.01 713.02,138.01 711.64,138.01 709.86,138.01 707.69,138.01 705.12,138.01 702.16,138.01 698.81,138.01 695.06,138.01 690.91,138.01 686.38,138.01 681.44,138.01 676.11,138.01 670.39,138.01 664.27,138.01 657.76,138.01 650.86,138.01 643.75,138.01 636.85,138.01 630.34,138.01 624.22,138.01 618.50,138.01 613.17,138.01 608.23,138.01 603.69,138.01 599.55,138.01 595.80,138.01 592.44,138.01 589.48,138.01 586.92,138.01 584.75,138.01 582.97,138.01 581.59,138.01 580.60,138.01 580.01,138.01 579.81,138.01" fill="none" stroke="#ffcc00" stroke-width="2" stroke-opacity="0.85" stroke-linejoin="round" stroke-linecap="round"/>
  <g id="pose1000" transform="translate(714.80,138.01) rotate(-40.10)">
    <rect x="-20.83" y="-25.00" width="41.66" height="50.00" rx="3" fill="#ffcc00" fill-opacity="0.25" stroke="#ffcc00" stroke-width="1.2" stroke-opacity="0.7"/>
    <rect x="-16.67" y="-20.83" width="33.33" height="41.66" fill="#ffcc00" fill-opacity="0.55" stroke="#ffcc00" stroke-width="1.5"/>
    <polygon points="16.67,0 2.08,14.58 2.08,-14.58" fill="#ffffff" fill-opacity="0.9"/>
    <circle cx="0" cy="0" r="3" fill="#ffffff" fill-opacity="0.9"/>
  </g>
  <g id="pose1001" transform="translate(714.60,138.01) rotate(-40.10)">
    <rect x="-20.83" y="-25.00" width="41.66" height="50.00" rx="3" fill="#ffcc00" fill-opacity="0.25" stroke="#ffcc00" stroke-width="1.2" stroke-opacity="0.7"/>
    <rect x="-16.67" y="-20.83" width="33.33" height="41.66" fill="#ffcc00" fill-opacity="0.55" stroke="#ffcc00" stroke-width="1.5"/>
    <polygon points="16.67,0 2.08,14.58 2.08,-14.58" fill="#ffffff" fill-opacity="0.9"/>
    <circle cx="0" cy="0" r="3" fill="#ffffff" fill-opacity="0.9"/>
  </g>
  <g id="pose1002" transform="translate(714.01,138.01) rotate(-40.10)">
    <line x1="0" y1="0" x2="10.00" y2="0" stroke="#ffcc00" stroke-width="1.5" stroke-opacity="0.6"/>
    <circle cx="0" cy="0" r="1.5" fill="#ffcc00" fill-opacity="0.5"/>
  </g>
  <g id="pose1003" transform="translate(713.02,138.01) rotate(-40.10)">
    <line x1="0" y1="0" x2="10.00" y2="0" stroke="#ffcc00" stroke-width="1.5" stroke-opacity="0.6"/>
    <circle cx="0" cy="0" r="1.5" fill="#ffcc00" fill-opacity="0.5"/>
  </g>
  <g id="pose1004" transform="translate(711.64,138.01) rotate(-40.10)">
    <line x1="0" y1="0" x2="10.00" y2="0" stroke="#ffcc00" stroke-width="1.5" stroke-opacity="0.6"/>
    <circle cx="0" cy="0" r="1.5" fill="#ffcc00" fill-opacity="0.5"/>
  </g>
  <g id="pose1005" transform="translate(709.86,138.01) rotate(-40.09)">
    <line x1="0" y1="0" x2="10.00" y2="0" stroke="#ffcc00" stroke-width="1.5" stroke-opacity="0.6"/>
    <circle cx="0" cy="0" r="1.5" fill="#ffcc00" fill-opacity="0.5"/>
  </g>
  <g id="pose1006" transform="translate(707.69,138.01) rotate(-40.09)">
    <line x1="0" y1="0" x2="10.00" y2="0" stroke="#ffcc00" stroke-width="1.5" stroke-opacity="0.6"/>
    <circle cx="0" cy="0" r="1.5" fill="#ffcc00" fill-opacity="0.5"/>
  </g>
  <g id="pose1007" transform="translate(705.12,138.01) rotate(-40.08)">
    <line x1="0" y1="0" x2="10.00" y2="0" stroke="#ffcc00" stroke-width="1.5" stroke-opacity="0.6"/>
    <circle cx="0" cy="0" r="1.5" fill="#ffcc00" fill-opacity="0.5"/>
  </g>
  <g id="pose1008" transform="translate(702.16,138.01) rotate(-40.08)">
    <line x1="0" y1="0" x2="10.00" y2="0" stroke="#ffcc00" stroke-width="1.5" stroke-opacity="0.6"/>
    <circle cx="0" cy="0" r="1.5" fill="#ffcc00" fill-opacity="0.5"/>
  </g>
  <g id="pose1009" transform="translate(698.81,138.01) rotate(-40.08)">
    <line x1="0" y1="0" x2="10.00" y2="0" stroke="#ffcc00" stroke-width="1.5" stroke-opacity="0.6"/>
    <circle cx="0" cy="0" r="1.5" fill="#ffcc00" fill-opacity="0.5"/>
  </g>
  <g id="pose1010" transform="translate(695.06,138.01) rotate(-40.08)">
    <line x1="0" y1="0" x2="10.00" y2="0" stroke="#ffcc00" stroke-width="1.5" stroke-opacity="0.6"/>
    <circle cx="0" cy="0" r="1.5" fill="#ffcc00" fill-opacity="0.5"/>
  </g>
  <g id="pose1011" transform="translate(690.91,138.01) rotate(-40.07)">
    <line x1="0" y1="0" x2="10.00" y2="0" stroke="#ffcc00" stroke-width="1.5" stroke-opacity="0.6"/>
    <circle cx="0" cy="0" r="1.5" fill="#ffcc00" fill-opacity="0.5"/>
  </g>
  <g id="pose1012" transform="translate(686.38,138.01) rotate(-40.07)">
    <line x1="0" y1="0" x2="10.00" y2="0" stroke="#ffcc00" stroke-width="1.5" stroke-opacity="0.6"/>
    <circle cx="0" cy="0" r="1.5" fill="#ffcc00" fill-opacity="0.5"/>
  </g>
  <g id="pose1013" transform="translate(681.44,138.01) rotate(-40.07)">
    <line x1="0" y1="0" x2="10.00" y2="0" stroke="#ffcc00" stroke-width="1.5" stroke-opacity="0.6"/>
    <circle cx="0" cy="0" r="1.5" fill="#ffcc00" fill-opacity="0.5"/>
  </g>
  <g id="pose1014" transform="translate(676.11,138.01) rotate(-40.07)">
    <line x1="0" y1="0" x2="10.00" y2="0" stroke="#ffcc00" stroke-width="1.5" stroke-opacity="0.6"/>
    <circle cx="0" cy="0" r="1.5" fill="#ffcc00" fill-opacity="0.5"/>
  </g>
  <g id="pose1015" transform="translate(670.39,138.01) rotate(-40.07)">
    <line x1="0" y1="0" x2="10.00" y2="0" stroke="#ffcc00" stroke-width="1.5" stroke-opacity="0.6"/>
    <circle cx="0" cy="0" r="1.5" fill="#ffcc00" fill-opacity="0.5"/>
  </g>
  <g id="pose1016" transform="translate(664.27,138.01) rotate(-40.08)">
    <line x1="0" y1="0" x2="10.00" y2="0" stroke="#ffcc00" stroke-width="1.5" stroke-opacity="0.6"/>
    <circle cx="0" cy="0" r="1.5" fill="#ffcc00" fill-opacity="0.5"/>
  </g>
  <g id="pose1017" transform="translate(657.76,138.01) rotate(-40.08)">
    <line x1="0" y1="0" x2="10.00" y2="0" stroke="#ffcc00" stroke-width="1.5" stroke-opacity="0.6"/>
    <circle cx="0" cy="0" r="1.5" fill="#ffcc00" fill-opacity="0.5"/>
  </g>
  <g id="pose1018" transform="translate(650.86,138.01) rotate(-40.09)">
    <line x1="0" y1="0" x2="10.00" y2="0" stroke="#ffcc00" stroke-width="1.5" stroke-opacity="0.6"/>
    <circle cx="0" cy="0" r="1.5" fill="#ffcc00" fill-opacity="0.5"/>
  </g>
  <g id="pose1019" transform="translate(643.75,138.01) rotate(-40.11)">
    <line x1="0" y1="0" x2="10.00" y2="0" stroke="#ffcc00" stroke-width="1.5" stroke-opacity="0.6"/>
    <circle cx="0" cy="0" r="1.5" fill="#ffcc00" fill-opacity="0.5"/>
  </g>
  <g id="pose1020" transform="translate(636.85,138.01) rotate(-40.12)">
    <line x1="0" y1="0" x2="10.00" y2="0" stroke="#ffcc00" stroke-width="1.5" stroke-opacity="0.6"/>
    <circle cx="0" cy="0" r="1.5" fill="#ffcc00" fill-opacity="0.5"/>
  </g>
  <g id="pose1021" transform="translate(630.34,138.01) rotate(-40.13)">
    <line x1="0" y1="0" x2="10.00" y2="0" stroke="#ffcc00" stroke-width="1.5" stroke-opacity="0.6"/>
    <circle cx="0" cy="0" r="1.5" fill="#ffcc00" fill-opacity="0.5"/>
  </g>
  <g id="pose1022" transform="translate(624.22,138.01) rotate(-40.14)">
    <line x1="0" y1="0" x2="10.00" y2="0" stroke="#ffcc00" stroke-width="1.5" stroke-opacity="0.6"/>
    <circle cx="0" cy="0" r="1.5" fill="#ffcc00" fill-opacity="0.5"/>
  </g>
  <g id="pose1023" transform="translate(618.50,138.01) rotate(-40.14)">
    <line x1="0" y1="0" x2="10.00" y2="0" stroke="#ffcc00" stroke-width="1.5" stroke-opacity="0.6"/>
    <circle cx="0" cy="0" r="1.5" fill="#ffcc00" fill-opacity="0.5"/>
  </g>
  <g id="pose1024" transform="translate(613.17,138.01) rotate(-40.14)">
    <line x1="0" y1="0" x2="10.00" y2="0" stroke="#ffcc00" stroke-width="1.5" stroke-opacity="0.6"/>
    <circle cx="0" cy="0" r="1.5" fill="#ffcc00" fill-opacity="0.5"/>
  </g>
  <g id="pose1025" transform="translate(608.23,138.01) rotate(-40.14)">
    <line x1="0" y1="0" x2="10.00" y2="0" stroke="#ffcc00" stroke-width="1.5" stroke-opacity="0.6"/>
    <circle cx="0" cy="0" r="1.5" fill="#ffcc00" fill-opacity="0.5"/>
  </g>
  <g id="pose1026" transform="translate(603.69,138.01) rotate(-40.14)">
    <line x1="0" y1="0" x2="10.00" y2="0" stroke="#ffcc00" stroke-width="1.5" stroke-opacity="0.6"/>
    <circle cx="0" cy="0" r="1.5" fill="#ffcc00" fill-opacity="0.5"/>
  </g>
  <g id="pose1027" transform="translate(599.55,138.01) rotate(-40.14)">
    <line x1="0" y1="0" x2="10.00" y2="0" stroke="#ffcc00" stroke-width="1.5" stroke-opacity="0.6"/>
    <circle cx="0" cy="0" r="1.5" fill="#ffcc00" fill-opacity="0.5"/>
  </g>
  <g id="pose1028" transform="translate(595.80,138.01) rotate(-40.13)">
    <line x1="0" y1="0" x2="10.00" y2="0" stroke="#ffcc00" stroke-width="1.5" stroke-opacity="0.6"/>
    <circle cx="0" cy="0" r="1.5" fill="#ffcc00" fill-opacity="0.5"/>
  </g>
  <g id="pose1029" transform="translate(592.44,138.01) rotate(-40.13)">
    <line x1="0" y1="0" x2="10.00" y2="0" stroke="#ffcc00" stroke-width="1.5" stroke-opacity="0.6"/>
    <circle cx="0" cy="0" r="1.5" fill="#ffcc00" fill-opacity="0.5"/>
  </g>
  <g id="pose1030" transform="translate(589.48,138.01) rotate(-40.13)">
    <line x1="0" y1="0" x2="10.00" y2="0" stroke="#ffcc00" stroke-width="1.5" stroke-opacity="0.6"/>
    <circle cx="0" cy="0" r="1.5" fill="#ffcc00" fill-opacity="0.5"/>
  </g>
  <g id="pose1031" transform="translate(586.92,138.01) rotate(-40.12)">
    <line x1="0" y1="0" x2="10.00" y2="0" stroke="#ffcc00" stroke-width="1.5" stroke-opacity="0.6"/>
    <circle cx="0" cy="0" r="1.5" fill="#ffcc00" fill-opacity="0.5"/>
  </g>
  <g id="pose1032" transform="translate(584.75,138.01) rotate(-40.12)">
    <line x1="0" y1="0" x2="10.00" y2="0" stroke="#ffcc00" stroke-width="1.5" stroke-opacity="0.6"/>
    <circle cx="0" cy="0" r="1.5" fill="#ffcc00" fill-opacity="0.5"/>
  </g>
  <g id="pose1033" transform="translate(582.97,138.01) rotate(-40.11)">
    <line x1="0" y1="0" x2="10.00" y2="0" stroke="#ffcc00" stroke-width="1.5" stroke-opacity="0.6"/>
    <circle cx="0" cy="0" r="1.5" fill="#ffcc00" fill-opacity="0.5"/>
  </g>
  <g id="pose1034" transform="translate(581.59,138.01) rotate(-40.11)">
    <line x1="0" y1="0" x2="10.00" y2="0" stroke="#ffcc00" stroke-width="1.5" stroke-opacity="0.6"/>
    <circle cx="0" cy="0" r="1.5" fill="#ffcc00" fill-opacity="0.5"/>
  </g>
  <g id="pose1035" transform="translate(580.60,138.01) rotate(-40.11)">
    <line x1="0" y1="0" x2="10.00" y2="0" stroke="#ffcc00" stroke-width="1.5" stroke-opacity="0.6"/>
    <circle cx="0" cy="0" r="1.5" fill="#ffcc00" fill-opacity="0.5"/>
  </g>
  <g id="pose1036" transform="translate(580.01,138.01) rotate(-40.10)">
    <line x1="0" y1="0" x2="10.00" y2="0" stroke="#ffcc00" stroke-width="1.5" stroke-opacity="0.6"/>
    <circle cx="0" cy="0" r="1.5" fill="#ffcc00" fill-opacity="0.5"/>
  </g>
  <g id="pose1037" transform="translate(579.81,138.01) rotate(-40.10)">
    <rect x="-20.83" y="-25.00" width="41.66" height="50.00" rx="3" fill="#ffcc00" fill-opacity="0.25" stroke="#ffcc00" stroke-width="1.2" stroke-opacity="0.7"/>
    <rect x="-16.67" y="-20.83" width="33.33" height="41.66" fill="#ffcc00" fill-opacity="0.55" stroke="#ffcc00" stroke-width="1.5"/>
    <polygon points="16.67,0 2.08,14.58 2.08,-14.58" fill="#ffffff" fill-opacity="0.9"/>
    <circle cx="0" cy="0" r="3" fill="#ffffff" fill-opacity="0.9"/>
  </g>
  <rect x="716.8" y="121.0" width="123.5" height="11" rx="3" fill="#000000" fill-opacity="0.65"/>
  <text x="720.8" y="130.0" font-size="9" fill="#ffcc00" font-family="monospace" font-weight="bold">S3: InitPassingPathRight2</text>
</svg>