<svg xmlns="http://www.w3.org/2000/svg" width="900" height="442" viewBox="0 0 900 442">
  <rect x="0" y="0" width="900" height="442" fill="#1a1a1a"/>
  <rect x="0" y="0" width="218.7" height="442" fill="#0d1a3a" fill-opacity="0.7"/>
  <text x="109.4" y="14" text-anchor="middle" font-size="10" fill="#4466cc" font-family="sans-serif">BLUE</text>
  <rect x="262.5" y="0" width="386.0" height="442" fill="#111111" fill-opacity="0.7"/>
  <text x="455.5" y="14" text-anchor="middle" font-size="10" fill="#888" font-family="sans-serif">NEUTRAL</text>
  <rect x="686.2" y="0" width="213.8" height="442" fill="#3a0d0d" fill-opacity="0.7"/>
  <text x="793.1" y="14" text-anchor="middle" font-size="10" fill="#cc4444" font-family="sans-serif">RED</text>
  <rect x="0" y="0" width="900" height="442" fill="none" stroke="#888" stroke-width="2"/>
  <line x1="0.0" y1="442" x2="0.0" y2="437" stroke="#555" stroke-width="1"/>
  <text x="0.0" y="435" text-anchor="middle" font-size="7" fill="#666" font-family="monospace">0m</text>
  <line x1="109.4" y1="442" x2="109.4" y2="437" stroke="#555" stroke-width="1"/>
  <text x="109.4" y="435" text-anchor="middle" font-size="7" fill="#666" font-family="monospace">2m</text>
  <line x1="218.7" y1="442" x2="218.7" y2="437" stroke="#555" stroke-width="1"/>
  <text x="218.7" y="435" text-anchor="middle" font-size="7" fill="#666" font-family="monospace">4m</text>
  <line x1="328.1" y1="442" x2="328.1" y2="437" stroke="#555" stroke-width="1"/>
  <text x="328.1" y="435" text-anchor="middle" font-size="7" fill="#666" font-family="monospace">6m</text>
  <line x1="437.4" y1="442" x2="437.4" y2="437" stroke="#555" stroke-width="1"/>
  <text x="437.4" y="435" text-anchor="middle" font-size="7" fill="#666" font-family="monospace">8m</text>
  <line x1="546.8" y1="442" x2="546.8" y2="437" stroke="#555" stroke-width="1"/>
  <text x="546.8" y="435" text-anchor="middle" font-size="7" fill="#666" font-family="monospace">10m</text>
  <line x1="656.1" y1="442" x2="656.1" y2="437" stroke="#555" stroke-width="1"/>
  <text x="656.1" y="435" text-anchor="middle" font-size="7" fill="#666" font-family="monospace">12m</text>
  <line x1="765.5" y1="442" x2="765.5" y2="437" stroke="#555" stroke-width="1"/>
  <text x="765.5" y="435" text-anchor="middle" font-size="7" fill="#666" font-family="monospace">14m</text>
  <line x1="874.8" y1="442" x2="874.8" y2="437" stroke="#555" stroke-width="1"/>
  <text x="874.8" y="435" text-anchor="middle" font-size="7" fill="#666" font-family="monospace">16m</text>
  <line x1="0" y1="442.9" x2="5" y2="442.9" stroke="#555" stroke-width="1"/>
  <text x="7" y="442.9" dominant-baseline="middle" font-size="7" fill="#666" font-family="monospace">0m</text>
  <line x1="0" y1="333.5" x2="5" y2="333.5" stroke="#555" stroke-width="1"/>
  <text x="7" y="333.5" dominant-baseline="middle" font-size="7" fill="#666" font-family="monospace">2m</text>
  <line x1="0" y1="224.2" x2="5" y2="224.2" stroke="#555" stroke-width="1"/>
  <text x="7" y="224.2" dominant-baseline="middle" font-size="7" fill="#666" font-family="monospace">4m</text>
  <line x1="0" y1="114.8" x2="5" y2="114.8" stroke="#555" stroke-width="1"/>
  <text x="7" y="114.8" dominant-baseline="middle" font-size="7" fill="#666" font-family="monospace">6m</text>
  <line x1="0" y1="5.5" x2="5" y2="5.5" stroke="#555" stroke-width="1"/>
  <text x="7" y="5.5" dominant-baseline="middle" font-size="7" fill="#666" font-family="monospace">8m</text>
  <rect x="623.0" y="254.3" width="61.1" height="100.6" fill="none" stroke="#ff6b6b" stroke-width="1.6" stroke-dasharray="4 3" stroke-opacity="0.85"/>
  <text x="627.0" y="263.3" text-anchor="start" font-size="8" fill="#ffc0c0" font-family="monospace">BumpDepotElement</text>
  <rect x="623.0" y="88.0" width="61.1" height="100.6" fill="none" stroke="#ff6b6b" stroke-width="1.6" stroke-dasharray="4 3" stroke-opacity="0.85"/>
  <text x="627.0" y="97.0" text-anchor="start" font-size="8" fill="#ffc0c0" font-family="monospace">BumpOutpostElement</text>
  <rect x="620.9" y="189.0" width="65.3" height="65.3" fill="none" stroke="#ff6b6b" stroke-width="1.6" stroke-dasharray="4 3" stroke-opacity="0.85"/>
  <text x="624.9" y="198.0" text-anchor="start" font-size="8" fill="#ffc0c0" font-family="monospace">HubElement</text>
  <rect x="620.9" y="354.9" width="65.3" height="17.0" fill="none" stroke="#ff6b6b" stroke-width="1.6" stroke-dasharray="4 3" stroke-opacity="0.85"/>
  <text x="624.9" y="363.9" text-anchor="start" font-size="8" fill="#ffc0c0" font-family="monospace">TrenchADepotElement</text>
  <rect x="620.9" y="71.1" width="65.3" height="17.0" fill="none" stroke="#ff6b6b" stroke-width="1.6" stroke-dasharray="4 3" stroke-opacity="0.85"/>
  <text x="624.9" y="80.1" text-anchor="start" font-size="8" fill="#ffc0c0" font-family="monospace">TrenchAOutpostElement</text>
  <polyline points="710.65,101.60 710.65,101.77 710.65,102.28 710.65,103.12 710.65,104.30 710.65,105.82 710.65,107.68 710.65,109.88 710.65,112.41 710.65,115.28 710.65,118.49 710.65,122.03 710.65,125.57 710.65,128.78 710.65,131.65 710.65,134.18 710.65,136.38 710.65,138.23 710.65,139.75 710.65,140.93 710.65,141.78 710.65,142.29 710.65,142.45" fill="none" stroke="#00d4ff" stroke-width="2" stroke-opacity="0.85" stroke-linejoin="round" stroke-linecap="round"/>
  <g id="pose0" transform="translate(710.65,101.60) rotate(-142.13)">
    <rect x="-20.83" y="-25.00" width="41.66" height="50.00" rx="3" fill="#00d4ff" fill-opacity="0.25" stroke="#00d4ff" stroke-width="1.2" stroke-opacity="0.7"/>
    <rect x="-16.67" y="-20.83" width="33.33" height="41.66" fill="#00d4ff" fill-opacity="0.55" stroke="#00d4ff" stroke-width="1.5"/>
    <polygon points="16.67,0 2.08,14.58 2.08,-14.58" fill="#ffffff" fill-opacity="0.9"/>
    <circle cx="0" cy="0" r="3" fill="#ffffff" fill-opacity="0.9"/>
  </g>
  <g id="pose1" transform="translate(710.65,101.77) rotate(-142.13)">
    <rect x="-20.83" y="-25.00" width="41.66" height="50.00" rx="3" fill="#00d4ff" fill-opacity="0.25" stroke="#00d4ff" stroke-width="1.2" stroke-opacity="0.7"/>
    <rect x="-16.67" y="-20.83" width="33.33" height="41.66" fill="#00d4ff" fill-opacity="0.55" stroke="#00d4ff" stroke-width="1.5"/>
    <polygon points="16.67,0 2.08,14.58 2.08,-14.58" fill="#ffffff" fill-opacity="0.9"/>
    <circle cx="0" cy="0" r="3" fill="#ffffff" fill-opacity="0.9"/>
  </g>
  <g id="pose2" transform="translate(710.65,102.28) rotate(-142.30)">
    <line x1="0" y1="0" x2="10.00" y2="0" stroke="#00d4ff" stroke-width="1.5" stroke-opacity="0.6"/>
    <circle cx="0" cy="0" r="1.5" fill="#00d4ff" fill-opacity="0.5"/>
  </g>
  <g id="pose3" transform="translate(710.65,103.12) rotate(-142.62)">
    <line x1="0" y1="0" x2="10.00" y2="0" stroke="#00d4ff" stroke-width="1.5" stroke-opacity="0.6"/>
    <circle cx="0" cy="0" r="1.5" fill="#00d4ff" fill-opacity="0.5"/>
  </g>
  <g id="pose4" transform="translate(710.65,104.30) rotate(-143.06)">
    <line x1="0" y1="0" x2="10.00" y2="0" stroke="#00d4ff" stroke-width="1.5" stroke-opacity="0.6"/>
    <circle cx="0" cy="0" r="1.5" fill="#00d4ff" fill-opacity="0.5"/>
  </g>
  <g id="pose5" transform="translate(710.65,105.82) rotate(-143.62)">
    <line x1="0" y1="0" x2="10.00" y2="0" stroke="#00d4ff" stroke-width="1.5" stroke-opacity="0.6"/>
    <circle cx="0" cy="0" r="1.5" fill="#00d4ff" fill-opacity="0.5"/>
  </g>
  <g id="pose6" transform="translate(710.65,107.68) rotate(-144.27)">
    <line x1="0" y1="0" x2="10.00" y2="0" stroke="#00d4ff" stroke-width="1.5" stroke-opacity="0.6"/>
    <circle cx="0" cy="0" r="1.5" fill="#00d4ff" fill-opacity="0.5"/>
  </g>
  <g id="pose7" transform="translate(710.65,109.88) rotate(-145.00)">
    <line x1="0" y1="0" x2="10.00" y2="0" stroke="#00d4ff" stroke-width="1.5" stroke-opacity="0.6"/>
    <circle cx="0" cy="0" r="1.5" fill="#00d4ff" fill-opacity="0.5"/>
  </g>
  <g id="pose8" transform="translate(710.65,112.41) rotate(-145.78)">
    <line x1="0" y1="0" x2="10.00" y2="0" stroke="#00d4ff" stroke-width="1.5" stroke-opacity="0.6"/>
    <circle cx="0" cy="0" r="1.5" fill="#00d4ff" fill-opacity="0.5"/>
  </g>
  <g id="pose9" transform="translate(710.65,115.28) rotate(-146.62)">
    <line x1="0" y1="0" x2="10.00" y2="0" stroke="#00d4ff" stroke-width="1.5" stroke-opacity="0.6"/>
    <circle cx="0" cy="0" r="1.5" fill="#00d4ff" fill-opacity="0.5"/>
  </g>
  <g id="pose10" transform="translate(710.65,118.49) rotate(-147.47)">
    <line x1="0" y1="0" x2="10.00" y2="0" stroke="#00d4ff" stroke-width="1.5" stroke-opacity="0.6"/>
    <circle cx="0" cy="0" r="1.5" fill="#00d4ff" fill-opacity="0.5"/>
  </g>
  <g id="pose11" transform="translate(710.65,122.03) rotate(-148.36)">
    <line x1="0" y1="0" x2="10.00" y2="0" stroke="#00d4ff" stroke-width="1.5" stroke-opacity="0.6"/>
    <circle cx="0" cy="0" r="1.5" fill="#00d4ff" fill-opacity="0.5"/>
  </g>
  <g id="pose12" transform="translate(710.65,125.57) rotate(-149.21)">
    <line x1="0" y1="0" x2="10.00" y2="0" stroke="#00d4ff" stroke-width="1.5" stroke-opacity="0.6"/>
    <circle cx="0" cy="0" r="1.5" fill="#00d4ff" fill-opacity="0.5"/>
  </g>
  <g id="pose13" transform="translate(710.65,128.78) rotate(-150.05)">
    <line x1="0" y1="0" x2="10.00" y2="0" stroke="#00d4ff" stroke-width="1.5" stroke-opacity="0.6"/>
    <circle cx="0" cy="0" r="1.5" fill="#00d4ff" fill-opacity="0.5"/>
  </g>
  <g id="pose14" transform="translate(710.65,131.65) rotate(-150.90)">
    <line x1="0" y1="0" x2="10.00" y2="0" stroke="#00d4ff" stroke-width="1.5" stroke-opacity="0.6"/>
    <circle cx="0" cy="0" r="1.5" fill="#00d4ff" fill-opacity="0.5"/>
  </g>
  <g id="pose15" transform="translate(710.65,134.18) rotate(-151.71)">
    <line x1="0" y1="0" x2="10.00" y2="0" stroke="#00d4ff" stroke-width="1.5" stroke-opacity="0.6"/>
    <circle cx="0" cy="0" r="1.5" fill="#00d4ff" fill-opacity="0.5"/>
  </g>
  <g id="pose16" transform="translate(710.65,136.38) rotate(-152.48)">
    <line x1="0" y1="0" x2="10.00" y2="0" stroke="#00d4ff" stroke-width="1.5" stroke-opacity="0.6"/>
    <circle cx="0" cy="0" r="1.5" fill="#00d4ff" fill-opacity="0.5"/>
  </g>
  <g id="pose17" transform="translate(710.65,138.23) rotate(-153.19)">
    <line x1="0" y1="0" x2="10.00" y2="0" stroke="#00d4ff" stroke-width="1.5" stroke-opacity="0.6"/>
    <circle cx="0" cy="0" r="1.5" fill="#00d4ff" fill-opacity="0.5"/>
  </g>
  <g id="pose18" transform="translate(710.65,139.75) rotate(-153.84)">
    <line x1="0" y1="0" x2="10.00" y2="0" stroke="#00d4ff" stroke-width="1.5" stroke-opacity="0.6"/>
    <circle cx="0" cy="0" r="1.5" fill="#00d4ff" fill-opacity="0.5"/>
  </g>
  <g id="pose19" transform="translate(710.65,140.93) rotate(-154.38)">
    <line x1="0" y1="0" x2="10.00" y2="0" stroke="#00d4ff" stroke-width="1.5" stroke-opacity="0.6"/>
    <circle cx="0" cy="0" r="1.5" fill="#00d4ff" fill-opacity="0.5"/>
  </g>
  <g id="pose20" transform="translate(710.65,141.78) rotate(-154.82)">
    <line x1="0" y1="0" x2="10.00" y2="0" stroke="#00d4ff" stroke-width="1.5" stroke-opacity="0.6"/>
    <circle cx="0" cy="0" r="1.5" fill="#00d4ff" fill-opacity="0.5"/>
  </g>
  <g id="pose21" transform="translate(710.65,142.29) rotate(-155.13)">
    <rect x="-20.83" y="-25.00" width="41.66" height="50.00" rx="3" fill="#00d4ff" fill-opacity="0.25" stroke="#00d4ff" stroke-width="1.2" stroke-opacity="0.7"/>
    <rect x="-16.67" y="-20.83" width="33.33" height="41.66" fill="#00d4ff" fill-opacity="0.55" stroke="#00d4ff" stroke-width="1.5"/>
    <polygon points="16.67,0 2.08,14.58 2.08,-14.58" fill="#ffffff" fill-opacity="0.9"/>
    <circle cx="0" cy="0" r="3" fill="#ffffff" fill-opacity="0.9"/>
  </g>
  <g id="pose22" transform="translate(710.65,142.45) rotate(-155.30)">
    <line x1="0" y1="0" x2="10.00" y2="0" stroke="#00d4ff" stroke-width="1.5" stroke-opacity="0.6"/>
    <circle cx="0" cy="0" r="1.5" fill="#00d4ff" fill-opacity="0.5"/>
  </g>
  <rect x="712.7" y="84.6" width="96.0" height="11" rx="3" fill="#000000" fill-opacity="0.65"/>
  <text x="716.7" y="93.6" font-size="9" fill="#00d4ff" font-family="monospace" font-weight="bold">S1: BlueMRDrop3_Init</text>
</svg>