<svg xmlns="http://www.w3.org/2000/svg" width="900" height="442" viewBox="0 0 900 442">
  <rect x="0" y="0" width="900" height="442" fill="#1a1a1a"/>
  <rect x="0" y="0" width="218.7" height="442" fill="#0d1a3a" fill-opacity="0.7"/>
  <text x="109.4" y="14" text-anchor="middle" font-size="10" fill="#4466cc" font-family="sans-serif">BLUE</text>
  <rect x="262.5" y="0" width="386.0" height="442" fill="#111111" fill-opacity="0.7"/>
  <text x="455.5" y="14" text-anchor="middle" font-size="10" fill="#888" font-family="sans-serif">NEUTRAL</text>
  <rect x="686.2" y="0" width="213.8" height="442" fill="#3a0d0d" fill-opacity="0.7"/>
  <text x="793.1" y="14" text-anchor="middle" font-size="10" fill="#cc4444" font-family="sans-serif">RED</text>
  <rect x="0" y="0" width="900" height="442" fill="none" stroke="#888" stroke-width="2"/>
  <line x1="0.0" y1="442" x2="0.0" y2="437" stroke="#555" stroke-width="1"/>
  <text x="0.0" y="435" text-anchor="middle" font-size="7" fill="#666" font-family="monospace">0m</text>
  <line x1="109.4" y1="442" x2="109.4" y2="437" stroke="#555" stroke-width="1"/>
  <text x="109.4" y="435" text-anchor="middle" font-size="7" fill="#666" font-family="monospace">2m</text>
  <line x1="218.7" y1="442" x2="218.7" y2="437" stroke="#555" stroke-width="1"/>
  <text x="218.7" y="435" text-anchor="middle" font-size="7" fill="#666" font-family="monospace">4m</text>
  <line x1="328.1" y1="442" x2="328.1" y2="437" stroke="#555" stroke-width="1"/>
  <text x="328.1" y="435" text-anchor="middle" font-size="7" fill="#666" font-family="monospace">6m</text>
  <line x1="437.4" y1="442" x2="437.4" y2="437" stroke="#555" stroke-width="1"/>
  <text x="437.4" y="435" text-anchor="middle" font-size="7" fill="#666" font-family="monospace">8m</text>
  <line x1="546.8" y1="442" x2="546.8" y2="437" stroke="#555" stroke-width="1"/>
  <text x="546.8" y="435" text-anchor="middle" font-size="7" fill="#666" font-family="monospace">10m</text>
  <line x1="656.1" y1="442" x2="656.1" y2="437" stroke="#555" stroke-width="1"/>
  <text x="656.1" y="435" text-anchor="middle" font-size="7" fill="#666" font-family="monospace">12m</text>
  <line x1="765.5" y1="442" x2="765.5" y2="437" stroke="#555" stroke-width="1"/>
  <text x="765.5" y="435" text-anchor="middle" font-size="7" fill="#666" font-family="monospace">14m</text>
  <line x1="874.8" y1="442" x2="874.8" y2="437" stroke="#555" stroke-width="1"/>
  <text x="874.8" y="435" text-anchor="middle" font-size="7" fill="#666" font-family="monospace">16m</text>
  <line x1="0" y1="442.9" x2="5" y2="442.9" stroke="#555" stroke-width="1"/>
  <text x="7" y="442.9" dominant-baseline="middle" font-size="7" fill="#666" font-family="monospace">0m</text>
  <line x1="0" y1="333.5" x2="5" y2="333.5" stroke="#555" stroke-width="1"/>
  <text x="7" y="333.5" dominant-baseline="middle" font-size="7" fill="#666" font-family="monospace">2m</text>
  <line x1="0" y1="224.2" x2="5" y2="224.2" stroke="#555" stroke-width="1"/>
  <text x="7" y="224.2" dominant-baseline="middle" font-size="7" fill="#666" font-family="monospace">4m</text>
  <line x1="0" y1="114.8" x2="5" y2="114.8" stroke="#555" stroke-width="1"/>
  <text x="7" y="114.8" dominant-baseline="middle" font-size="7" fill="#666" font-family="monospace">6m</text>
  <line x1="0" y1="5.5" x2="5" y2="5.5" stroke="#555" stroke-width="1"/>
  <text x="7" y="5.5" dominant-baseline="middle" font-size="7" fill="#666" font-family="monospace">8m</text>
  <rect x="623.0" y="254.3" width="61.1" height="100.6" fill="none" stroke="#ff6b6b" stroke-width="1.6" stroke-dasharray="4 3" stroke-opacity="0.85"/>
  <text x="627.0" y="263.3" text-anchor="start" font-size="8" fill="#ffc0c0" font-family="monospace">BumpDepotElement</text>
  <rect x="623.0" y="88.0" width="61.1" height="100.6" fill="none" stroke="#ff6b6b" stroke-width="1.6" stroke-dasharray="4 3" stroke-opacity="0.85"/>
  <text x="627.0" y="97.0" text-anchor="start" font-size="8" fill="#ffc0c0" font-family="monospace">BumpOutpostElement</text>
  <rect x="620.9" y="189.0" width="65.3" height="65.3" fill="none" stroke="#ff6b6b" stroke-width="1.6" stroke-dasharray="4 3" stroke-opacity="0.85"/>
  <text x="624.9" y="198.0" text-anchor="start" font-size="8" fill="#ffc0c0" font-family="monospace">HubElement</text>
  <rect x="620.9" y="354.9" width="65.3" height="17.0" fill="none" stroke="#ff6b6b" stroke-width="1.6" stroke-dasharray="4 3" stroke-opacity="0.85"/>
  <text x="624.9" y="363.9" text-anchor="start" font-size="8" fill="#ffc0c0" font-family="monospace">TrenchADepotElement</text>
  <rect x="620.9" y="71.1" width="65.3" height="17.0" fill="none" stroke="#ff6b6b" stroke-width="1.6" stroke-dasharray="4 3" stroke-opacity="0.85"/>
  <text x="624.9" y="80.1" text-anchor="start" font-size="8" fill="#ffc0c0" font-family="monospace">TrenchAOutpostElement</text>
  <polyline points="645.80,304.49 645.91,304.48 646.21,304.48 646.73,304.47 647.45,304.45 648.38,304.43 649.51,304.41 650.85,304.38 652.39,304.35 654.14,304.31 656.09,304.27 658.25,304.22 660.62,304.17 663.19,304.12 665.97,304.06 668.96,303.99 672.15,303.93 675.54,303.85 679.14,303.78 682.95,303.70 686.96,303.61 691.18,303.52 695.60,303.43 700.23,303.33 704.96,303.23 709.59,303.13 714.01,303.04 718.23,302.95 722.24,302.86 726.05,302.78 729.65,302.70 733.05,302.63 736.23,302.56 739.22,302.50 742.00,302.44 744.57,302.39 746.94,302.34 749.10,302.29 751.05,302.25 752.80,302.21 754.35,302.18 755.68,302.15 756.82,302.12 757.74,302.11 758.46,302.09 758.98,302.08 759.29,302.07 759.39,302.07" fill="none" stroke="#ff6688" stroke-width="2" stroke-opacity="0.85" stroke-linejoin="round" stroke-linecap="round"/>
  <g id="pose2000" transform="translate(645.80,304.49) rotate(-135.00)">
    <rect x="-20.83" y="-25.00" width="41.66" height="50.00" rx="3" fill="#ff6688" fill-opacity="0.25" stroke="#ff6688" stroke-width="1.2" stroke-opacity="0.7"/>
    <rect x="-16.67" y="-20.83" width="33.33" height="41.66" fill="#ff6688" fill-opacity="0.55" stroke="#ff6688" stroke-width="1.5"/>
    <polygon points="16.67,0 2.08,14.58 2.08,-14.58" fill="#ffffff" fill-opacity="0.9"/>
    <circle cx="0" cy="0" r="3" fill="#ffffff" fill-opacity="0.9"/>
  </g>
  <g id="pose2001" transform="translate(645.91,304.48) rotate(-135.00)">
    <rect x="-20.83" y="-25.00" width="41.66" height="50.00" rx="3" fill="#ff6688" fill-opacity="0.25" stroke="#ff6688" stroke-width="1.2" stroke-opacity="0.7"/>
    <rect x="-16.67" y="-20.83" width="33.33" height="41.66" fill="#ff6688" fill-opacity="0.55" stroke="#ff6688" stroke-width="1.5"/>
    <polygon points="16.67,0 2.08,14.58 2.08,-14.58" fill="#ffffff" fill-opacity="0.9"/>
    <circle cx="0" cy="0" r="3" fill="#ffffff" fill-opacity="0.9"/>
  </g>
  <g id="pose2002" transform="translate(646.21,304.48) rotate(-134.45)">
    <line x1="0" y1="0" x2="10.00" y2="0" stroke="#ff6688" stroke-width="1.5" stroke-opacity="0.6"/>
    <circle cx="0" cy="0" r="1.5" fill="#ff6688" fill-opacity="0.5"/>
  </g>
  <g id="pose2003" transform="translate(646.73,304.47) rotate(-133.40)">
    <line x1="0" y1="0" x2="10.00" y2="0" stroke="#ff6688" stroke-width="1.5" stroke-opacity="0.6"/>
    <circle cx="0" cy="0" r="1.5" fill="#ff6688" fill-opacity="0.5"/>
  </g>
  <g id="pose2004" transform="translate(647.45,304.45) rotate(-131.90)">
    <line x1="0" y1="0" x2="10.00" y2="0" stroke="#ff6688" stroke-width="1.5" stroke-opacity="0.6"/>
    <circle cx="0" cy="0" r="1.5" fill="#ff6688" fill-opacity="0.5"/>
  </g>
  <g id="pose2005" transform="translate(648.38,304.43) rotate(-129.99)">
    <line x1="0" y1="0" x2="10.00" y2="0" stroke="#ff6688" stroke-width="1.5" stroke-opacity="0.6"/>
    <circle cx="0" cy="0" r="1.5" fill="#ff6688" fill-opacity="0.5"/>
  </g>
  <g id="pose2006" transform="translate(649.51,304.41) rotate(-127.72)">
    <line x1="0" y1="0" x2="10.00" y2="0" stroke="#ff6688" stroke-width="1.5" stroke-opacity="0.6"/>
    <circle cx="0" cy="0" r="1.5" fill="#ff6688" fill-opacity="0.5"/>
  </g>
  <g id="pose2007" transform="translate(650.85,304.38) rotate(-125.11)">
    <line x1="0" y1="0" x2="10.00" y2="0" stroke="#ff6688" stroke-width="1.5" stroke-opacity="0.6"/>
    <circle cx="0" cy="0" r="1.5" fill="#ff6688" fill-opacity="0.5"/>
  </g>
  <g id="pose2008" transform="translate(652.39,304.35) rotate(-122.21)">
    <line x1="0" y1="0" x2="10.00" y2="0" stroke="#ff6688" stroke-width="1.5" stroke-opacity="0.6"/>
    <circle cx="0" cy="0" r="1.5" fill="#ff6688" fill-opacity="0.5"/>
  </g>
  <g id="pose2009" transform="translate(654.14,304.31) rotate(-119.05)">
    <line x1="0" y1="0" x2="10.00" y2="0" stroke="#ff6688" stroke-width="1.5" stroke-opacity="0.6"/>
    <circle cx="0" cy="0" r="1.5" fill="#ff6688" fill-opacity="0.5"/>
  </g>
  <g id="pose2010" transform="translate(656.09,304.27) rotate(-115.65)">
    <line x1="0" y1="0" x2="10.00" y2="0" stroke="#ff6688" stroke-width="1.5" stroke-opacity="0.6"/>
    <circle cx="0" cy="0" r="1.5" fill="#ff6688" fill-opacity="0.5"/>
  </g>
  <g id="pose2011" transform="translate(658.25,304.22) rotate(-112.04)">
    <line x1="0" y1="0" x2="10.00" y2="0" stroke="#ff6688" stroke-width="1.5" stroke-opacity="0.6"/>
    <circle cx="0" cy="0" r="1.5" fill="#ff6688" fill-opacity="0.5"/>
  </g>
  <g id="pose2012" transform="translate(660.62,304.17) rotate(-108.26)">
    <line x1="0" y1="0" x2="10.00" y2="0" stroke="#ff6688" stroke-width="1.5" stroke-opacity="0.6"/>
    <circle cx="0" cy="0" r="1.5" fill="#ff6688" fill-opacity="0.5"/>
  </g>
  <g id="pose2013" transform="translate(663.19,304.12) rotate(-104.31)">
    <line x1="0" y1="0" x2="10.00" y2="0" stroke="#ff6688" stroke-width="1.5" stroke-opacity="0.6"/>
    <circle cx="0" cy="0" r="1.5" fill="#ff6688" fill-opacity="0.5"/>
  </g>
  <g id="pose2014" transform="translate(665.97,304.06) rotate(-100.23)">
    <line x1="0" y1="0" x2="10.00" y2="0" stroke="#ff6688" stroke-width="1.5" stroke-opacity="0.6"/>
    <circle cx="0" cy="0" r="1.5" fill="#ff6688" fill-opacity="0.5"/>
  </g>
  <g id="pose2015" transform="translate(668.96,303.99) rotate(-96.03)">
    <line x1="0" y1="0" x2="10.00" y2="0" stroke="#ff6688" stroke-width="1.5" stroke-opacity="0.6"/>
    <circle cx="0" cy="0" r="1.5" fill="#ff6688" fill-opacity="0.5"/>
  </g>
  <g id="pose2016" transform="translate(672.15,303.93) rotate(-91.74)">
    <line x1="0" y1="0" x2="10.00" y2="0" stroke="#ff6688" stroke-width="1.5" stroke-opacity="0.6"/>
    <circle cx="0" cy="0" r="1.5" fill="#ff6688" fill-opacity="0.5"/>
  </g>
  <g id="pose2017" transform="translate(675.54,303.85) rotate(-87.36)">
    <line x1="0" y1="0" x2="10.00" y2="0" stroke="#ff6688" stroke-width="1.5" stroke-opacity="0.6"/>
    <circle cx="0" cy="0" r="1.5" fill="#ff6688" fill-opacity="0.5"/>
  </g>
  <g id="pose2018" transform="translate(679.14,303.78) rotate(-82.92)">
    <line x1="0" y1="0" x2="10.00" y2="0" stroke="#ff6688" stroke-width="1.5" stroke-opacity="0.6"/>
    <circle cx="0" cy="0" r="1.5" fill="#ff6688" fill-opacity="0.5"/>
  </g>
  <g id="pose2019" transform="translate(682.95,303.70) rotate(-78.42)">
    <line x1="0" y1="0" x2="10.00" y2="0" stroke="#ff6688" stroke-width="1.5" stroke-opacity="0.6"/>
    <circle cx="0" cy="0" r="1.5" fill="#ff6688" fill-opacity="0.5"/>
  </g>
  <g id="pose2020" transform="translate(686.96,303.61) rotate(-73.89)">
    <line x1="0" y1="0" x2="10.00" y2="0" stroke="#ff6688" stroke-width="1.5" stroke-opacity="0.6"/>
    <circle cx="0" cy="0" r="1.5" fill="#ff6688" fill-opacity="0.5"/>
  </g>
  <g id="pose2021" transform="translate(691.18,303.52) rotate(-69.32)">
    <line x1="0" y1="0" x2="10.00" y2="0" stroke="#ff6688" stroke-width="1.5" stroke-opacity="0.6"/>
    <circle cx="0" cy="0" r="1.5" fill="#ff6688" fill-opacity="0.5"/>
  </g>
  <g id="pose2022" transform="translate(695.60,303.43) rotate(-64.74)">
    <line x1="0" y1="0" x2="10.00" y2="0" stroke="#ff6688" stroke-width="1.5" stroke-opacity="0.6"/>
    <circle cx="0" cy="0" r="1.5" fill="#ff6688" fill-opacity="0.5"/>
  </g>
  <g id="pose2023" transform="translate(700.23,303.33) rotate(-60.14)">
    <line x1="0" y1="0" x2="10.00" y2="0" stroke="#ff6688" stroke-width="1.5" stroke-opacity="0.6"/>
    <circle cx="0" cy="0" r="1.5" fill="#ff6688" fill-opacity="0.5"/>
  </g>
  <g id="pose2024" transform="translate(704.96,303.23) rotate(-55.54)">
    <line x1="0" y1="0" x2="10.00" y2="0" stroke="#ff6688" stroke-width="1.5" stroke-opacity="0.6"/>
    <circle cx="0" cy="0" r="1.5" fill="#ff6688" fill-opacity="0.5"/>
  </g>
  <g id="pose2025" transform="translate(709.59,303.13) rotate(-50.94)">
    <line x1="0" y1="0" x2="10.00" y2="0" stroke="#ff6688" stroke-width="1.5" stroke-opacity="0.6"/>
    <circle cx="0" cy="0" r="1.5" fill="#ff6688" fill-opacity="0.5"/>
  </g>
  <g id="pose2026" transform="translate(714.01,303.04) rotate(-46.35)">
    <line x1="0" y1="0" x2="10.00" y2="0" stroke="#ff6688" stroke-width="1.5" stroke-opacity="0.6"/>
    <circle cx="0" cy="0" r="1.5" fill="#ff6688" fill-opacity="0.5"/>
  </g>
  <g id="pose2027" transform="translate(718.23,302.95) rotate(-41.77)">
    <line x1="0" y1="0" x2="10.00" y2="0" stroke="#ff6688" stroke-width="1.5" stroke-opacity="0.6"/>
    <circle cx="0" cy="0" r="1.5" fill="#ff6688" fill-opacity="0.5"/>
  </g>
  <g id="pose2028" transform="translate(722.24,302.86) rotate(-37.21)">
    <line x1="0" y1="0" x2="10.00" y2="0" stroke="#ff6688" stroke-width="1.5" stroke-opacity="0.6"/>
    <circle cx="0" cy="0" r="1.5" fill="#ff6688" fill-opacity="0.5"/>
  </g>
  <g id="pose2029" transform="translate(726.05,302.78) rotate(-32.69)">
    <line x1="0" y1="0" x2="10.00" y2="0" stroke="#ff6688" stroke-width="1.5" stroke-opacity="0.6"/>
    <circle cx="0" cy="0" r="1.5" fill="#ff6688" fill-opacity="0.5"/>
  </g>
  <g id="pose2030" transform="translate(729.65,302.70) rotate(-28.21)">
    <line x1="0" y1="0" x2="10.00" y2="0" stroke="#ff6688" stroke-width="1.5" stroke-opacity="0.6"/>
    <circle cx="0" cy="0" r="1.5" fill="#ff6688" fill-opacity="0.5"/>
  </g>
  <g id="pose2031" transform="translate(733.05,302.63) rotate(-23.78)">
    <line x1="0" y1="0" x2="10.00" y2="0" stroke="#ff6688" stroke-width="1.5" stroke-opacity="0.6"/>
    <circle cx="0" cy="0" r="1.5" fill="#ff6688" fill-opacity="0.5"/>
  </g>
  <g id="pose2032" transform="translate(736.23,302.56) rotate(-19.43)">
    <line x1="0" y1="0" x2="10.00" y2="0" stroke="#ff6688" stroke-width="1.5" stroke-opacity="0.6"/>
    <circle cx="0" cy="0" r="1.5" fill="#ff6688" fill-opacity="0.5"/>
  </g>
  <g id="pose2033" transform="translate(739.22,302.50) rotate(-15.15)">
    <line x1="0" y1="0" x2="10.00" y2="0" stroke="#ff6688" stroke-width="1.5" stroke-opacity="0.6"/>
    <circle cx="0" cy="0" r="1.5" fill="#ff6688" fill-opacity="0.5"/>
  </g>
  <g id="pose2034" transform="translate(742.00,302.44) rotate(-10.97)">
    <line x1="0" y1="0" x2="10.00" y2="0" stroke="#ff6688" stroke-width="1.5" stroke-opacity="0.6"/>
    <circle cx="0" cy="0" r="1.5" fill="#ff6688" fill-opacity="0.5"/>
  </g>
  <g id="pose2035" transform="translate(744.57,302.39) rotate(-6.91)">
    <line x1="0" y1="0" x2="10.00" y2="0" stroke="#ff6688" stroke-width="1.5" stroke-opacity="0.6"/>
    <circle cx="0" cy="0" r="1.5" fill="#ff6688" fill-opacity="0.5"/>
  </g>
  <g id="pose2036" transform="translate(746.94,302.34) rotate(-2.98)">
    <line x1="0" y1="0" x2="10.00" y2="0" stroke="#ff6688" stroke-width="1.5" stroke-opacity="0.6"/>
    <circle cx="0" cy="0" r="1.5" fill="#ff6688" fill-opacity="0.5"/>
  </g>
  <g id="pose2037" transform="translate(749.10,302.29) rotate(0.79)">
    <line x1="0" y1="0" x2="10.00" y2="0" stroke="#ff6688" stroke-width="1.5" stroke-opacity="0.6"/>
    <circle cx="0" cy="0" r="1.5" fill="#ff6688" fill-opacity="0.5"/>
  </g>
  <g id="pose2038" transform="translate(751.05,302.25) rotate(4.38)">
    <line x1="0" y1="0" x2="10.00" y2="0" stroke="#ff6688" stroke-width="1.5" stroke-opacity="0.6"/>
    <circle cx="0" cy="0" r="1.5" fill="#ff6688" fill-opacity="0.5"/>
  </g>
  <g id="pose2039" transform="translate(752.80,302.21) rotate(7.77)">
    <line x1="0" y1="0" x2="10.00" y2="0" stroke="#ff6688" stroke-width="1.5" stroke-opacity="0.6"/>
    <circle cx="0" cy="0" r="1.5" fill="#ff6688" fill-opacity="0.5"/>
  </g>
  <g id="pose2040" transform="translate(754.35,302.18) rotate(10.91)">
    <line x1="0" y1="0" x2="10.00" y2="0" stroke="#ff6688" stroke-width="1.5" stroke-opacity="0.6"/>
    <circle cx="0" cy="0" r="1.5" fill="#ff6688" fill-opacity="0.5"/>
  </g>
  <g id="pose2041" transform="translate(755.68,302.15) rotate(13.80)">
    <line x1="0" y1="0" x2="10.00" y2="0" stroke="#ff6688" stroke-width="1.5" stroke-opacity="0.6"/>
    <circle cx="0" cy="0" r="1.5" fill="#ff6688" fill-opacity="0.5"/>
  </g>
  <g id="pose2042" transform="translate(756.82,302.12) rotate(16.39)">
    <line x1="0" y1="0" x2="10.00" y2="0" stroke="#ff6688" stroke-width="1.5" stroke-opacity="0.6"/>
    <circle cx="0" cy="0" r="1.5" fill="#ff6688" fill-opacity="0.5"/>
  </g>
  <g id="pose2043" transform="translate(757.74,302.11) rotate(18.66)">
    <line x1="0" y1="0" x2="10.00" y2="0" stroke="#ff6688" stroke-width="1.5" stroke-opacity="0.6"/>
    <circle cx="0" cy="0" r="1.5" fill="#ff6688" fill-opacity="0.5"/>
  </g>
  <g id="pose2044" transform="translate(758.46,302.09) rotate(20.55)">
    <line x1="0" y1="0" x2="10.00" y2="0" stroke="#ff6688" stroke-width="1.5" stroke-opacity="0.6"/>
    <circle cx="0" cy="0" r="1.5" fill="#ff6688" fill-opacity="0.5"/>
  </g>
  <g id="pose2045" transform="translate(758.98,302.08) rotate(22.03)">
    <line x1="0" y1="0" x2="10.00" y2="0" stroke="#ff6688" stroke-width="1.5" stroke-opacity="0.6"/>
    <circle cx="0" cy="0" r="1.5" fill="#ff6688" fill-opacity="0.5"/>
  </g>
  <g id="pose2046" transform="translate(759.29,302.07) rotate(23.06)">
    <rect x="-20.83" y="-25.00" width="41.66" height="50.00" rx="3" fill="#ff6688" fill-opacity="0.25" stroke="#ff6688" stroke-width="1.2" stroke-opacity="0.7"/>
    <rect x="-16.67" y="-20.83" width="33.33" height="41.66" fill="#ff6688" fill-opacity="0.55" stroke="#ff6688" stroke-width="1.5"/>
    <polygon points="16.67,0 2.08,14.58 2.08,-14.58" fill="#ffffff" fill-opacity="0.9"/>
    <circle cx="0" cy="0" r="3" fill="#ffffff" fill-opacity="0.9"/>
  </g>
  <g id="pose2047" transform="translate(759.39,302.07) rotate(23.59)">
    <rect x="-20.83" y="-25.00" width="41.66" height="50.00" rx="3" fill="#ff6688" fill-opacity="0.25" stroke="#ff6688" stroke-width="1.2" stroke-opacity="0.7"/>
    <rect x="-16.67" y="-20.83" width="33.33" height="41.66" fill="#ff6688" fill-opacity="0.55" stroke="#ff6688" stroke-width="1.5"/>
    <polygon points="16.67,0 2.08,14.58 2.08,-14.58" fill="#ffffff" fill-opacity="0.9"/>
    <circle cx="0" cy="0" r="3" fill="#ffffff" fill-opacity="0.9"/>
  </g>
  <rect x="647.8" y="287.5" width="112.5" height="11" rx="3" fill="#000000" fill-opacity="0.65"/>
  <text x="651.8" y="296.5" font-size="9" fill="#ff6688" font-family="monospace" font-weight="bold">S3: BlueRightBumpNZNZ_C</text>
</svg>